%TF.GenerationSoftware,KiCad,Pcbnew,(5.1.9)-1*%
%TF.CreationDate,2021-04-22T01:41:48-06:00*%
%TF.ProjectId,Left Keyboard,4c656674-204b-4657-9962-6f6172642e6b,rev?*%
%TF.SameCoordinates,Original*%
%TF.FileFunction,Legend,Top*%
%TF.FilePolarity,Positive*%
%FSLAX46Y46*%
G04 Gerber Fmt 4.6, Leading zero omitted, Abs format (unit mm)*
G04 Created by KiCad (PCBNEW (5.1.9)-1) date 2021-04-22 01:41:48*
%MOMM*%
%LPD*%
G01*
G04 APERTURE LIST*
%ADD10C,0.381000*%
%ADD11C,0.200000*%
%ADD12C,0.120000*%
%ADD13C,0.150000*%
%ADD14C,0.101600*%
%ADD15C,0.203200*%
G04 APERTURE END LIST*
D10*
%TO.C,K6-2*%
X164725000Y-44790500D02*
X164725000Y-43012500D01*
X164725000Y-55712500D02*
X164725000Y-53934500D01*
X166503000Y-55712500D02*
X164725000Y-55712500D01*
X177425000Y-55712500D02*
X175647000Y-55712500D01*
X177425000Y-53934500D02*
X177425000Y-55712500D01*
X177425000Y-43012500D02*
X177425000Y-44790500D01*
X175647000Y-43012500D02*
X177425000Y-43012500D01*
X164725000Y-43012500D02*
X166503000Y-43012500D01*
D11*
%TO.C,D1-1*%
X206412500Y-65575000D02*
X206412500Y-71175000D01*
X204012500Y-65575000D02*
X206412500Y-65575000D01*
X204012500Y-71175000D02*
X204012500Y-65575000D01*
X204012500Y-71175000D02*
X206412500Y-71175000D01*
X204012500Y-71000000D02*
X206412500Y-71000000D01*
X204012500Y-70825000D02*
X206412500Y-70825000D01*
X204012500Y-70650000D02*
X206412500Y-70650000D01*
X204012500Y-70550000D02*
X206412500Y-70550000D01*
X204012500Y-70450000D02*
X206412500Y-70450000D01*
%TO.C,D1-2*%
X204012500Y-85137500D02*
X206412500Y-85137500D01*
X204012500Y-85237500D02*
X206412500Y-85237500D01*
X204012500Y-85337500D02*
X206412500Y-85337500D01*
X204012500Y-85512500D02*
X206412500Y-85512500D01*
X204012500Y-85687500D02*
X206412500Y-85687500D01*
X204012500Y-85862500D02*
X206412500Y-85862500D01*
X204012500Y-85862500D02*
X204012500Y-80262500D01*
X204012500Y-80262500D02*
X206412500Y-80262500D01*
X206412500Y-80262500D02*
X206412500Y-85862500D01*
%TO.C,D1-3*%
X206412500Y-94950000D02*
X206412500Y-100550000D01*
X204012500Y-94950000D02*
X206412500Y-94950000D01*
X204012500Y-100550000D02*
X204012500Y-94950000D01*
X204012500Y-100550000D02*
X206412500Y-100550000D01*
X204012500Y-100375000D02*
X206412500Y-100375000D01*
X204012500Y-100200000D02*
X206412500Y-100200000D01*
X204012500Y-100025000D02*
X206412500Y-100025000D01*
X204012500Y-99925000D02*
X206412500Y-99925000D01*
X204012500Y-99825000D02*
X206412500Y-99825000D01*
%TO.C,D1-4*%
X204012500Y-115512500D02*
X206412500Y-115512500D01*
X204012500Y-115612500D02*
X206412500Y-115612500D01*
X204012500Y-115712500D02*
X206412500Y-115712500D01*
X204012500Y-115887500D02*
X206412500Y-115887500D01*
X204012500Y-116062500D02*
X206412500Y-116062500D01*
X204012500Y-116237500D02*
X206412500Y-116237500D01*
X204012500Y-116237500D02*
X204012500Y-110637500D01*
X204012500Y-110637500D02*
X206412500Y-110637500D01*
X206412500Y-110637500D02*
X206412500Y-116237500D01*
%TO.C,D1-5*%
X206412500Y-126325000D02*
X206412500Y-131925000D01*
X204012500Y-126325000D02*
X206412500Y-126325000D01*
X204012500Y-131925000D02*
X204012500Y-126325000D01*
X204012500Y-131925000D02*
X206412500Y-131925000D01*
X204012500Y-131750000D02*
X206412500Y-131750000D01*
X204012500Y-131575000D02*
X206412500Y-131575000D01*
X204012500Y-131400000D02*
X206412500Y-131400000D01*
X204012500Y-131300000D02*
X206412500Y-131300000D01*
X204012500Y-131200000D02*
X206412500Y-131200000D01*
%TO.C,D1-6*%
X204012500Y-146887500D02*
X206412500Y-146887500D01*
X204012500Y-146987500D02*
X206412500Y-146987500D01*
X204012500Y-147087500D02*
X206412500Y-147087500D01*
X204012500Y-147262500D02*
X206412500Y-147262500D01*
X204012500Y-147437500D02*
X206412500Y-147437500D01*
X204012500Y-147612500D02*
X206412500Y-147612500D01*
X204012500Y-147612500D02*
X204012500Y-142012500D01*
X204012500Y-142012500D02*
X206412500Y-142012500D01*
X206412500Y-142012500D02*
X206412500Y-147612500D01*
%TO.C,D2-1*%
X209700000Y-65575000D02*
X209700000Y-71175000D01*
X207300000Y-65575000D02*
X209700000Y-65575000D01*
X207300000Y-71175000D02*
X207300000Y-65575000D01*
X207300000Y-71175000D02*
X209700000Y-71175000D01*
X207300000Y-71000000D02*
X209700000Y-71000000D01*
X207300000Y-70825000D02*
X209700000Y-70825000D01*
X207300000Y-70650000D02*
X209700000Y-70650000D01*
X207300000Y-70550000D02*
X209700000Y-70550000D01*
X207300000Y-70450000D02*
X209700000Y-70450000D01*
%TO.C,D2-2*%
X207300000Y-85137500D02*
X209700000Y-85137500D01*
X207300000Y-85237500D02*
X209700000Y-85237500D01*
X207300000Y-85337500D02*
X209700000Y-85337500D01*
X207300000Y-85512500D02*
X209700000Y-85512500D01*
X207300000Y-85687500D02*
X209700000Y-85687500D01*
X207300000Y-85862500D02*
X209700000Y-85862500D01*
X207300000Y-85862500D02*
X207300000Y-80262500D01*
X207300000Y-80262500D02*
X209700000Y-80262500D01*
X209700000Y-80262500D02*
X209700000Y-85862500D01*
%TO.C,D2-3*%
X209700000Y-94950000D02*
X209700000Y-100550000D01*
X207300000Y-94950000D02*
X209700000Y-94950000D01*
X207300000Y-100550000D02*
X207300000Y-94950000D01*
X207300000Y-100550000D02*
X209700000Y-100550000D01*
X207300000Y-100375000D02*
X209700000Y-100375000D01*
X207300000Y-100200000D02*
X209700000Y-100200000D01*
X207300000Y-100025000D02*
X209700000Y-100025000D01*
X207300000Y-99925000D02*
X209700000Y-99925000D01*
X207300000Y-99825000D02*
X209700000Y-99825000D01*
%TO.C,D2-4*%
X207300000Y-115512500D02*
X209700000Y-115512500D01*
X207300000Y-115612500D02*
X209700000Y-115612500D01*
X207300000Y-115712500D02*
X209700000Y-115712500D01*
X207300000Y-115887500D02*
X209700000Y-115887500D01*
X207300000Y-116062500D02*
X209700000Y-116062500D01*
X207300000Y-116237500D02*
X209700000Y-116237500D01*
X207300000Y-116237500D02*
X207300000Y-110637500D01*
X207300000Y-110637500D02*
X209700000Y-110637500D01*
X209700000Y-110637500D02*
X209700000Y-116237500D01*
%TO.C,D2-5*%
X209700000Y-126325000D02*
X209700000Y-131925000D01*
X207300000Y-126325000D02*
X209700000Y-126325000D01*
X207300000Y-131925000D02*
X207300000Y-126325000D01*
X207300000Y-131925000D02*
X209700000Y-131925000D01*
X207300000Y-131750000D02*
X209700000Y-131750000D01*
X207300000Y-131575000D02*
X209700000Y-131575000D01*
X207300000Y-131400000D02*
X209700000Y-131400000D01*
X207300000Y-131300000D02*
X209700000Y-131300000D01*
X207300000Y-131200000D02*
X209700000Y-131200000D01*
%TO.C,D2-6*%
X207300000Y-146887500D02*
X209700000Y-146887500D01*
X207300000Y-146987500D02*
X209700000Y-146987500D01*
X207300000Y-147087500D02*
X209700000Y-147087500D01*
X207300000Y-147262500D02*
X209700000Y-147262500D01*
X207300000Y-147437500D02*
X209700000Y-147437500D01*
X207300000Y-147612500D02*
X209700000Y-147612500D01*
X207300000Y-147612500D02*
X207300000Y-142012500D01*
X207300000Y-142012500D02*
X209700000Y-142012500D01*
X209700000Y-142012500D02*
X209700000Y-147612500D01*
%TO.C,D3-1*%
X212987500Y-65575000D02*
X212987500Y-71175000D01*
X210587500Y-65575000D02*
X212987500Y-65575000D01*
X210587500Y-71175000D02*
X210587500Y-65575000D01*
X210587500Y-71175000D02*
X212987500Y-71175000D01*
X210587500Y-71000000D02*
X212987500Y-71000000D01*
X210587500Y-70825000D02*
X212987500Y-70825000D01*
X210587500Y-70650000D02*
X212987500Y-70650000D01*
X210587500Y-70550000D02*
X212987500Y-70550000D01*
X210587500Y-70450000D02*
X212987500Y-70450000D01*
%TO.C,D3-2*%
X210587500Y-85137500D02*
X212987500Y-85137500D01*
X210587500Y-85237500D02*
X212987500Y-85237500D01*
X210587500Y-85337500D02*
X212987500Y-85337500D01*
X210587500Y-85512500D02*
X212987500Y-85512500D01*
X210587500Y-85687500D02*
X212987500Y-85687500D01*
X210587500Y-85862500D02*
X212987500Y-85862500D01*
X210587500Y-85862500D02*
X210587500Y-80262500D01*
X210587500Y-80262500D02*
X212987500Y-80262500D01*
X212987500Y-80262500D02*
X212987500Y-85862500D01*
%TO.C,D3-3*%
X212987500Y-94950000D02*
X212987500Y-100550000D01*
X210587500Y-94950000D02*
X212987500Y-94950000D01*
X210587500Y-100550000D02*
X210587500Y-94950000D01*
X210587500Y-100550000D02*
X212987500Y-100550000D01*
X210587500Y-100375000D02*
X212987500Y-100375000D01*
X210587500Y-100200000D02*
X212987500Y-100200000D01*
X210587500Y-100025000D02*
X212987500Y-100025000D01*
X210587500Y-99925000D02*
X212987500Y-99925000D01*
X210587500Y-99825000D02*
X212987500Y-99825000D01*
%TO.C,D3-4*%
X210587500Y-115512500D02*
X212987500Y-115512500D01*
X210587500Y-115612500D02*
X212987500Y-115612500D01*
X210587500Y-115712500D02*
X212987500Y-115712500D01*
X210587500Y-115887500D02*
X212987500Y-115887500D01*
X210587500Y-116062500D02*
X212987500Y-116062500D01*
X210587500Y-116237500D02*
X212987500Y-116237500D01*
X210587500Y-116237500D02*
X210587500Y-110637500D01*
X210587500Y-110637500D02*
X212987500Y-110637500D01*
X212987500Y-110637500D02*
X212987500Y-116237500D01*
%TO.C,D3-5*%
X212987500Y-126325000D02*
X212987500Y-131925000D01*
X210587500Y-126325000D02*
X212987500Y-126325000D01*
X210587500Y-131925000D02*
X210587500Y-126325000D01*
X210587500Y-131925000D02*
X212987500Y-131925000D01*
X210587500Y-131750000D02*
X212987500Y-131750000D01*
X210587500Y-131575000D02*
X212987500Y-131575000D01*
X210587500Y-131400000D02*
X212987500Y-131400000D01*
X210587500Y-131300000D02*
X212987500Y-131300000D01*
X210587500Y-131200000D02*
X212987500Y-131200000D01*
%TO.C,D3-6*%
X210587500Y-146887500D02*
X212987500Y-146887500D01*
X210587500Y-146987500D02*
X212987500Y-146987500D01*
X210587500Y-147087500D02*
X212987500Y-147087500D01*
X210587500Y-147262500D02*
X212987500Y-147262500D01*
X210587500Y-147437500D02*
X212987500Y-147437500D01*
X210587500Y-147612500D02*
X212987500Y-147612500D01*
X210587500Y-147612500D02*
X210587500Y-142012500D01*
X210587500Y-142012500D02*
X212987500Y-142012500D01*
X212987500Y-142012500D02*
X212987500Y-147612500D01*
%TO.C,D4-1*%
X213875000Y-70450000D02*
X216275000Y-70450000D01*
X213875000Y-70550000D02*
X216275000Y-70550000D01*
X213875000Y-70650000D02*
X216275000Y-70650000D01*
X213875000Y-70825000D02*
X216275000Y-70825000D01*
X213875000Y-71000000D02*
X216275000Y-71000000D01*
X213875000Y-71175000D02*
X216275000Y-71175000D01*
X213875000Y-71175000D02*
X213875000Y-65575000D01*
X213875000Y-65575000D02*
X216275000Y-65575000D01*
X216275000Y-65575000D02*
X216275000Y-71175000D01*
%TO.C,D4-2*%
X216275000Y-80262500D02*
X216275000Y-85862500D01*
X213875000Y-80262500D02*
X216275000Y-80262500D01*
X213875000Y-85862500D02*
X213875000Y-80262500D01*
X213875000Y-85862500D02*
X216275000Y-85862500D01*
X213875000Y-85687500D02*
X216275000Y-85687500D01*
X213875000Y-85512500D02*
X216275000Y-85512500D01*
X213875000Y-85337500D02*
X216275000Y-85337500D01*
X213875000Y-85237500D02*
X216275000Y-85237500D01*
X213875000Y-85137500D02*
X216275000Y-85137500D01*
%TO.C,D4-3*%
X216275000Y-94950000D02*
X216275000Y-100550000D01*
X213875000Y-94950000D02*
X216275000Y-94950000D01*
X213875000Y-100550000D02*
X213875000Y-94950000D01*
X213875000Y-100550000D02*
X216275000Y-100550000D01*
X213875000Y-100375000D02*
X216275000Y-100375000D01*
X213875000Y-100200000D02*
X216275000Y-100200000D01*
X213875000Y-100025000D02*
X216275000Y-100025000D01*
X213875000Y-99925000D02*
X216275000Y-99925000D01*
X213875000Y-99825000D02*
X216275000Y-99825000D01*
%TO.C,D4-4*%
X213875000Y-115512500D02*
X216275000Y-115512500D01*
X213875000Y-115612500D02*
X216275000Y-115612500D01*
X213875000Y-115712500D02*
X216275000Y-115712500D01*
X213875000Y-115887500D02*
X216275000Y-115887500D01*
X213875000Y-116062500D02*
X216275000Y-116062500D01*
X213875000Y-116237500D02*
X216275000Y-116237500D01*
X213875000Y-116237500D02*
X213875000Y-110637500D01*
X213875000Y-110637500D02*
X216275000Y-110637500D01*
X216275000Y-110637500D02*
X216275000Y-116237500D01*
%TO.C,D4-5*%
X216275000Y-126325000D02*
X216275000Y-131925000D01*
X213875000Y-126325000D02*
X216275000Y-126325000D01*
X213875000Y-131925000D02*
X213875000Y-126325000D01*
X213875000Y-131925000D02*
X216275000Y-131925000D01*
X213875000Y-131750000D02*
X216275000Y-131750000D01*
X213875000Y-131575000D02*
X216275000Y-131575000D01*
X213875000Y-131400000D02*
X216275000Y-131400000D01*
X213875000Y-131300000D02*
X216275000Y-131300000D01*
X213875000Y-131200000D02*
X216275000Y-131200000D01*
%TO.C,D4-6*%
X213875000Y-146887500D02*
X216275000Y-146887500D01*
X213875000Y-146987500D02*
X216275000Y-146987500D01*
X213875000Y-147087500D02*
X216275000Y-147087500D01*
X213875000Y-147262500D02*
X216275000Y-147262500D01*
X213875000Y-147437500D02*
X216275000Y-147437500D01*
X213875000Y-147612500D02*
X216275000Y-147612500D01*
X213875000Y-147612500D02*
X213875000Y-142012500D01*
X213875000Y-142012500D02*
X216275000Y-142012500D01*
X216275000Y-142012500D02*
X216275000Y-147612500D01*
%TO.C,D5-1*%
X217162500Y-70450000D02*
X219562500Y-70450000D01*
X217162500Y-70550000D02*
X219562500Y-70550000D01*
X217162500Y-70650000D02*
X219562500Y-70650000D01*
X217162500Y-70825000D02*
X219562500Y-70825000D01*
X217162500Y-71000000D02*
X219562500Y-71000000D01*
X217162500Y-71175000D02*
X219562500Y-71175000D01*
X217162500Y-71175000D02*
X217162500Y-65575000D01*
X217162500Y-65575000D02*
X219562500Y-65575000D01*
X219562500Y-65575000D02*
X219562500Y-71175000D01*
%TO.C,D5-2*%
X219562500Y-80262500D02*
X219562500Y-85862500D01*
X217162500Y-80262500D02*
X219562500Y-80262500D01*
X217162500Y-85862500D02*
X217162500Y-80262500D01*
X217162500Y-85862500D02*
X219562500Y-85862500D01*
X217162500Y-85687500D02*
X219562500Y-85687500D01*
X217162500Y-85512500D02*
X219562500Y-85512500D01*
X217162500Y-85337500D02*
X219562500Y-85337500D01*
X217162500Y-85237500D02*
X219562500Y-85237500D01*
X217162500Y-85137500D02*
X219562500Y-85137500D01*
%TO.C,D5-3*%
X217162500Y-99825000D02*
X219562500Y-99825000D01*
X217162500Y-99925000D02*
X219562500Y-99925000D01*
X217162500Y-100025000D02*
X219562500Y-100025000D01*
X217162500Y-100200000D02*
X219562500Y-100200000D01*
X217162500Y-100375000D02*
X219562500Y-100375000D01*
X217162500Y-100550000D02*
X219562500Y-100550000D01*
X217162500Y-100550000D02*
X217162500Y-94950000D01*
X217162500Y-94950000D02*
X219562500Y-94950000D01*
X219562500Y-94950000D02*
X219562500Y-100550000D01*
%TO.C,D5-4*%
X219562500Y-110637500D02*
X219562500Y-116237500D01*
X217162500Y-110637500D02*
X219562500Y-110637500D01*
X217162500Y-116237500D02*
X217162500Y-110637500D01*
X217162500Y-116237500D02*
X219562500Y-116237500D01*
X217162500Y-116062500D02*
X219562500Y-116062500D01*
X217162500Y-115887500D02*
X219562500Y-115887500D01*
X217162500Y-115712500D02*
X219562500Y-115712500D01*
X217162500Y-115612500D02*
X219562500Y-115612500D01*
X217162500Y-115512500D02*
X219562500Y-115512500D01*
%TO.C,D5-5*%
X217162500Y-131200000D02*
X219562500Y-131200000D01*
X217162500Y-131300000D02*
X219562500Y-131300000D01*
X217162500Y-131400000D02*
X219562500Y-131400000D01*
X217162500Y-131575000D02*
X219562500Y-131575000D01*
X217162500Y-131750000D02*
X219562500Y-131750000D01*
X217162500Y-131925000D02*
X219562500Y-131925000D01*
X217162500Y-131925000D02*
X217162500Y-126325000D01*
X217162500Y-126325000D02*
X219562500Y-126325000D01*
X219562500Y-126325000D02*
X219562500Y-131925000D01*
%TO.C,D5-6*%
X219562500Y-142012500D02*
X219562500Y-147612500D01*
X217162500Y-142012500D02*
X219562500Y-142012500D01*
X217162500Y-147612500D02*
X217162500Y-142012500D01*
X217162500Y-147612500D02*
X219562500Y-147612500D01*
X217162500Y-147437500D02*
X219562500Y-147437500D01*
X217162500Y-147262500D02*
X219562500Y-147262500D01*
X217162500Y-147087500D02*
X219562500Y-147087500D01*
X217162500Y-146987500D02*
X219562500Y-146987500D01*
X217162500Y-146887500D02*
X219562500Y-146887500D01*
%TO.C,D6-1*%
X220450000Y-70450000D02*
X222850000Y-70450000D01*
X220450000Y-70550000D02*
X222850000Y-70550000D01*
X220450000Y-70650000D02*
X222850000Y-70650000D01*
X220450000Y-70825000D02*
X222850000Y-70825000D01*
X220450000Y-71000000D02*
X222850000Y-71000000D01*
X220450000Y-71175000D02*
X222850000Y-71175000D01*
X220450000Y-71175000D02*
X220450000Y-65575000D01*
X220450000Y-65575000D02*
X222850000Y-65575000D01*
X222850000Y-65575000D02*
X222850000Y-71175000D01*
%TO.C,D6-2*%
X222850000Y-80262500D02*
X222850000Y-85862500D01*
X220450000Y-80262500D02*
X222850000Y-80262500D01*
X220450000Y-85862500D02*
X220450000Y-80262500D01*
X220450000Y-85862500D02*
X222850000Y-85862500D01*
X220450000Y-85687500D02*
X222850000Y-85687500D01*
X220450000Y-85512500D02*
X222850000Y-85512500D01*
X220450000Y-85337500D02*
X222850000Y-85337500D01*
X220450000Y-85237500D02*
X222850000Y-85237500D01*
X220450000Y-85137500D02*
X222850000Y-85137500D01*
%TO.C,D6-3*%
X220450000Y-99825000D02*
X222850000Y-99825000D01*
X220450000Y-99925000D02*
X222850000Y-99925000D01*
X220450000Y-100025000D02*
X222850000Y-100025000D01*
X220450000Y-100200000D02*
X222850000Y-100200000D01*
X220450000Y-100375000D02*
X222850000Y-100375000D01*
X220450000Y-100550000D02*
X222850000Y-100550000D01*
X220450000Y-100550000D02*
X220450000Y-94950000D01*
X220450000Y-94950000D02*
X222850000Y-94950000D01*
X222850000Y-94950000D02*
X222850000Y-100550000D01*
%TO.C,D6-4*%
X222850000Y-110637500D02*
X222850000Y-116237500D01*
X220450000Y-110637500D02*
X222850000Y-110637500D01*
X220450000Y-116237500D02*
X220450000Y-110637500D01*
X220450000Y-116237500D02*
X222850000Y-116237500D01*
X220450000Y-116062500D02*
X222850000Y-116062500D01*
X220450000Y-115887500D02*
X222850000Y-115887500D01*
X220450000Y-115712500D02*
X222850000Y-115712500D01*
X220450000Y-115612500D02*
X222850000Y-115612500D01*
X220450000Y-115512500D02*
X222850000Y-115512500D01*
%TO.C,D6-5*%
X220450000Y-131200000D02*
X222850000Y-131200000D01*
X220450000Y-131300000D02*
X222850000Y-131300000D01*
X220450000Y-131400000D02*
X222850000Y-131400000D01*
X220450000Y-131575000D02*
X222850000Y-131575000D01*
X220450000Y-131750000D02*
X222850000Y-131750000D01*
X220450000Y-131925000D02*
X222850000Y-131925000D01*
X220450000Y-131925000D02*
X220450000Y-126325000D01*
X220450000Y-126325000D02*
X222850000Y-126325000D01*
X222850000Y-126325000D02*
X222850000Y-131925000D01*
%TO.C,D6-6*%
X222850000Y-142012500D02*
X222850000Y-147612500D01*
X220450000Y-142012500D02*
X222850000Y-142012500D01*
X220450000Y-147612500D02*
X220450000Y-142012500D01*
X220450000Y-147612500D02*
X222850000Y-147612500D01*
X220450000Y-147437500D02*
X222850000Y-147437500D01*
X220450000Y-147262500D02*
X222850000Y-147262500D01*
X220450000Y-147087500D02*
X222850000Y-147087500D01*
X220450000Y-146987500D02*
X222850000Y-146987500D01*
X220450000Y-146887500D02*
X222850000Y-146887500D01*
%TO.C,D7-1*%
X223737500Y-70450000D02*
X226137500Y-70450000D01*
X223737500Y-70550000D02*
X226137500Y-70550000D01*
X223737500Y-70650000D02*
X226137500Y-70650000D01*
X223737500Y-70825000D02*
X226137500Y-70825000D01*
X223737500Y-71000000D02*
X226137500Y-71000000D01*
X223737500Y-71175000D02*
X226137500Y-71175000D01*
X223737500Y-71175000D02*
X223737500Y-65575000D01*
X223737500Y-65575000D02*
X226137500Y-65575000D01*
X226137500Y-65575000D02*
X226137500Y-71175000D01*
%TO.C,D7-2*%
X226137500Y-80262500D02*
X226137500Y-85862500D01*
X223737500Y-80262500D02*
X226137500Y-80262500D01*
X223737500Y-85862500D02*
X223737500Y-80262500D01*
X223737500Y-85862500D02*
X226137500Y-85862500D01*
X223737500Y-85687500D02*
X226137500Y-85687500D01*
X223737500Y-85512500D02*
X226137500Y-85512500D01*
X223737500Y-85337500D02*
X226137500Y-85337500D01*
X223737500Y-85237500D02*
X226137500Y-85237500D01*
X223737500Y-85137500D02*
X226137500Y-85137500D01*
%TO.C,D7-3*%
X223737500Y-99825000D02*
X226137500Y-99825000D01*
X223737500Y-99925000D02*
X226137500Y-99925000D01*
X223737500Y-100025000D02*
X226137500Y-100025000D01*
X223737500Y-100200000D02*
X226137500Y-100200000D01*
X223737500Y-100375000D02*
X226137500Y-100375000D01*
X223737500Y-100550000D02*
X226137500Y-100550000D01*
X223737500Y-100550000D02*
X223737500Y-94950000D01*
X223737500Y-94950000D02*
X226137500Y-94950000D01*
X226137500Y-94950000D02*
X226137500Y-100550000D01*
%TO.C,D7-4*%
X226137500Y-110637500D02*
X226137500Y-116237500D01*
X223737500Y-110637500D02*
X226137500Y-110637500D01*
X223737500Y-116237500D02*
X223737500Y-110637500D01*
X223737500Y-116237500D02*
X226137500Y-116237500D01*
X223737500Y-116062500D02*
X226137500Y-116062500D01*
X223737500Y-115887500D02*
X226137500Y-115887500D01*
X223737500Y-115712500D02*
X226137500Y-115712500D01*
X223737500Y-115612500D02*
X226137500Y-115612500D01*
X223737500Y-115512500D02*
X226137500Y-115512500D01*
%TO.C,D7-5*%
X223737500Y-131200000D02*
X226137500Y-131200000D01*
X223737500Y-131300000D02*
X226137500Y-131300000D01*
X223737500Y-131400000D02*
X226137500Y-131400000D01*
X223737500Y-131575000D02*
X226137500Y-131575000D01*
X223737500Y-131750000D02*
X226137500Y-131750000D01*
X223737500Y-131925000D02*
X226137500Y-131925000D01*
X223737500Y-131925000D02*
X223737500Y-126325000D01*
X223737500Y-126325000D02*
X226137500Y-126325000D01*
X226137500Y-126325000D02*
X226137500Y-131925000D01*
%TO.C,D7-6*%
X226137500Y-142012500D02*
X226137500Y-147612500D01*
X223737500Y-142012500D02*
X226137500Y-142012500D01*
X223737500Y-147612500D02*
X223737500Y-142012500D01*
X223737500Y-147612500D02*
X226137500Y-147612500D01*
X223737500Y-147437500D02*
X226137500Y-147437500D01*
X223737500Y-147262500D02*
X226137500Y-147262500D01*
X223737500Y-147087500D02*
X226137500Y-147087500D01*
X223737500Y-146987500D02*
X226137500Y-146987500D01*
X223737500Y-146887500D02*
X226137500Y-146887500D01*
D10*
%TO.C,K1-1*%
X69475000Y-25740500D02*
X69475000Y-23962500D01*
X69475000Y-36662500D02*
X69475000Y-34884500D01*
X71253000Y-36662500D02*
X69475000Y-36662500D01*
X82175000Y-36662500D02*
X80397000Y-36662500D01*
X82175000Y-34884500D02*
X82175000Y-36662500D01*
X82175000Y-23962500D02*
X82175000Y-25740500D01*
X80397000Y-23962500D02*
X82175000Y-23962500D01*
X69475000Y-23962500D02*
X71253000Y-23962500D01*
%TO.C,K1-2*%
X69475000Y-43012500D02*
X71253000Y-43012500D01*
X80397000Y-43012500D02*
X82175000Y-43012500D01*
X82175000Y-43012500D02*
X82175000Y-44790500D01*
X82175000Y-53934500D02*
X82175000Y-55712500D01*
X82175000Y-55712500D02*
X80397000Y-55712500D01*
X71253000Y-55712500D02*
X69475000Y-55712500D01*
X69475000Y-55712500D02*
X69475000Y-53934500D01*
X69475000Y-44790500D02*
X69475000Y-43012500D01*
%TO.C,K1-3*%
X69475000Y-62062500D02*
X71253000Y-62062500D01*
X80397000Y-62062500D02*
X82175000Y-62062500D01*
X82175000Y-62062500D02*
X82175000Y-63840500D01*
X82175000Y-72984500D02*
X82175000Y-74762500D01*
X82175000Y-74762500D02*
X80397000Y-74762500D01*
X71253000Y-74762500D02*
X69475000Y-74762500D01*
X69475000Y-74762500D02*
X69475000Y-72984500D01*
X69475000Y-63840500D02*
X69475000Y-62062500D01*
%TO.C,K1-4*%
X69475000Y-82890500D02*
X69475000Y-81112500D01*
X69475000Y-93812500D02*
X69475000Y-92034500D01*
X71253000Y-93812500D02*
X69475000Y-93812500D01*
X82175000Y-93812500D02*
X80397000Y-93812500D01*
X82175000Y-92034500D02*
X82175000Y-93812500D01*
X82175000Y-81112500D02*
X82175000Y-82890500D01*
X80397000Y-81112500D02*
X82175000Y-81112500D01*
X69475000Y-81112500D02*
X71253000Y-81112500D01*
%TO.C,K1-5*%
X69475000Y-101940500D02*
X69475000Y-100162500D01*
X69475000Y-112862500D02*
X69475000Y-111084500D01*
X71253000Y-112862500D02*
X69475000Y-112862500D01*
X82175000Y-112862500D02*
X80397000Y-112862500D01*
X82175000Y-111084500D02*
X82175000Y-112862500D01*
X82175000Y-100162500D02*
X82175000Y-101940500D01*
X80397000Y-100162500D02*
X82175000Y-100162500D01*
X69475000Y-100162500D02*
X71253000Y-100162500D01*
%TO.C,K1-6*%
X69475000Y-119212500D02*
X71253000Y-119212500D01*
X80397000Y-119212500D02*
X82175000Y-119212500D01*
X82175000Y-119212500D02*
X82175000Y-120990500D01*
X82175000Y-130134500D02*
X82175000Y-131912500D01*
X82175000Y-131912500D02*
X80397000Y-131912500D01*
X71253000Y-131912500D02*
X69475000Y-131912500D01*
X69475000Y-131912500D02*
X69475000Y-130134500D01*
X69475000Y-120990500D02*
X69475000Y-119212500D01*
%TO.C,K2-1*%
X88525000Y-25740500D02*
X88525000Y-23962500D01*
X88525000Y-36662500D02*
X88525000Y-34884500D01*
X90303000Y-36662500D02*
X88525000Y-36662500D01*
X101225000Y-36662500D02*
X99447000Y-36662500D01*
X101225000Y-34884500D02*
X101225000Y-36662500D01*
X101225000Y-23962500D02*
X101225000Y-25740500D01*
X99447000Y-23962500D02*
X101225000Y-23962500D01*
X88525000Y-23962500D02*
X90303000Y-23962500D01*
%TO.C,K2-2*%
X88525000Y-43012500D02*
X90303000Y-43012500D01*
X99447000Y-43012500D02*
X101225000Y-43012500D01*
X101225000Y-43012500D02*
X101225000Y-44790500D01*
X101225000Y-53934500D02*
X101225000Y-55712500D01*
X101225000Y-55712500D02*
X99447000Y-55712500D01*
X90303000Y-55712500D02*
X88525000Y-55712500D01*
X88525000Y-55712500D02*
X88525000Y-53934500D01*
X88525000Y-44790500D02*
X88525000Y-43012500D01*
%TO.C,K2-3*%
X88525000Y-63840500D02*
X88525000Y-62062500D01*
X88525000Y-74762500D02*
X88525000Y-72984500D01*
X90303000Y-74762500D02*
X88525000Y-74762500D01*
X101225000Y-74762500D02*
X99447000Y-74762500D01*
X101225000Y-72984500D02*
X101225000Y-74762500D01*
X101225000Y-62062500D02*
X101225000Y-63840500D01*
X99447000Y-62062500D02*
X101225000Y-62062500D01*
X88525000Y-62062500D02*
X90303000Y-62062500D01*
%TO.C,K2-4*%
X88525000Y-81112500D02*
X90303000Y-81112500D01*
X99447000Y-81112500D02*
X101225000Y-81112500D01*
X101225000Y-81112500D02*
X101225000Y-82890500D01*
X101225000Y-92034500D02*
X101225000Y-93812500D01*
X101225000Y-93812500D02*
X99447000Y-93812500D01*
X90303000Y-93812500D02*
X88525000Y-93812500D01*
X88525000Y-93812500D02*
X88525000Y-92034500D01*
X88525000Y-82890500D02*
X88525000Y-81112500D01*
%TO.C,K2-5*%
X88525000Y-101940500D02*
X88525000Y-100162500D01*
X88525000Y-112862500D02*
X88525000Y-111084500D01*
X90303000Y-112862500D02*
X88525000Y-112862500D01*
X101225000Y-112862500D02*
X99447000Y-112862500D01*
X101225000Y-111084500D02*
X101225000Y-112862500D01*
X101225000Y-100162500D02*
X101225000Y-101940500D01*
X99447000Y-100162500D02*
X101225000Y-100162500D01*
X88525000Y-100162500D02*
X90303000Y-100162500D01*
%TO.C,K2-6*%
X88525000Y-119212500D02*
X90303000Y-119212500D01*
X99447000Y-119212500D02*
X101225000Y-119212500D01*
X101225000Y-119212500D02*
X101225000Y-120990500D01*
X101225000Y-130134500D02*
X101225000Y-131912500D01*
X101225000Y-131912500D02*
X99447000Y-131912500D01*
X90303000Y-131912500D02*
X88525000Y-131912500D01*
X88525000Y-131912500D02*
X88525000Y-130134500D01*
X88525000Y-120990500D02*
X88525000Y-119212500D01*
%TO.C,K3-1*%
X107575000Y-23962500D02*
X109353000Y-23962500D01*
X118497000Y-23962500D02*
X120275000Y-23962500D01*
X120275000Y-23962500D02*
X120275000Y-25740500D01*
X120275000Y-34884500D02*
X120275000Y-36662500D01*
X120275000Y-36662500D02*
X118497000Y-36662500D01*
X109353000Y-36662500D02*
X107575000Y-36662500D01*
X107575000Y-36662500D02*
X107575000Y-34884500D01*
X107575000Y-25740500D02*
X107575000Y-23962500D01*
%TO.C,K3-2*%
X107575000Y-43012500D02*
X109353000Y-43012500D01*
X118497000Y-43012500D02*
X120275000Y-43012500D01*
X120275000Y-43012500D02*
X120275000Y-44790500D01*
X120275000Y-53934500D02*
X120275000Y-55712500D01*
X120275000Y-55712500D02*
X118497000Y-55712500D01*
X109353000Y-55712500D02*
X107575000Y-55712500D01*
X107575000Y-55712500D02*
X107575000Y-53934500D01*
X107575000Y-44790500D02*
X107575000Y-43012500D01*
%TO.C,K3-3*%
X107575000Y-63840500D02*
X107575000Y-62062500D01*
X107575000Y-74762500D02*
X107575000Y-72984500D01*
X109353000Y-74762500D02*
X107575000Y-74762500D01*
X120275000Y-74762500D02*
X118497000Y-74762500D01*
X120275000Y-72984500D02*
X120275000Y-74762500D01*
X120275000Y-62062500D02*
X120275000Y-63840500D01*
X118497000Y-62062500D02*
X120275000Y-62062500D01*
X107575000Y-62062500D02*
X109353000Y-62062500D01*
%TO.C,K3-4*%
X107575000Y-81112500D02*
X109353000Y-81112500D01*
X118497000Y-81112500D02*
X120275000Y-81112500D01*
X120275000Y-81112500D02*
X120275000Y-82890500D01*
X120275000Y-92034500D02*
X120275000Y-93812500D01*
X120275000Y-93812500D02*
X118497000Y-93812500D01*
X109353000Y-93812500D02*
X107575000Y-93812500D01*
X107575000Y-93812500D02*
X107575000Y-92034500D01*
X107575000Y-82890500D02*
X107575000Y-81112500D01*
%TO.C,K3-5*%
X107575000Y-101940500D02*
X107575000Y-100162500D01*
X107575000Y-112862500D02*
X107575000Y-111084500D01*
X109353000Y-112862500D02*
X107575000Y-112862500D01*
X120275000Y-112862500D02*
X118497000Y-112862500D01*
X120275000Y-111084500D02*
X120275000Y-112862500D01*
X120275000Y-100162500D02*
X120275000Y-101940500D01*
X118497000Y-100162500D02*
X120275000Y-100162500D01*
X107575000Y-100162500D02*
X109353000Y-100162500D01*
%TO.C,K3-6*%
X107575000Y-119212500D02*
X109353000Y-119212500D01*
X118497000Y-119212500D02*
X120275000Y-119212500D01*
X120275000Y-119212500D02*
X120275000Y-120990500D01*
X120275000Y-130134500D02*
X120275000Y-131912500D01*
X120275000Y-131912500D02*
X118497000Y-131912500D01*
X109353000Y-131912500D02*
X107575000Y-131912500D01*
X107575000Y-131912500D02*
X107575000Y-130134500D01*
X107575000Y-120990500D02*
X107575000Y-119212500D01*
%TO.C,K4-1*%
X126625000Y-25740500D02*
X126625000Y-23962500D01*
X126625000Y-36662500D02*
X126625000Y-34884500D01*
X128403000Y-36662500D02*
X126625000Y-36662500D01*
X139325000Y-36662500D02*
X137547000Y-36662500D01*
X139325000Y-34884500D02*
X139325000Y-36662500D01*
X139325000Y-23962500D02*
X139325000Y-25740500D01*
X137547000Y-23962500D02*
X139325000Y-23962500D01*
X126625000Y-23962500D02*
X128403000Y-23962500D01*
%TO.C,K4-2*%
X126625000Y-43012500D02*
X128403000Y-43012500D01*
X137547000Y-43012500D02*
X139325000Y-43012500D01*
X139325000Y-43012500D02*
X139325000Y-44790500D01*
X139325000Y-53934500D02*
X139325000Y-55712500D01*
X139325000Y-55712500D02*
X137547000Y-55712500D01*
X128403000Y-55712500D02*
X126625000Y-55712500D01*
X126625000Y-55712500D02*
X126625000Y-53934500D01*
X126625000Y-44790500D02*
X126625000Y-43012500D01*
%TO.C,K4-3*%
X126625000Y-63840500D02*
X126625000Y-62062500D01*
X126625000Y-74762500D02*
X126625000Y-72984500D01*
X128403000Y-74762500D02*
X126625000Y-74762500D01*
X139325000Y-74762500D02*
X137547000Y-74762500D01*
X139325000Y-72984500D02*
X139325000Y-74762500D01*
X139325000Y-62062500D02*
X139325000Y-63840500D01*
X137547000Y-62062500D02*
X139325000Y-62062500D01*
X126625000Y-62062500D02*
X128403000Y-62062500D01*
%TO.C,K4-4*%
X126625000Y-81112500D02*
X128403000Y-81112500D01*
X137547000Y-81112500D02*
X139325000Y-81112500D01*
X139325000Y-81112500D02*
X139325000Y-82890500D01*
X139325000Y-92034500D02*
X139325000Y-93812500D01*
X139325000Y-93812500D02*
X137547000Y-93812500D01*
X128403000Y-93812500D02*
X126625000Y-93812500D01*
X126625000Y-93812500D02*
X126625000Y-92034500D01*
X126625000Y-82890500D02*
X126625000Y-81112500D01*
%TO.C,K4-5*%
X126625000Y-101940500D02*
X126625000Y-100162500D01*
X126625000Y-112862500D02*
X126625000Y-111084500D01*
X128403000Y-112862500D02*
X126625000Y-112862500D01*
X139325000Y-112862500D02*
X137547000Y-112862500D01*
X139325000Y-111084500D02*
X139325000Y-112862500D01*
X139325000Y-100162500D02*
X139325000Y-101940500D01*
X137547000Y-100162500D02*
X139325000Y-100162500D01*
X126625000Y-100162500D02*
X128403000Y-100162500D01*
%TO.C,K4-6*%
X135688239Y-120425739D02*
X137228032Y-121314739D01*
X145146968Y-125886739D02*
X146686761Y-126775739D01*
X146686761Y-126775739D02*
X145797761Y-128315532D01*
X141225761Y-136234468D02*
X140336761Y-137774261D01*
X140336761Y-137774261D02*
X138796968Y-136885261D01*
X130878032Y-132313261D02*
X129338239Y-131424261D01*
X129338239Y-131424261D02*
X130227239Y-129884468D01*
X134799239Y-121965532D02*
X135688239Y-120425739D01*
%TO.C,K5-1*%
X145675000Y-25740500D02*
X145675000Y-23962500D01*
X145675000Y-36662500D02*
X145675000Y-34884500D01*
X147453000Y-36662500D02*
X145675000Y-36662500D01*
X158375000Y-36662500D02*
X156597000Y-36662500D01*
X158375000Y-34884500D02*
X158375000Y-36662500D01*
X158375000Y-23962500D02*
X158375000Y-25740500D01*
X156597000Y-23962500D02*
X158375000Y-23962500D01*
X145675000Y-23962500D02*
X147453000Y-23962500D01*
%TO.C,K5-2*%
X145675000Y-43012500D02*
X147453000Y-43012500D01*
X156597000Y-43012500D02*
X158375000Y-43012500D01*
X158375000Y-43012500D02*
X158375000Y-44790500D01*
X158375000Y-53934500D02*
X158375000Y-55712500D01*
X158375000Y-55712500D02*
X156597000Y-55712500D01*
X147453000Y-55712500D02*
X145675000Y-55712500D01*
X145675000Y-55712500D02*
X145675000Y-53934500D01*
X145675000Y-44790500D02*
X145675000Y-43012500D01*
%TO.C,K5-3*%
X145675000Y-63840500D02*
X145675000Y-62062500D01*
X145675000Y-74762500D02*
X145675000Y-72984500D01*
X147453000Y-74762500D02*
X145675000Y-74762500D01*
X158375000Y-74762500D02*
X156597000Y-74762500D01*
X158375000Y-72984500D02*
X158375000Y-74762500D01*
X158375000Y-62062500D02*
X158375000Y-63840500D01*
X156597000Y-62062500D02*
X158375000Y-62062500D01*
X145675000Y-62062500D02*
X147453000Y-62062500D01*
%TO.C,K5-4*%
X145675000Y-82890500D02*
X145675000Y-81112500D01*
X145675000Y-93812500D02*
X145675000Y-92034500D01*
X147453000Y-93812500D02*
X145675000Y-93812500D01*
X158375000Y-93812500D02*
X156597000Y-93812500D01*
X158375000Y-92034500D02*
X158375000Y-93812500D01*
X158375000Y-81112500D02*
X158375000Y-82890500D01*
X156597000Y-81112500D02*
X158375000Y-81112500D01*
X145675000Y-81112500D02*
X147453000Y-81112500D01*
%TO.C,K5-5*%
X145675000Y-100162500D02*
X147453000Y-100162500D01*
X156597000Y-100162500D02*
X158375000Y-100162500D01*
X158375000Y-100162500D02*
X158375000Y-101940500D01*
X158375000Y-111084500D02*
X158375000Y-112862500D01*
X158375000Y-112862500D02*
X156597000Y-112862500D01*
X147453000Y-112862500D02*
X145675000Y-112862500D01*
X145675000Y-112862500D02*
X145675000Y-111084500D01*
X145675000Y-101940500D02*
X145675000Y-100162500D01*
%TO.C,K5-6*%
X125286739Y-138475532D02*
X126175739Y-136935739D01*
X119825739Y-147934261D02*
X120714739Y-146394468D01*
X121365532Y-148823261D02*
X119825739Y-147934261D01*
X130824261Y-154284261D02*
X129284468Y-153395261D01*
X131713261Y-152744468D02*
X130824261Y-154284261D01*
X137174261Y-143285739D02*
X136285261Y-144825532D01*
X135634468Y-142396739D02*
X137174261Y-143285739D01*
X126175739Y-136935739D02*
X127715532Y-137824739D01*
%TO.C,K6-1*%
X164725000Y-23962500D02*
X166503000Y-23962500D01*
X175647000Y-23962500D02*
X177425000Y-23962500D01*
X177425000Y-23962500D02*
X177425000Y-25740500D01*
X177425000Y-34884500D02*
X177425000Y-36662500D01*
X177425000Y-36662500D02*
X175647000Y-36662500D01*
X166503000Y-36662500D02*
X164725000Y-36662500D01*
X164725000Y-36662500D02*
X164725000Y-34884500D01*
X164725000Y-25740500D02*
X164725000Y-23962500D01*
%TO.C,K6-3*%
X164725000Y-62062500D02*
X166503000Y-62062500D01*
X175647000Y-62062500D02*
X177425000Y-62062500D01*
X177425000Y-62062500D02*
X177425000Y-63840500D01*
X177425000Y-72984500D02*
X177425000Y-74762500D01*
X177425000Y-74762500D02*
X175647000Y-74762500D01*
X166503000Y-74762500D02*
X164725000Y-74762500D01*
X164725000Y-74762500D02*
X164725000Y-72984500D01*
X164725000Y-63840500D02*
X164725000Y-62062500D01*
%TO.C,K6-4*%
X164725000Y-82890500D02*
X164725000Y-81112500D01*
X164725000Y-93812500D02*
X164725000Y-92034500D01*
X166503000Y-93812500D02*
X164725000Y-93812500D01*
X177425000Y-93812500D02*
X175647000Y-93812500D01*
X177425000Y-92034500D02*
X177425000Y-93812500D01*
X177425000Y-81112500D02*
X177425000Y-82890500D01*
X175647000Y-81112500D02*
X177425000Y-81112500D01*
X164725000Y-81112500D02*
X166503000Y-81112500D01*
%TO.C,K6-5*%
X164725000Y-101940500D02*
X164725000Y-100162500D01*
X164725000Y-112862500D02*
X164725000Y-111084500D01*
X166503000Y-112862500D02*
X164725000Y-112862500D01*
X177425000Y-112862500D02*
X175647000Y-112862500D01*
X177425000Y-111084500D02*
X177425000Y-112862500D01*
X177425000Y-100162500D02*
X177425000Y-101940500D01*
X175647000Y-100162500D02*
X177425000Y-100162500D01*
X164725000Y-100162500D02*
X166503000Y-100162500D01*
%TO.C,K6-6*%
X157675739Y-120475739D02*
X159215532Y-121364739D01*
X167134468Y-125936739D02*
X168674261Y-126825739D01*
X168674261Y-126825739D02*
X167785261Y-128365532D01*
X163213261Y-136284468D02*
X162324261Y-137824261D01*
X162324261Y-137824261D02*
X160784468Y-136935261D01*
X152865532Y-132363261D02*
X151325739Y-131474261D01*
X151325739Y-131474261D02*
X152214739Y-129934468D01*
X156786739Y-122015532D02*
X157675739Y-120475739D01*
%TO.C,K7-1*%
X183775000Y-25740500D02*
X183775000Y-23962500D01*
X183775000Y-36662500D02*
X183775000Y-34884500D01*
X185553000Y-36662500D02*
X183775000Y-36662500D01*
X196475000Y-36662500D02*
X194697000Y-36662500D01*
X196475000Y-34884500D02*
X196475000Y-36662500D01*
X196475000Y-23962500D02*
X196475000Y-25740500D01*
X194697000Y-23962500D02*
X196475000Y-23962500D01*
X183775000Y-23962500D02*
X185553000Y-23962500D01*
%TO.C,K7-2*%
X183775000Y-43012500D02*
X185553000Y-43012500D01*
X194697000Y-43012500D02*
X196475000Y-43012500D01*
X196475000Y-43012500D02*
X196475000Y-44790500D01*
X196475000Y-53934500D02*
X196475000Y-55712500D01*
X196475000Y-55712500D02*
X194697000Y-55712500D01*
X185553000Y-55712500D02*
X183775000Y-55712500D01*
X183775000Y-55712500D02*
X183775000Y-53934500D01*
X183775000Y-44790500D02*
X183775000Y-43012500D01*
%TO.C,K7-3*%
X183775000Y-63840500D02*
X183775000Y-62062500D01*
X183775000Y-74762500D02*
X183775000Y-72984500D01*
X185553000Y-74762500D02*
X183775000Y-74762500D01*
X196475000Y-74762500D02*
X194697000Y-74762500D01*
X196475000Y-72984500D02*
X196475000Y-74762500D01*
X196475000Y-62062500D02*
X196475000Y-63840500D01*
X194697000Y-62062500D02*
X196475000Y-62062500D01*
X183775000Y-62062500D02*
X185553000Y-62062500D01*
%TO.C,K7-4*%
X183775000Y-81112500D02*
X185553000Y-81112500D01*
X194697000Y-81112500D02*
X196475000Y-81112500D01*
X196475000Y-81112500D02*
X196475000Y-82890500D01*
X196475000Y-92034500D02*
X196475000Y-93812500D01*
X196475000Y-93812500D02*
X194697000Y-93812500D01*
X185553000Y-93812500D02*
X183775000Y-93812500D01*
X183775000Y-93812500D02*
X183775000Y-92034500D01*
X183775000Y-82890500D02*
X183775000Y-81112500D01*
%TO.C,K7-5*%
X183775000Y-101940500D02*
X183775000Y-100162500D01*
X183775000Y-112862500D02*
X183775000Y-111084500D01*
X185553000Y-112862500D02*
X183775000Y-112862500D01*
X196475000Y-112862500D02*
X194697000Y-112862500D01*
X196475000Y-111084500D02*
X196475000Y-112862500D01*
X196475000Y-100162500D02*
X196475000Y-101940500D01*
X194697000Y-100162500D02*
X196475000Y-100162500D01*
X183775000Y-100162500D02*
X185553000Y-100162500D01*
%TO.C,K7-6*%
X148175739Y-136915739D02*
X149715532Y-137804739D01*
X157634468Y-142376739D02*
X159174261Y-143265739D01*
X159174261Y-143265739D02*
X158285261Y-144805532D01*
X153713261Y-152724468D02*
X152824261Y-154264261D01*
X152824261Y-154264261D02*
X151284468Y-153375261D01*
X143365532Y-148803261D02*
X141825739Y-147914261D01*
X141825739Y-147914261D02*
X142714739Y-146374468D01*
X147286739Y-138455532D02*
X148175739Y-136915739D01*
D12*
%TO.C,R1*%
X225620000Y-38420000D02*
X225290000Y-38420000D01*
X225620000Y-44960000D02*
X225620000Y-38420000D01*
X225290000Y-44960000D02*
X225620000Y-44960000D01*
X222880000Y-38420000D02*
X223210000Y-38420000D01*
X222880000Y-44960000D02*
X222880000Y-38420000D01*
X223210000Y-44960000D02*
X222880000Y-44960000D01*
%TO.C,R2*%
X226960000Y-44960000D02*
X226630000Y-44960000D01*
X226630000Y-44960000D02*
X226630000Y-38420000D01*
X226630000Y-38420000D02*
X226960000Y-38420000D01*
X229040000Y-44960000D02*
X229370000Y-44960000D01*
X229370000Y-44960000D02*
X229370000Y-38420000D01*
X229370000Y-38420000D02*
X229040000Y-38420000D01*
D13*
%TO.C,TRRS1*%
X228800000Y-18500000D02*
X223200000Y-18500000D01*
X223200000Y-20500000D02*
X223200000Y-18500000D01*
X228800000Y-20500000D02*
X228800000Y-18500000D01*
X222950000Y-20500000D02*
X222950000Y-32600000D01*
X229050000Y-20500000D02*
X229050000Y-32600000D01*
X229050000Y-32600000D02*
X222950000Y-32600000D01*
X229050000Y-20500000D02*
X222950000Y-20500000D01*
%TO.C,U1*%
X202110000Y-20720000D02*
X219890000Y-20720000D01*
X202110000Y-56280000D02*
X202110000Y-20720000D01*
X219890000Y-56280000D02*
X202110000Y-56280000D01*
X219890000Y-20720000D02*
X219890000Y-56280000D01*
X213540000Y-51200000D02*
X213540000Y-53740000D01*
X208460000Y-51200000D02*
X213540000Y-51200000D01*
X208460000Y-53740000D02*
X208460000Y-51200000D01*
X213540000Y-53740000D02*
X208460000Y-53740000D01*
X207190000Y-25800000D02*
X207190000Y-20720000D01*
X214810000Y-25800000D02*
X214810000Y-20720000D01*
X207190000Y-25800000D02*
X214810000Y-25800000D01*
X214810000Y-19450000D02*
X214810000Y-20720000D01*
X207190000Y-19450000D02*
X214810000Y-19450000D01*
X207190000Y-20720000D02*
X207190000Y-19450000D01*
X212490000Y-34030000D02*
G75*
G03*
X212490000Y-34030000I-500000J0D01*
G01*
X212490000Y-35350000D02*
G75*
G03*
X212490000Y-35350000I-500000J0D01*
G01*
X211000000Y-35960000D02*
X205920000Y-35960000D01*
X205920000Y-35960000D02*
X205920000Y-33420000D01*
X205920000Y-33420000D02*
X211000000Y-33420000D01*
X211000000Y-33420000D02*
X211000000Y-35960000D01*
D14*
%TO.C,U2*%
X195980256Y-141500000D02*
G75*
G03*
X195980256Y-141500000I-8980256J0D01*
G01*
D15*
X187635000Y-133880000D02*
X188905000Y-133880000D01*
X186365000Y-133880000D02*
X187635000Y-133245000D01*
X185095000Y-133880000D02*
X186365000Y-133880000D01*
%TO.C,D1-1*%
D13*
X207499404Y-69841666D02*
X206699404Y-69841666D01*
X206699404Y-69651190D01*
X206737500Y-69536904D01*
X206813690Y-69460714D01*
X206889880Y-69422619D01*
X207042261Y-69384523D01*
X207156547Y-69384523D01*
X207308928Y-69422619D01*
X207385119Y-69460714D01*
X207461309Y-69536904D01*
X207499404Y-69651190D01*
X207499404Y-69841666D01*
X207499404Y-68622619D02*
X207499404Y-69079761D01*
X207499404Y-68851190D02*
X206699404Y-68851190D01*
X206813690Y-68927380D01*
X206889880Y-69003571D01*
X206927976Y-69079761D01*
X207194642Y-68279761D02*
X207194642Y-67670238D01*
X207499404Y-66870238D02*
X207499404Y-67327380D01*
X207499404Y-67098809D02*
X206699404Y-67098809D01*
X206813690Y-67175000D01*
X206889880Y-67251190D01*
X206927976Y-67327380D01*
%TO.C,D1-2*%
X207499404Y-84529166D02*
X206699404Y-84529166D01*
X206699404Y-84338690D01*
X206737500Y-84224404D01*
X206813690Y-84148214D01*
X206889880Y-84110119D01*
X207042261Y-84072023D01*
X207156547Y-84072023D01*
X207308928Y-84110119D01*
X207385119Y-84148214D01*
X207461309Y-84224404D01*
X207499404Y-84338690D01*
X207499404Y-84529166D01*
X207499404Y-83310119D02*
X207499404Y-83767261D01*
X207499404Y-83538690D02*
X206699404Y-83538690D01*
X206813690Y-83614880D01*
X206889880Y-83691071D01*
X206927976Y-83767261D01*
X207194642Y-82967261D02*
X207194642Y-82357738D01*
X206775595Y-82014880D02*
X206737500Y-81976785D01*
X206699404Y-81900595D01*
X206699404Y-81710119D01*
X206737500Y-81633928D01*
X206775595Y-81595833D01*
X206851785Y-81557738D01*
X206927976Y-81557738D01*
X207042261Y-81595833D01*
X207499404Y-82052976D01*
X207499404Y-81557738D01*
%TO.C,D1-3*%
X207499404Y-99216666D02*
X206699404Y-99216666D01*
X206699404Y-99026190D01*
X206737500Y-98911904D01*
X206813690Y-98835714D01*
X206889880Y-98797619D01*
X207042261Y-98759523D01*
X207156547Y-98759523D01*
X207308928Y-98797619D01*
X207385119Y-98835714D01*
X207461309Y-98911904D01*
X207499404Y-99026190D01*
X207499404Y-99216666D01*
X207499404Y-97997619D02*
X207499404Y-98454761D01*
X207499404Y-98226190D02*
X206699404Y-98226190D01*
X206813690Y-98302380D01*
X206889880Y-98378571D01*
X206927976Y-98454761D01*
X207194642Y-97654761D02*
X207194642Y-97045238D01*
X206699404Y-96740476D02*
X206699404Y-96245238D01*
X207004166Y-96511904D01*
X207004166Y-96397619D01*
X207042261Y-96321428D01*
X207080357Y-96283333D01*
X207156547Y-96245238D01*
X207347023Y-96245238D01*
X207423214Y-96283333D01*
X207461309Y-96321428D01*
X207499404Y-96397619D01*
X207499404Y-96626190D01*
X207461309Y-96702380D01*
X207423214Y-96740476D01*
%TO.C,D1-4*%
X207499404Y-114904166D02*
X206699404Y-114904166D01*
X206699404Y-114713690D01*
X206737500Y-114599404D01*
X206813690Y-114523214D01*
X206889880Y-114485119D01*
X207042261Y-114447023D01*
X207156547Y-114447023D01*
X207308928Y-114485119D01*
X207385119Y-114523214D01*
X207461309Y-114599404D01*
X207499404Y-114713690D01*
X207499404Y-114904166D01*
X207499404Y-113685119D02*
X207499404Y-114142261D01*
X207499404Y-113913690D02*
X206699404Y-113913690D01*
X206813690Y-113989880D01*
X206889880Y-114066071D01*
X206927976Y-114142261D01*
X207194642Y-113342261D02*
X207194642Y-112732738D01*
X206966071Y-112008928D02*
X207499404Y-112008928D01*
X206661309Y-112199404D02*
X207232738Y-112389880D01*
X207232738Y-111894642D01*
%TO.C,D1-5*%
X207499404Y-130591666D02*
X206699404Y-130591666D01*
X206699404Y-130401190D01*
X206737500Y-130286904D01*
X206813690Y-130210714D01*
X206889880Y-130172619D01*
X207042261Y-130134523D01*
X207156547Y-130134523D01*
X207308928Y-130172619D01*
X207385119Y-130210714D01*
X207461309Y-130286904D01*
X207499404Y-130401190D01*
X207499404Y-130591666D01*
X207499404Y-129372619D02*
X207499404Y-129829761D01*
X207499404Y-129601190D02*
X206699404Y-129601190D01*
X206813690Y-129677380D01*
X206889880Y-129753571D01*
X206927976Y-129829761D01*
X207194642Y-129029761D02*
X207194642Y-128420238D01*
X206699404Y-127658333D02*
X206699404Y-128039285D01*
X207080357Y-128077380D01*
X207042261Y-128039285D01*
X207004166Y-127963095D01*
X207004166Y-127772619D01*
X207042261Y-127696428D01*
X207080357Y-127658333D01*
X207156547Y-127620238D01*
X207347023Y-127620238D01*
X207423214Y-127658333D01*
X207461309Y-127696428D01*
X207499404Y-127772619D01*
X207499404Y-127963095D01*
X207461309Y-128039285D01*
X207423214Y-128077380D01*
%TO.C,D1-6*%
X207499404Y-146279166D02*
X206699404Y-146279166D01*
X206699404Y-146088690D01*
X206737500Y-145974404D01*
X206813690Y-145898214D01*
X206889880Y-145860119D01*
X207042261Y-145822023D01*
X207156547Y-145822023D01*
X207308928Y-145860119D01*
X207385119Y-145898214D01*
X207461309Y-145974404D01*
X207499404Y-146088690D01*
X207499404Y-146279166D01*
X207499404Y-145060119D02*
X207499404Y-145517261D01*
X207499404Y-145288690D02*
X206699404Y-145288690D01*
X206813690Y-145364880D01*
X206889880Y-145441071D01*
X206927976Y-145517261D01*
X207194642Y-144717261D02*
X207194642Y-144107738D01*
X206699404Y-143383928D02*
X206699404Y-143536309D01*
X206737500Y-143612500D01*
X206775595Y-143650595D01*
X206889880Y-143726785D01*
X207042261Y-143764880D01*
X207347023Y-143764880D01*
X207423214Y-143726785D01*
X207461309Y-143688690D01*
X207499404Y-143612500D01*
X207499404Y-143460119D01*
X207461309Y-143383928D01*
X207423214Y-143345833D01*
X207347023Y-143307738D01*
X207156547Y-143307738D01*
X207080357Y-143345833D01*
X207042261Y-143383928D01*
X207004166Y-143460119D01*
X207004166Y-143612500D01*
X207042261Y-143688690D01*
X207080357Y-143726785D01*
X207156547Y-143764880D01*
%TO.C,D2-1*%
X210786904Y-69841666D02*
X209986904Y-69841666D01*
X209986904Y-69651190D01*
X210025000Y-69536904D01*
X210101190Y-69460714D01*
X210177380Y-69422619D01*
X210329761Y-69384523D01*
X210444047Y-69384523D01*
X210596428Y-69422619D01*
X210672619Y-69460714D01*
X210748809Y-69536904D01*
X210786904Y-69651190D01*
X210786904Y-69841666D01*
X210063095Y-69079761D02*
X210025000Y-69041666D01*
X209986904Y-68965476D01*
X209986904Y-68775000D01*
X210025000Y-68698809D01*
X210063095Y-68660714D01*
X210139285Y-68622619D01*
X210215476Y-68622619D01*
X210329761Y-68660714D01*
X210786904Y-69117857D01*
X210786904Y-68622619D01*
X210482142Y-68279761D02*
X210482142Y-67670238D01*
X210786904Y-66870238D02*
X210786904Y-67327380D01*
X210786904Y-67098809D02*
X209986904Y-67098809D01*
X210101190Y-67175000D01*
X210177380Y-67251190D01*
X210215476Y-67327380D01*
%TO.C,D2-2*%
X210786904Y-84529166D02*
X209986904Y-84529166D01*
X209986904Y-84338690D01*
X210025000Y-84224404D01*
X210101190Y-84148214D01*
X210177380Y-84110119D01*
X210329761Y-84072023D01*
X210444047Y-84072023D01*
X210596428Y-84110119D01*
X210672619Y-84148214D01*
X210748809Y-84224404D01*
X210786904Y-84338690D01*
X210786904Y-84529166D01*
X210063095Y-83767261D02*
X210025000Y-83729166D01*
X209986904Y-83652976D01*
X209986904Y-83462500D01*
X210025000Y-83386309D01*
X210063095Y-83348214D01*
X210139285Y-83310119D01*
X210215476Y-83310119D01*
X210329761Y-83348214D01*
X210786904Y-83805357D01*
X210786904Y-83310119D01*
X210482142Y-82967261D02*
X210482142Y-82357738D01*
X210063095Y-82014880D02*
X210025000Y-81976785D01*
X209986904Y-81900595D01*
X209986904Y-81710119D01*
X210025000Y-81633928D01*
X210063095Y-81595833D01*
X210139285Y-81557738D01*
X210215476Y-81557738D01*
X210329761Y-81595833D01*
X210786904Y-82052976D01*
X210786904Y-81557738D01*
%TO.C,D2-3*%
X210786904Y-99216666D02*
X209986904Y-99216666D01*
X209986904Y-99026190D01*
X210025000Y-98911904D01*
X210101190Y-98835714D01*
X210177380Y-98797619D01*
X210329761Y-98759523D01*
X210444047Y-98759523D01*
X210596428Y-98797619D01*
X210672619Y-98835714D01*
X210748809Y-98911904D01*
X210786904Y-99026190D01*
X210786904Y-99216666D01*
X210063095Y-98454761D02*
X210025000Y-98416666D01*
X209986904Y-98340476D01*
X209986904Y-98150000D01*
X210025000Y-98073809D01*
X210063095Y-98035714D01*
X210139285Y-97997619D01*
X210215476Y-97997619D01*
X210329761Y-98035714D01*
X210786904Y-98492857D01*
X210786904Y-97997619D01*
X210482142Y-97654761D02*
X210482142Y-97045238D01*
X209986904Y-96740476D02*
X209986904Y-96245238D01*
X210291666Y-96511904D01*
X210291666Y-96397619D01*
X210329761Y-96321428D01*
X210367857Y-96283333D01*
X210444047Y-96245238D01*
X210634523Y-96245238D01*
X210710714Y-96283333D01*
X210748809Y-96321428D01*
X210786904Y-96397619D01*
X210786904Y-96626190D01*
X210748809Y-96702380D01*
X210710714Y-96740476D01*
%TO.C,D2-4*%
X210786904Y-114904166D02*
X209986904Y-114904166D01*
X209986904Y-114713690D01*
X210025000Y-114599404D01*
X210101190Y-114523214D01*
X210177380Y-114485119D01*
X210329761Y-114447023D01*
X210444047Y-114447023D01*
X210596428Y-114485119D01*
X210672619Y-114523214D01*
X210748809Y-114599404D01*
X210786904Y-114713690D01*
X210786904Y-114904166D01*
X210063095Y-114142261D02*
X210025000Y-114104166D01*
X209986904Y-114027976D01*
X209986904Y-113837500D01*
X210025000Y-113761309D01*
X210063095Y-113723214D01*
X210139285Y-113685119D01*
X210215476Y-113685119D01*
X210329761Y-113723214D01*
X210786904Y-114180357D01*
X210786904Y-113685119D01*
X210482142Y-113342261D02*
X210482142Y-112732738D01*
X210253571Y-112008928D02*
X210786904Y-112008928D01*
X209948809Y-112199404D02*
X210520238Y-112389880D01*
X210520238Y-111894642D01*
%TO.C,D2-5*%
X210786904Y-130591666D02*
X209986904Y-130591666D01*
X209986904Y-130401190D01*
X210025000Y-130286904D01*
X210101190Y-130210714D01*
X210177380Y-130172619D01*
X210329761Y-130134523D01*
X210444047Y-130134523D01*
X210596428Y-130172619D01*
X210672619Y-130210714D01*
X210748809Y-130286904D01*
X210786904Y-130401190D01*
X210786904Y-130591666D01*
X210063095Y-129829761D02*
X210025000Y-129791666D01*
X209986904Y-129715476D01*
X209986904Y-129525000D01*
X210025000Y-129448809D01*
X210063095Y-129410714D01*
X210139285Y-129372619D01*
X210215476Y-129372619D01*
X210329761Y-129410714D01*
X210786904Y-129867857D01*
X210786904Y-129372619D01*
X210482142Y-129029761D02*
X210482142Y-128420238D01*
X209986904Y-127658333D02*
X209986904Y-128039285D01*
X210367857Y-128077380D01*
X210329761Y-128039285D01*
X210291666Y-127963095D01*
X210291666Y-127772619D01*
X210329761Y-127696428D01*
X210367857Y-127658333D01*
X210444047Y-127620238D01*
X210634523Y-127620238D01*
X210710714Y-127658333D01*
X210748809Y-127696428D01*
X210786904Y-127772619D01*
X210786904Y-127963095D01*
X210748809Y-128039285D01*
X210710714Y-128077380D01*
%TO.C,D2-6*%
X210786904Y-146279166D02*
X209986904Y-146279166D01*
X209986904Y-146088690D01*
X210025000Y-145974404D01*
X210101190Y-145898214D01*
X210177380Y-145860119D01*
X210329761Y-145822023D01*
X210444047Y-145822023D01*
X210596428Y-145860119D01*
X210672619Y-145898214D01*
X210748809Y-145974404D01*
X210786904Y-146088690D01*
X210786904Y-146279166D01*
X210063095Y-145517261D02*
X210025000Y-145479166D01*
X209986904Y-145402976D01*
X209986904Y-145212500D01*
X210025000Y-145136309D01*
X210063095Y-145098214D01*
X210139285Y-145060119D01*
X210215476Y-145060119D01*
X210329761Y-145098214D01*
X210786904Y-145555357D01*
X210786904Y-145060119D01*
X210482142Y-144717261D02*
X210482142Y-144107738D01*
X209986904Y-143383928D02*
X209986904Y-143536309D01*
X210025000Y-143612500D01*
X210063095Y-143650595D01*
X210177380Y-143726785D01*
X210329761Y-143764880D01*
X210634523Y-143764880D01*
X210710714Y-143726785D01*
X210748809Y-143688690D01*
X210786904Y-143612500D01*
X210786904Y-143460119D01*
X210748809Y-143383928D01*
X210710714Y-143345833D01*
X210634523Y-143307738D01*
X210444047Y-143307738D01*
X210367857Y-143345833D01*
X210329761Y-143383928D01*
X210291666Y-143460119D01*
X210291666Y-143612500D01*
X210329761Y-143688690D01*
X210367857Y-143726785D01*
X210444047Y-143764880D01*
%TO.C,D3-1*%
X214074404Y-69841666D02*
X213274404Y-69841666D01*
X213274404Y-69651190D01*
X213312500Y-69536904D01*
X213388690Y-69460714D01*
X213464880Y-69422619D01*
X213617261Y-69384523D01*
X213731547Y-69384523D01*
X213883928Y-69422619D01*
X213960119Y-69460714D01*
X214036309Y-69536904D01*
X214074404Y-69651190D01*
X214074404Y-69841666D01*
X213274404Y-69117857D02*
X213274404Y-68622619D01*
X213579166Y-68889285D01*
X213579166Y-68775000D01*
X213617261Y-68698809D01*
X213655357Y-68660714D01*
X213731547Y-68622619D01*
X213922023Y-68622619D01*
X213998214Y-68660714D01*
X214036309Y-68698809D01*
X214074404Y-68775000D01*
X214074404Y-69003571D01*
X214036309Y-69079761D01*
X213998214Y-69117857D01*
X213769642Y-68279761D02*
X213769642Y-67670238D01*
X214074404Y-66870238D02*
X214074404Y-67327380D01*
X214074404Y-67098809D02*
X213274404Y-67098809D01*
X213388690Y-67175000D01*
X213464880Y-67251190D01*
X213502976Y-67327380D01*
%TO.C,D3-2*%
X214074404Y-84529166D02*
X213274404Y-84529166D01*
X213274404Y-84338690D01*
X213312500Y-84224404D01*
X213388690Y-84148214D01*
X213464880Y-84110119D01*
X213617261Y-84072023D01*
X213731547Y-84072023D01*
X213883928Y-84110119D01*
X213960119Y-84148214D01*
X214036309Y-84224404D01*
X214074404Y-84338690D01*
X214074404Y-84529166D01*
X213274404Y-83805357D02*
X213274404Y-83310119D01*
X213579166Y-83576785D01*
X213579166Y-83462500D01*
X213617261Y-83386309D01*
X213655357Y-83348214D01*
X213731547Y-83310119D01*
X213922023Y-83310119D01*
X213998214Y-83348214D01*
X214036309Y-83386309D01*
X214074404Y-83462500D01*
X214074404Y-83691071D01*
X214036309Y-83767261D01*
X213998214Y-83805357D01*
X213769642Y-82967261D02*
X213769642Y-82357738D01*
X213350595Y-82014880D02*
X213312500Y-81976785D01*
X213274404Y-81900595D01*
X213274404Y-81710119D01*
X213312500Y-81633928D01*
X213350595Y-81595833D01*
X213426785Y-81557738D01*
X213502976Y-81557738D01*
X213617261Y-81595833D01*
X214074404Y-82052976D01*
X214074404Y-81557738D01*
%TO.C,D3-3*%
X214074404Y-99216666D02*
X213274404Y-99216666D01*
X213274404Y-99026190D01*
X213312500Y-98911904D01*
X213388690Y-98835714D01*
X213464880Y-98797619D01*
X213617261Y-98759523D01*
X213731547Y-98759523D01*
X213883928Y-98797619D01*
X213960119Y-98835714D01*
X214036309Y-98911904D01*
X214074404Y-99026190D01*
X214074404Y-99216666D01*
X213274404Y-98492857D02*
X213274404Y-97997619D01*
X213579166Y-98264285D01*
X213579166Y-98150000D01*
X213617261Y-98073809D01*
X213655357Y-98035714D01*
X213731547Y-97997619D01*
X213922023Y-97997619D01*
X213998214Y-98035714D01*
X214036309Y-98073809D01*
X214074404Y-98150000D01*
X214074404Y-98378571D01*
X214036309Y-98454761D01*
X213998214Y-98492857D01*
X213769642Y-97654761D02*
X213769642Y-97045238D01*
X213274404Y-96740476D02*
X213274404Y-96245238D01*
X213579166Y-96511904D01*
X213579166Y-96397619D01*
X213617261Y-96321428D01*
X213655357Y-96283333D01*
X213731547Y-96245238D01*
X213922023Y-96245238D01*
X213998214Y-96283333D01*
X214036309Y-96321428D01*
X214074404Y-96397619D01*
X214074404Y-96626190D01*
X214036309Y-96702380D01*
X213998214Y-96740476D01*
%TO.C,D3-4*%
X214074404Y-114904166D02*
X213274404Y-114904166D01*
X213274404Y-114713690D01*
X213312500Y-114599404D01*
X213388690Y-114523214D01*
X213464880Y-114485119D01*
X213617261Y-114447023D01*
X213731547Y-114447023D01*
X213883928Y-114485119D01*
X213960119Y-114523214D01*
X214036309Y-114599404D01*
X214074404Y-114713690D01*
X214074404Y-114904166D01*
X213274404Y-114180357D02*
X213274404Y-113685119D01*
X213579166Y-113951785D01*
X213579166Y-113837500D01*
X213617261Y-113761309D01*
X213655357Y-113723214D01*
X213731547Y-113685119D01*
X213922023Y-113685119D01*
X213998214Y-113723214D01*
X214036309Y-113761309D01*
X214074404Y-113837500D01*
X214074404Y-114066071D01*
X214036309Y-114142261D01*
X213998214Y-114180357D01*
X213769642Y-113342261D02*
X213769642Y-112732738D01*
X213541071Y-112008928D02*
X214074404Y-112008928D01*
X213236309Y-112199404D02*
X213807738Y-112389880D01*
X213807738Y-111894642D01*
%TO.C,D3-5*%
X214074404Y-130591666D02*
X213274404Y-130591666D01*
X213274404Y-130401190D01*
X213312500Y-130286904D01*
X213388690Y-130210714D01*
X213464880Y-130172619D01*
X213617261Y-130134523D01*
X213731547Y-130134523D01*
X213883928Y-130172619D01*
X213960119Y-130210714D01*
X214036309Y-130286904D01*
X214074404Y-130401190D01*
X214074404Y-130591666D01*
X213274404Y-129867857D02*
X213274404Y-129372619D01*
X213579166Y-129639285D01*
X213579166Y-129525000D01*
X213617261Y-129448809D01*
X213655357Y-129410714D01*
X213731547Y-129372619D01*
X213922023Y-129372619D01*
X213998214Y-129410714D01*
X214036309Y-129448809D01*
X214074404Y-129525000D01*
X214074404Y-129753571D01*
X214036309Y-129829761D01*
X213998214Y-129867857D01*
X213769642Y-129029761D02*
X213769642Y-128420238D01*
X213274404Y-127658333D02*
X213274404Y-128039285D01*
X213655357Y-128077380D01*
X213617261Y-128039285D01*
X213579166Y-127963095D01*
X213579166Y-127772619D01*
X213617261Y-127696428D01*
X213655357Y-127658333D01*
X213731547Y-127620238D01*
X213922023Y-127620238D01*
X213998214Y-127658333D01*
X214036309Y-127696428D01*
X214074404Y-127772619D01*
X214074404Y-127963095D01*
X214036309Y-128039285D01*
X213998214Y-128077380D01*
%TO.C,D3-6*%
X214074404Y-146279166D02*
X213274404Y-146279166D01*
X213274404Y-146088690D01*
X213312500Y-145974404D01*
X213388690Y-145898214D01*
X213464880Y-145860119D01*
X213617261Y-145822023D01*
X213731547Y-145822023D01*
X213883928Y-145860119D01*
X213960119Y-145898214D01*
X214036309Y-145974404D01*
X214074404Y-146088690D01*
X214074404Y-146279166D01*
X213274404Y-145555357D02*
X213274404Y-145060119D01*
X213579166Y-145326785D01*
X213579166Y-145212500D01*
X213617261Y-145136309D01*
X213655357Y-145098214D01*
X213731547Y-145060119D01*
X213922023Y-145060119D01*
X213998214Y-145098214D01*
X214036309Y-145136309D01*
X214074404Y-145212500D01*
X214074404Y-145441071D01*
X214036309Y-145517261D01*
X213998214Y-145555357D01*
X213769642Y-144717261D02*
X213769642Y-144107738D01*
X213274404Y-143383928D02*
X213274404Y-143536309D01*
X213312500Y-143612500D01*
X213350595Y-143650595D01*
X213464880Y-143726785D01*
X213617261Y-143764880D01*
X213922023Y-143764880D01*
X213998214Y-143726785D01*
X214036309Y-143688690D01*
X214074404Y-143612500D01*
X214074404Y-143460119D01*
X214036309Y-143383928D01*
X213998214Y-143345833D01*
X213922023Y-143307738D01*
X213731547Y-143307738D01*
X213655357Y-143345833D01*
X213617261Y-143383928D01*
X213579166Y-143460119D01*
X213579166Y-143612500D01*
X213617261Y-143688690D01*
X213655357Y-143726785D01*
X213731547Y-143764880D01*
%TO.C,D4-1*%
X217361904Y-69841666D02*
X216561904Y-69841666D01*
X216561904Y-69651190D01*
X216600000Y-69536904D01*
X216676190Y-69460714D01*
X216752380Y-69422619D01*
X216904761Y-69384523D01*
X217019047Y-69384523D01*
X217171428Y-69422619D01*
X217247619Y-69460714D01*
X217323809Y-69536904D01*
X217361904Y-69651190D01*
X217361904Y-69841666D01*
X216828571Y-68698809D02*
X217361904Y-68698809D01*
X216523809Y-68889285D02*
X217095238Y-69079761D01*
X217095238Y-68584523D01*
X217057142Y-68279761D02*
X217057142Y-67670238D01*
X217361904Y-66870238D02*
X217361904Y-67327380D01*
X217361904Y-67098809D02*
X216561904Y-67098809D01*
X216676190Y-67175000D01*
X216752380Y-67251190D01*
X216790476Y-67327380D01*
%TO.C,D4-2*%
X217361904Y-84529166D02*
X216561904Y-84529166D01*
X216561904Y-84338690D01*
X216600000Y-84224404D01*
X216676190Y-84148214D01*
X216752380Y-84110119D01*
X216904761Y-84072023D01*
X217019047Y-84072023D01*
X217171428Y-84110119D01*
X217247619Y-84148214D01*
X217323809Y-84224404D01*
X217361904Y-84338690D01*
X217361904Y-84529166D01*
X216828571Y-83386309D02*
X217361904Y-83386309D01*
X216523809Y-83576785D02*
X217095238Y-83767261D01*
X217095238Y-83272023D01*
X217057142Y-82967261D02*
X217057142Y-82357738D01*
X216638095Y-82014880D02*
X216600000Y-81976785D01*
X216561904Y-81900595D01*
X216561904Y-81710119D01*
X216600000Y-81633928D01*
X216638095Y-81595833D01*
X216714285Y-81557738D01*
X216790476Y-81557738D01*
X216904761Y-81595833D01*
X217361904Y-82052976D01*
X217361904Y-81557738D01*
%TO.C,D4-3*%
X217361904Y-99216666D02*
X216561904Y-99216666D01*
X216561904Y-99026190D01*
X216600000Y-98911904D01*
X216676190Y-98835714D01*
X216752380Y-98797619D01*
X216904761Y-98759523D01*
X217019047Y-98759523D01*
X217171428Y-98797619D01*
X217247619Y-98835714D01*
X217323809Y-98911904D01*
X217361904Y-99026190D01*
X217361904Y-99216666D01*
X216828571Y-98073809D02*
X217361904Y-98073809D01*
X216523809Y-98264285D02*
X217095238Y-98454761D01*
X217095238Y-97959523D01*
X217057142Y-97654761D02*
X217057142Y-97045238D01*
X216561904Y-96740476D02*
X216561904Y-96245238D01*
X216866666Y-96511904D01*
X216866666Y-96397619D01*
X216904761Y-96321428D01*
X216942857Y-96283333D01*
X217019047Y-96245238D01*
X217209523Y-96245238D01*
X217285714Y-96283333D01*
X217323809Y-96321428D01*
X217361904Y-96397619D01*
X217361904Y-96626190D01*
X217323809Y-96702380D01*
X217285714Y-96740476D01*
%TO.C,D4-4*%
X217361904Y-114904166D02*
X216561904Y-114904166D01*
X216561904Y-114713690D01*
X216600000Y-114599404D01*
X216676190Y-114523214D01*
X216752380Y-114485119D01*
X216904761Y-114447023D01*
X217019047Y-114447023D01*
X217171428Y-114485119D01*
X217247619Y-114523214D01*
X217323809Y-114599404D01*
X217361904Y-114713690D01*
X217361904Y-114904166D01*
X216828571Y-113761309D02*
X217361904Y-113761309D01*
X216523809Y-113951785D02*
X217095238Y-114142261D01*
X217095238Y-113647023D01*
X217057142Y-113342261D02*
X217057142Y-112732738D01*
X216828571Y-112008928D02*
X217361904Y-112008928D01*
X216523809Y-112199404D02*
X217095238Y-112389880D01*
X217095238Y-111894642D01*
%TO.C,D4-5*%
X217361904Y-130591666D02*
X216561904Y-130591666D01*
X216561904Y-130401190D01*
X216600000Y-130286904D01*
X216676190Y-130210714D01*
X216752380Y-130172619D01*
X216904761Y-130134523D01*
X217019047Y-130134523D01*
X217171428Y-130172619D01*
X217247619Y-130210714D01*
X217323809Y-130286904D01*
X217361904Y-130401190D01*
X217361904Y-130591666D01*
X216828571Y-129448809D02*
X217361904Y-129448809D01*
X216523809Y-129639285D02*
X217095238Y-129829761D01*
X217095238Y-129334523D01*
X217057142Y-129029761D02*
X217057142Y-128420238D01*
X216561904Y-127658333D02*
X216561904Y-128039285D01*
X216942857Y-128077380D01*
X216904761Y-128039285D01*
X216866666Y-127963095D01*
X216866666Y-127772619D01*
X216904761Y-127696428D01*
X216942857Y-127658333D01*
X217019047Y-127620238D01*
X217209523Y-127620238D01*
X217285714Y-127658333D01*
X217323809Y-127696428D01*
X217361904Y-127772619D01*
X217361904Y-127963095D01*
X217323809Y-128039285D01*
X217285714Y-128077380D01*
%TO.C,D4-6*%
X217361904Y-146279166D02*
X216561904Y-146279166D01*
X216561904Y-146088690D01*
X216600000Y-145974404D01*
X216676190Y-145898214D01*
X216752380Y-145860119D01*
X216904761Y-145822023D01*
X217019047Y-145822023D01*
X217171428Y-145860119D01*
X217247619Y-145898214D01*
X217323809Y-145974404D01*
X217361904Y-146088690D01*
X217361904Y-146279166D01*
X216828571Y-145136309D02*
X217361904Y-145136309D01*
X216523809Y-145326785D02*
X217095238Y-145517261D01*
X217095238Y-145022023D01*
X217057142Y-144717261D02*
X217057142Y-144107738D01*
X216561904Y-143383928D02*
X216561904Y-143536309D01*
X216600000Y-143612500D01*
X216638095Y-143650595D01*
X216752380Y-143726785D01*
X216904761Y-143764880D01*
X217209523Y-143764880D01*
X217285714Y-143726785D01*
X217323809Y-143688690D01*
X217361904Y-143612500D01*
X217361904Y-143460119D01*
X217323809Y-143383928D01*
X217285714Y-143345833D01*
X217209523Y-143307738D01*
X217019047Y-143307738D01*
X216942857Y-143345833D01*
X216904761Y-143383928D01*
X216866666Y-143460119D01*
X216866666Y-143612500D01*
X216904761Y-143688690D01*
X216942857Y-143726785D01*
X217019047Y-143764880D01*
%TO.C,D5-1*%
X220649404Y-69841666D02*
X219849404Y-69841666D01*
X219849404Y-69651190D01*
X219887500Y-69536904D01*
X219963690Y-69460714D01*
X220039880Y-69422619D01*
X220192261Y-69384523D01*
X220306547Y-69384523D01*
X220458928Y-69422619D01*
X220535119Y-69460714D01*
X220611309Y-69536904D01*
X220649404Y-69651190D01*
X220649404Y-69841666D01*
X219849404Y-68660714D02*
X219849404Y-69041666D01*
X220230357Y-69079761D01*
X220192261Y-69041666D01*
X220154166Y-68965476D01*
X220154166Y-68775000D01*
X220192261Y-68698809D01*
X220230357Y-68660714D01*
X220306547Y-68622619D01*
X220497023Y-68622619D01*
X220573214Y-68660714D01*
X220611309Y-68698809D01*
X220649404Y-68775000D01*
X220649404Y-68965476D01*
X220611309Y-69041666D01*
X220573214Y-69079761D01*
X220344642Y-68279761D02*
X220344642Y-67670238D01*
X220649404Y-66870238D02*
X220649404Y-67327380D01*
X220649404Y-67098809D02*
X219849404Y-67098809D01*
X219963690Y-67175000D01*
X220039880Y-67251190D01*
X220077976Y-67327380D01*
%TO.C,D5-2*%
X220649404Y-84529166D02*
X219849404Y-84529166D01*
X219849404Y-84338690D01*
X219887500Y-84224404D01*
X219963690Y-84148214D01*
X220039880Y-84110119D01*
X220192261Y-84072023D01*
X220306547Y-84072023D01*
X220458928Y-84110119D01*
X220535119Y-84148214D01*
X220611309Y-84224404D01*
X220649404Y-84338690D01*
X220649404Y-84529166D01*
X219849404Y-83348214D02*
X219849404Y-83729166D01*
X220230357Y-83767261D01*
X220192261Y-83729166D01*
X220154166Y-83652976D01*
X220154166Y-83462500D01*
X220192261Y-83386309D01*
X220230357Y-83348214D01*
X220306547Y-83310119D01*
X220497023Y-83310119D01*
X220573214Y-83348214D01*
X220611309Y-83386309D01*
X220649404Y-83462500D01*
X220649404Y-83652976D01*
X220611309Y-83729166D01*
X220573214Y-83767261D01*
X220344642Y-82967261D02*
X220344642Y-82357738D01*
X219925595Y-82014880D02*
X219887500Y-81976785D01*
X219849404Y-81900595D01*
X219849404Y-81710119D01*
X219887500Y-81633928D01*
X219925595Y-81595833D01*
X220001785Y-81557738D01*
X220077976Y-81557738D01*
X220192261Y-81595833D01*
X220649404Y-82052976D01*
X220649404Y-81557738D01*
%TO.C,D5-3*%
X220649404Y-99216666D02*
X219849404Y-99216666D01*
X219849404Y-99026190D01*
X219887500Y-98911904D01*
X219963690Y-98835714D01*
X220039880Y-98797619D01*
X220192261Y-98759523D01*
X220306547Y-98759523D01*
X220458928Y-98797619D01*
X220535119Y-98835714D01*
X220611309Y-98911904D01*
X220649404Y-99026190D01*
X220649404Y-99216666D01*
X219849404Y-98035714D02*
X219849404Y-98416666D01*
X220230357Y-98454761D01*
X220192261Y-98416666D01*
X220154166Y-98340476D01*
X220154166Y-98150000D01*
X220192261Y-98073809D01*
X220230357Y-98035714D01*
X220306547Y-97997619D01*
X220497023Y-97997619D01*
X220573214Y-98035714D01*
X220611309Y-98073809D01*
X220649404Y-98150000D01*
X220649404Y-98340476D01*
X220611309Y-98416666D01*
X220573214Y-98454761D01*
X220344642Y-97654761D02*
X220344642Y-97045238D01*
X219849404Y-96740476D02*
X219849404Y-96245238D01*
X220154166Y-96511904D01*
X220154166Y-96397619D01*
X220192261Y-96321428D01*
X220230357Y-96283333D01*
X220306547Y-96245238D01*
X220497023Y-96245238D01*
X220573214Y-96283333D01*
X220611309Y-96321428D01*
X220649404Y-96397619D01*
X220649404Y-96626190D01*
X220611309Y-96702380D01*
X220573214Y-96740476D01*
%TO.C,D5-4*%
X220649404Y-114904166D02*
X219849404Y-114904166D01*
X219849404Y-114713690D01*
X219887500Y-114599404D01*
X219963690Y-114523214D01*
X220039880Y-114485119D01*
X220192261Y-114447023D01*
X220306547Y-114447023D01*
X220458928Y-114485119D01*
X220535119Y-114523214D01*
X220611309Y-114599404D01*
X220649404Y-114713690D01*
X220649404Y-114904166D01*
X219849404Y-113723214D02*
X219849404Y-114104166D01*
X220230357Y-114142261D01*
X220192261Y-114104166D01*
X220154166Y-114027976D01*
X220154166Y-113837500D01*
X220192261Y-113761309D01*
X220230357Y-113723214D01*
X220306547Y-113685119D01*
X220497023Y-113685119D01*
X220573214Y-113723214D01*
X220611309Y-113761309D01*
X220649404Y-113837500D01*
X220649404Y-114027976D01*
X220611309Y-114104166D01*
X220573214Y-114142261D01*
X220344642Y-113342261D02*
X220344642Y-112732738D01*
X220116071Y-112008928D02*
X220649404Y-112008928D01*
X219811309Y-112199404D02*
X220382738Y-112389880D01*
X220382738Y-111894642D01*
%TO.C,D5-5*%
X220649404Y-130591666D02*
X219849404Y-130591666D01*
X219849404Y-130401190D01*
X219887500Y-130286904D01*
X219963690Y-130210714D01*
X220039880Y-130172619D01*
X220192261Y-130134523D01*
X220306547Y-130134523D01*
X220458928Y-130172619D01*
X220535119Y-130210714D01*
X220611309Y-130286904D01*
X220649404Y-130401190D01*
X220649404Y-130591666D01*
X219849404Y-129410714D02*
X219849404Y-129791666D01*
X220230357Y-129829761D01*
X220192261Y-129791666D01*
X220154166Y-129715476D01*
X220154166Y-129525000D01*
X220192261Y-129448809D01*
X220230357Y-129410714D01*
X220306547Y-129372619D01*
X220497023Y-129372619D01*
X220573214Y-129410714D01*
X220611309Y-129448809D01*
X220649404Y-129525000D01*
X220649404Y-129715476D01*
X220611309Y-129791666D01*
X220573214Y-129829761D01*
X220344642Y-129029761D02*
X220344642Y-128420238D01*
X219849404Y-127658333D02*
X219849404Y-128039285D01*
X220230357Y-128077380D01*
X220192261Y-128039285D01*
X220154166Y-127963095D01*
X220154166Y-127772619D01*
X220192261Y-127696428D01*
X220230357Y-127658333D01*
X220306547Y-127620238D01*
X220497023Y-127620238D01*
X220573214Y-127658333D01*
X220611309Y-127696428D01*
X220649404Y-127772619D01*
X220649404Y-127963095D01*
X220611309Y-128039285D01*
X220573214Y-128077380D01*
%TO.C,D5-6*%
X220649404Y-146279166D02*
X219849404Y-146279166D01*
X219849404Y-146088690D01*
X219887500Y-145974404D01*
X219963690Y-145898214D01*
X220039880Y-145860119D01*
X220192261Y-145822023D01*
X220306547Y-145822023D01*
X220458928Y-145860119D01*
X220535119Y-145898214D01*
X220611309Y-145974404D01*
X220649404Y-146088690D01*
X220649404Y-146279166D01*
X219849404Y-145098214D02*
X219849404Y-145479166D01*
X220230357Y-145517261D01*
X220192261Y-145479166D01*
X220154166Y-145402976D01*
X220154166Y-145212500D01*
X220192261Y-145136309D01*
X220230357Y-145098214D01*
X220306547Y-145060119D01*
X220497023Y-145060119D01*
X220573214Y-145098214D01*
X220611309Y-145136309D01*
X220649404Y-145212500D01*
X220649404Y-145402976D01*
X220611309Y-145479166D01*
X220573214Y-145517261D01*
X220344642Y-144717261D02*
X220344642Y-144107738D01*
X219849404Y-143383928D02*
X219849404Y-143536309D01*
X219887500Y-143612500D01*
X219925595Y-143650595D01*
X220039880Y-143726785D01*
X220192261Y-143764880D01*
X220497023Y-143764880D01*
X220573214Y-143726785D01*
X220611309Y-143688690D01*
X220649404Y-143612500D01*
X220649404Y-143460119D01*
X220611309Y-143383928D01*
X220573214Y-143345833D01*
X220497023Y-143307738D01*
X220306547Y-143307738D01*
X220230357Y-143345833D01*
X220192261Y-143383928D01*
X220154166Y-143460119D01*
X220154166Y-143612500D01*
X220192261Y-143688690D01*
X220230357Y-143726785D01*
X220306547Y-143764880D01*
%TO.C,D6-1*%
X223936904Y-69841666D02*
X223136904Y-69841666D01*
X223136904Y-69651190D01*
X223175000Y-69536904D01*
X223251190Y-69460714D01*
X223327380Y-69422619D01*
X223479761Y-69384523D01*
X223594047Y-69384523D01*
X223746428Y-69422619D01*
X223822619Y-69460714D01*
X223898809Y-69536904D01*
X223936904Y-69651190D01*
X223936904Y-69841666D01*
X223136904Y-68698809D02*
X223136904Y-68851190D01*
X223175000Y-68927380D01*
X223213095Y-68965476D01*
X223327380Y-69041666D01*
X223479761Y-69079761D01*
X223784523Y-69079761D01*
X223860714Y-69041666D01*
X223898809Y-69003571D01*
X223936904Y-68927380D01*
X223936904Y-68775000D01*
X223898809Y-68698809D01*
X223860714Y-68660714D01*
X223784523Y-68622619D01*
X223594047Y-68622619D01*
X223517857Y-68660714D01*
X223479761Y-68698809D01*
X223441666Y-68775000D01*
X223441666Y-68927380D01*
X223479761Y-69003571D01*
X223517857Y-69041666D01*
X223594047Y-69079761D01*
X223632142Y-68279761D02*
X223632142Y-67670238D01*
X223936904Y-66870238D02*
X223936904Y-67327380D01*
X223936904Y-67098809D02*
X223136904Y-67098809D01*
X223251190Y-67175000D01*
X223327380Y-67251190D01*
X223365476Y-67327380D01*
%TO.C,D6-2*%
X223936904Y-84529166D02*
X223136904Y-84529166D01*
X223136904Y-84338690D01*
X223175000Y-84224404D01*
X223251190Y-84148214D01*
X223327380Y-84110119D01*
X223479761Y-84072023D01*
X223594047Y-84072023D01*
X223746428Y-84110119D01*
X223822619Y-84148214D01*
X223898809Y-84224404D01*
X223936904Y-84338690D01*
X223936904Y-84529166D01*
X223136904Y-83386309D02*
X223136904Y-83538690D01*
X223175000Y-83614880D01*
X223213095Y-83652976D01*
X223327380Y-83729166D01*
X223479761Y-83767261D01*
X223784523Y-83767261D01*
X223860714Y-83729166D01*
X223898809Y-83691071D01*
X223936904Y-83614880D01*
X223936904Y-83462500D01*
X223898809Y-83386309D01*
X223860714Y-83348214D01*
X223784523Y-83310119D01*
X223594047Y-83310119D01*
X223517857Y-83348214D01*
X223479761Y-83386309D01*
X223441666Y-83462500D01*
X223441666Y-83614880D01*
X223479761Y-83691071D01*
X223517857Y-83729166D01*
X223594047Y-83767261D01*
X223632142Y-82967261D02*
X223632142Y-82357738D01*
X223213095Y-82014880D02*
X223175000Y-81976785D01*
X223136904Y-81900595D01*
X223136904Y-81710119D01*
X223175000Y-81633928D01*
X223213095Y-81595833D01*
X223289285Y-81557738D01*
X223365476Y-81557738D01*
X223479761Y-81595833D01*
X223936904Y-82052976D01*
X223936904Y-81557738D01*
%TO.C,D6-3*%
X223936904Y-99216666D02*
X223136904Y-99216666D01*
X223136904Y-99026190D01*
X223175000Y-98911904D01*
X223251190Y-98835714D01*
X223327380Y-98797619D01*
X223479761Y-98759523D01*
X223594047Y-98759523D01*
X223746428Y-98797619D01*
X223822619Y-98835714D01*
X223898809Y-98911904D01*
X223936904Y-99026190D01*
X223936904Y-99216666D01*
X223136904Y-98073809D02*
X223136904Y-98226190D01*
X223175000Y-98302380D01*
X223213095Y-98340476D01*
X223327380Y-98416666D01*
X223479761Y-98454761D01*
X223784523Y-98454761D01*
X223860714Y-98416666D01*
X223898809Y-98378571D01*
X223936904Y-98302380D01*
X223936904Y-98150000D01*
X223898809Y-98073809D01*
X223860714Y-98035714D01*
X223784523Y-97997619D01*
X223594047Y-97997619D01*
X223517857Y-98035714D01*
X223479761Y-98073809D01*
X223441666Y-98150000D01*
X223441666Y-98302380D01*
X223479761Y-98378571D01*
X223517857Y-98416666D01*
X223594047Y-98454761D01*
X223632142Y-97654761D02*
X223632142Y-97045238D01*
X223136904Y-96740476D02*
X223136904Y-96245238D01*
X223441666Y-96511904D01*
X223441666Y-96397619D01*
X223479761Y-96321428D01*
X223517857Y-96283333D01*
X223594047Y-96245238D01*
X223784523Y-96245238D01*
X223860714Y-96283333D01*
X223898809Y-96321428D01*
X223936904Y-96397619D01*
X223936904Y-96626190D01*
X223898809Y-96702380D01*
X223860714Y-96740476D01*
%TO.C,D6-4*%
X223936904Y-114904166D02*
X223136904Y-114904166D01*
X223136904Y-114713690D01*
X223175000Y-114599404D01*
X223251190Y-114523214D01*
X223327380Y-114485119D01*
X223479761Y-114447023D01*
X223594047Y-114447023D01*
X223746428Y-114485119D01*
X223822619Y-114523214D01*
X223898809Y-114599404D01*
X223936904Y-114713690D01*
X223936904Y-114904166D01*
X223136904Y-113761309D02*
X223136904Y-113913690D01*
X223175000Y-113989880D01*
X223213095Y-114027976D01*
X223327380Y-114104166D01*
X223479761Y-114142261D01*
X223784523Y-114142261D01*
X223860714Y-114104166D01*
X223898809Y-114066071D01*
X223936904Y-113989880D01*
X223936904Y-113837500D01*
X223898809Y-113761309D01*
X223860714Y-113723214D01*
X223784523Y-113685119D01*
X223594047Y-113685119D01*
X223517857Y-113723214D01*
X223479761Y-113761309D01*
X223441666Y-113837500D01*
X223441666Y-113989880D01*
X223479761Y-114066071D01*
X223517857Y-114104166D01*
X223594047Y-114142261D01*
X223632142Y-113342261D02*
X223632142Y-112732738D01*
X223403571Y-112008928D02*
X223936904Y-112008928D01*
X223098809Y-112199404D02*
X223670238Y-112389880D01*
X223670238Y-111894642D01*
%TO.C,D6-5*%
X223936904Y-130591666D02*
X223136904Y-130591666D01*
X223136904Y-130401190D01*
X223175000Y-130286904D01*
X223251190Y-130210714D01*
X223327380Y-130172619D01*
X223479761Y-130134523D01*
X223594047Y-130134523D01*
X223746428Y-130172619D01*
X223822619Y-130210714D01*
X223898809Y-130286904D01*
X223936904Y-130401190D01*
X223936904Y-130591666D01*
X223136904Y-129448809D02*
X223136904Y-129601190D01*
X223175000Y-129677380D01*
X223213095Y-129715476D01*
X223327380Y-129791666D01*
X223479761Y-129829761D01*
X223784523Y-129829761D01*
X223860714Y-129791666D01*
X223898809Y-129753571D01*
X223936904Y-129677380D01*
X223936904Y-129525000D01*
X223898809Y-129448809D01*
X223860714Y-129410714D01*
X223784523Y-129372619D01*
X223594047Y-129372619D01*
X223517857Y-129410714D01*
X223479761Y-129448809D01*
X223441666Y-129525000D01*
X223441666Y-129677380D01*
X223479761Y-129753571D01*
X223517857Y-129791666D01*
X223594047Y-129829761D01*
X223632142Y-129029761D02*
X223632142Y-128420238D01*
X223136904Y-127658333D02*
X223136904Y-128039285D01*
X223517857Y-128077380D01*
X223479761Y-128039285D01*
X223441666Y-127963095D01*
X223441666Y-127772619D01*
X223479761Y-127696428D01*
X223517857Y-127658333D01*
X223594047Y-127620238D01*
X223784523Y-127620238D01*
X223860714Y-127658333D01*
X223898809Y-127696428D01*
X223936904Y-127772619D01*
X223936904Y-127963095D01*
X223898809Y-128039285D01*
X223860714Y-128077380D01*
%TO.C,D6-6*%
X223936904Y-146279166D02*
X223136904Y-146279166D01*
X223136904Y-146088690D01*
X223175000Y-145974404D01*
X223251190Y-145898214D01*
X223327380Y-145860119D01*
X223479761Y-145822023D01*
X223594047Y-145822023D01*
X223746428Y-145860119D01*
X223822619Y-145898214D01*
X223898809Y-145974404D01*
X223936904Y-146088690D01*
X223936904Y-146279166D01*
X223136904Y-145136309D02*
X223136904Y-145288690D01*
X223175000Y-145364880D01*
X223213095Y-145402976D01*
X223327380Y-145479166D01*
X223479761Y-145517261D01*
X223784523Y-145517261D01*
X223860714Y-145479166D01*
X223898809Y-145441071D01*
X223936904Y-145364880D01*
X223936904Y-145212500D01*
X223898809Y-145136309D01*
X223860714Y-145098214D01*
X223784523Y-145060119D01*
X223594047Y-145060119D01*
X223517857Y-145098214D01*
X223479761Y-145136309D01*
X223441666Y-145212500D01*
X223441666Y-145364880D01*
X223479761Y-145441071D01*
X223517857Y-145479166D01*
X223594047Y-145517261D01*
X223632142Y-144717261D02*
X223632142Y-144107738D01*
X223136904Y-143383928D02*
X223136904Y-143536309D01*
X223175000Y-143612500D01*
X223213095Y-143650595D01*
X223327380Y-143726785D01*
X223479761Y-143764880D01*
X223784523Y-143764880D01*
X223860714Y-143726785D01*
X223898809Y-143688690D01*
X223936904Y-143612500D01*
X223936904Y-143460119D01*
X223898809Y-143383928D01*
X223860714Y-143345833D01*
X223784523Y-143307738D01*
X223594047Y-143307738D01*
X223517857Y-143345833D01*
X223479761Y-143383928D01*
X223441666Y-143460119D01*
X223441666Y-143612500D01*
X223479761Y-143688690D01*
X223517857Y-143726785D01*
X223594047Y-143764880D01*
%TO.C,D7-1*%
X227224404Y-69841666D02*
X226424404Y-69841666D01*
X226424404Y-69651190D01*
X226462500Y-69536904D01*
X226538690Y-69460714D01*
X226614880Y-69422619D01*
X226767261Y-69384523D01*
X226881547Y-69384523D01*
X227033928Y-69422619D01*
X227110119Y-69460714D01*
X227186309Y-69536904D01*
X227224404Y-69651190D01*
X227224404Y-69841666D01*
X226424404Y-69117857D02*
X226424404Y-68584523D01*
X227224404Y-68927380D01*
X226919642Y-68279761D02*
X226919642Y-67670238D01*
X227224404Y-66870238D02*
X227224404Y-67327380D01*
X227224404Y-67098809D02*
X226424404Y-67098809D01*
X226538690Y-67175000D01*
X226614880Y-67251190D01*
X226652976Y-67327380D01*
%TO.C,D7-2*%
X227224404Y-84529166D02*
X226424404Y-84529166D01*
X226424404Y-84338690D01*
X226462500Y-84224404D01*
X226538690Y-84148214D01*
X226614880Y-84110119D01*
X226767261Y-84072023D01*
X226881547Y-84072023D01*
X227033928Y-84110119D01*
X227110119Y-84148214D01*
X227186309Y-84224404D01*
X227224404Y-84338690D01*
X227224404Y-84529166D01*
X226424404Y-83805357D02*
X226424404Y-83272023D01*
X227224404Y-83614880D01*
X226919642Y-82967261D02*
X226919642Y-82357738D01*
X226500595Y-82014880D02*
X226462500Y-81976785D01*
X226424404Y-81900595D01*
X226424404Y-81710119D01*
X226462500Y-81633928D01*
X226500595Y-81595833D01*
X226576785Y-81557738D01*
X226652976Y-81557738D01*
X226767261Y-81595833D01*
X227224404Y-82052976D01*
X227224404Y-81557738D01*
%TO.C,D7-3*%
X227224404Y-99216666D02*
X226424404Y-99216666D01*
X226424404Y-99026190D01*
X226462500Y-98911904D01*
X226538690Y-98835714D01*
X226614880Y-98797619D01*
X226767261Y-98759523D01*
X226881547Y-98759523D01*
X227033928Y-98797619D01*
X227110119Y-98835714D01*
X227186309Y-98911904D01*
X227224404Y-99026190D01*
X227224404Y-99216666D01*
X226424404Y-98492857D02*
X226424404Y-97959523D01*
X227224404Y-98302380D01*
X226919642Y-97654761D02*
X226919642Y-97045238D01*
X226424404Y-96740476D02*
X226424404Y-96245238D01*
X226729166Y-96511904D01*
X226729166Y-96397619D01*
X226767261Y-96321428D01*
X226805357Y-96283333D01*
X226881547Y-96245238D01*
X227072023Y-96245238D01*
X227148214Y-96283333D01*
X227186309Y-96321428D01*
X227224404Y-96397619D01*
X227224404Y-96626190D01*
X227186309Y-96702380D01*
X227148214Y-96740476D01*
%TO.C,D7-4*%
X227224404Y-114904166D02*
X226424404Y-114904166D01*
X226424404Y-114713690D01*
X226462500Y-114599404D01*
X226538690Y-114523214D01*
X226614880Y-114485119D01*
X226767261Y-114447023D01*
X226881547Y-114447023D01*
X227033928Y-114485119D01*
X227110119Y-114523214D01*
X227186309Y-114599404D01*
X227224404Y-114713690D01*
X227224404Y-114904166D01*
X226424404Y-114180357D02*
X226424404Y-113647023D01*
X227224404Y-113989880D01*
X226919642Y-113342261D02*
X226919642Y-112732738D01*
X226691071Y-112008928D02*
X227224404Y-112008928D01*
X226386309Y-112199404D02*
X226957738Y-112389880D01*
X226957738Y-111894642D01*
%TO.C,D7-5*%
X227224404Y-130591666D02*
X226424404Y-130591666D01*
X226424404Y-130401190D01*
X226462500Y-130286904D01*
X226538690Y-130210714D01*
X226614880Y-130172619D01*
X226767261Y-130134523D01*
X226881547Y-130134523D01*
X227033928Y-130172619D01*
X227110119Y-130210714D01*
X227186309Y-130286904D01*
X227224404Y-130401190D01*
X227224404Y-130591666D01*
X226424404Y-129867857D02*
X226424404Y-129334523D01*
X227224404Y-129677380D01*
X226919642Y-129029761D02*
X226919642Y-128420238D01*
X226424404Y-127658333D02*
X226424404Y-128039285D01*
X226805357Y-128077380D01*
X226767261Y-128039285D01*
X226729166Y-127963095D01*
X226729166Y-127772619D01*
X226767261Y-127696428D01*
X226805357Y-127658333D01*
X226881547Y-127620238D01*
X227072023Y-127620238D01*
X227148214Y-127658333D01*
X227186309Y-127696428D01*
X227224404Y-127772619D01*
X227224404Y-127963095D01*
X227186309Y-128039285D01*
X227148214Y-128077380D01*
%TO.C,D7-6*%
X227224404Y-146279166D02*
X226424404Y-146279166D01*
X226424404Y-146088690D01*
X226462500Y-145974404D01*
X226538690Y-145898214D01*
X226614880Y-145860119D01*
X226767261Y-145822023D01*
X226881547Y-145822023D01*
X227033928Y-145860119D01*
X227110119Y-145898214D01*
X227186309Y-145974404D01*
X227224404Y-146088690D01*
X227224404Y-146279166D01*
X226424404Y-145555357D02*
X226424404Y-145022023D01*
X227224404Y-145364880D01*
X226919642Y-144717261D02*
X226919642Y-144107738D01*
X226424404Y-143383928D02*
X226424404Y-143536309D01*
X226462500Y-143612500D01*
X226500595Y-143650595D01*
X226614880Y-143726785D01*
X226767261Y-143764880D01*
X227072023Y-143764880D01*
X227148214Y-143726785D01*
X227186309Y-143688690D01*
X227224404Y-143612500D01*
X227224404Y-143460119D01*
X227186309Y-143383928D01*
X227148214Y-143345833D01*
X227072023Y-143307738D01*
X226881547Y-143307738D01*
X226805357Y-143345833D01*
X226767261Y-143383928D01*
X226729166Y-143460119D01*
X226729166Y-143612500D01*
X226767261Y-143688690D01*
X226805357Y-143726785D01*
X226881547Y-143764880D01*
%TO.C,R1*%
X222332380Y-41856666D02*
X221856190Y-42190000D01*
X222332380Y-42428095D02*
X221332380Y-42428095D01*
X221332380Y-42047142D01*
X221380000Y-41951904D01*
X221427619Y-41904285D01*
X221522857Y-41856666D01*
X221665714Y-41856666D01*
X221760952Y-41904285D01*
X221808571Y-41951904D01*
X221856190Y-42047142D01*
X221856190Y-42428095D01*
X222332380Y-40904285D02*
X222332380Y-41475714D01*
X222332380Y-41190000D02*
X221332380Y-41190000D01*
X221475238Y-41285238D01*
X221570476Y-41380476D01*
X221618095Y-41475714D01*
%TO.C,R2*%
X226082380Y-41856666D02*
X225606190Y-42190000D01*
X226082380Y-42428095D02*
X225082380Y-42428095D01*
X225082380Y-42047142D01*
X225130000Y-41951904D01*
X225177619Y-41904285D01*
X225272857Y-41856666D01*
X225415714Y-41856666D01*
X225510952Y-41904285D01*
X225558571Y-41951904D01*
X225606190Y-42047142D01*
X225606190Y-42428095D01*
X225177619Y-41475714D02*
X225130000Y-41428095D01*
X225082380Y-41332857D01*
X225082380Y-41094761D01*
X225130000Y-40999523D01*
X225177619Y-40951904D01*
X225272857Y-40904285D01*
X225368095Y-40904285D01*
X225510952Y-40951904D01*
X226082380Y-41523333D01*
X226082380Y-40904285D01*
%TO.C,U1*%
X220612380Y-39261904D02*
X221421904Y-39261904D01*
X221517142Y-39214285D01*
X221564761Y-39166666D01*
X221612380Y-39071428D01*
X221612380Y-38880952D01*
X221564761Y-38785714D01*
X221517142Y-38738095D01*
X221421904Y-38690476D01*
X220612380Y-38690476D01*
X221612380Y-37690476D02*
X221612380Y-38261904D01*
X221612380Y-37976190D02*
X220612380Y-37976190D01*
X220755238Y-38071428D01*
X220850476Y-38166666D01*
X220898095Y-38261904D01*
%TO.C,H1*%
X179838095Y-36589880D02*
X179838095Y-35589880D01*
X179838095Y-36066071D02*
X180409523Y-36066071D01*
X180409523Y-36589880D02*
X180409523Y-35589880D01*
X181409523Y-36589880D02*
X180838095Y-36589880D01*
X181123809Y-36589880D02*
X181123809Y-35589880D01*
X181028571Y-35732738D01*
X180933333Y-35827976D01*
X180838095Y-35875595D01*
%TO.C,H2*%
X165550595Y-150889880D02*
X165550595Y-149889880D01*
X165550595Y-150366071D02*
X166122023Y-150366071D01*
X166122023Y-150889880D02*
X166122023Y-149889880D01*
X166550595Y-149985119D02*
X166598214Y-149937500D01*
X166693452Y-149889880D01*
X166931547Y-149889880D01*
X167026785Y-149937500D01*
X167074404Y-149985119D01*
X167122023Y-150080357D01*
X167122023Y-150175595D01*
X167074404Y-150318452D01*
X166502976Y-150889880D01*
X167122023Y-150889880D01*
%TO.C,H3*%
X84588095Y-36589880D02*
X84588095Y-35589880D01*
X84588095Y-36066071D02*
X85159523Y-36066071D01*
X85159523Y-36589880D02*
X85159523Y-35589880D01*
X85540476Y-35589880D02*
X86159523Y-35589880D01*
X85826190Y-35970833D01*
X85969047Y-35970833D01*
X86064285Y-36018452D01*
X86111904Y-36066071D01*
X86159523Y-36161309D01*
X86159523Y-36399404D01*
X86111904Y-36494642D01*
X86064285Y-36542261D01*
X85969047Y-36589880D01*
X85683333Y-36589880D01*
X85588095Y-36542261D01*
X85540476Y-36494642D01*
%TO.C,H4*%
X84588095Y-131839880D02*
X84588095Y-130839880D01*
X84588095Y-131316071D02*
X85159523Y-131316071D01*
X85159523Y-131839880D02*
X85159523Y-130839880D01*
X86064285Y-131173214D02*
X86064285Y-131839880D01*
X85826190Y-130792261D02*
X85588095Y-131506547D01*
X86207142Y-131506547D01*
%TD*%
M02*
