M48
; DRILL file {KiCad (5.1.9)-1} date 04/22/21 01:43:02
; FORMAT={-:-/ absolute / inch / decimal}
; #@! TF.CreationDate,2021-04-22T01:43:02-06:00
; #@! TF.GenerationSoftware,Kicad,Pcbnew,(5.1.9)-1
; #@! TF.FileFunction,Plated,1,2,PTH
FMAT,2
INCH
T1C0.0157
T2C0.0276
T3C0.0315
T4C0.0350
T5C0.0354
T6C0.0354
T7C0.0433
T8C0.0550
T9C0.0591
T10C0.1063
%
G90
G05
T1
X5.5906Y-4.685
X7.2441Y-6.063
X7.3622Y-5.1772
X7.6378Y-2.1063
X7.7362Y-2.126
X7.7756Y-1.7717
X7.7859Y-2.4306
X7.8278Y-1.7717
X7.8473Y-0.8127
X7.874Y-5.9843
X7.9528Y-5.3937
X7.9528Y-5.9843
X8.2283Y-0.9163
X8.2283Y-1.3583
X8.2874Y-1.2402
X8.3858Y-5.3937
X8.7402Y-0.9449
X8.7992Y-0.9646
X9.0157Y-1.9685
X9.0157Y-6.1024
X9.0551Y-1.9291
X9.0551Y-6.0236
X9.0945Y-1.378
X9.0945Y-6.1417
T2
X8.0792Y-2.5384
X8.0792Y-2.8455
X8.0792Y-3.1166
X8.0792Y-3.4237
X8.0792Y-3.6949
X8.0792Y-4.002
X8.0792Y-4.3125
X8.0792Y-4.6196
X8.0792Y-4.9301
X8.0792Y-5.2372
X8.0792Y-5.5477
X8.0792Y-5.8548
X8.2087Y-2.5384
X8.2087Y-2.8455
X8.2087Y-3.1166
X8.2087Y-3.4237
X8.2087Y-3.6949
X8.2087Y-4.002
X8.2087Y-4.3125
X8.2087Y-4.6196
X8.2087Y-4.9301
X8.2087Y-5.2372
X8.2087Y-5.5477
X8.2087Y-5.8548
X8.3381Y-2.5384
X8.3381Y-2.8455
X8.3381Y-3.1166
X8.3381Y-3.4237
X8.3381Y-3.6949
X8.3381Y-4.002
X8.3381Y-4.3125
X8.3381Y-4.6196
X8.3381Y-4.9301
X8.3381Y-5.2372
X8.3381Y-5.5477
X8.3381Y-5.8548
X8.4675Y-2.5384
X8.4675Y-2.8455
X8.4675Y-3.1166
X8.4675Y-3.4237
X8.4675Y-3.6949
X8.4675Y-4.002
X8.4675Y-4.3125
X8.4675Y-4.6196
X8.4675Y-4.9301
X8.4675Y-5.2372
X8.4675Y-5.5477
X8.4675Y-5.8548
X8.5969Y-2.5384
X8.5969Y-2.8455
X8.5969Y-3.1166
X8.5969Y-3.4237
X8.5969Y-3.6949
X8.5969Y-4.002
X8.5969Y-4.3125
X8.5969Y-4.6196
X8.5969Y-4.9301
X8.5969Y-5.2372
X8.5969Y-5.5477
X8.5969Y-5.8548
X8.7264Y-2.5384
X8.7264Y-2.8455
X8.7264Y-3.1166
X8.7264Y-3.4237
X8.7264Y-3.6949
X8.7264Y-4.002
X8.7264Y-4.3125
X8.7264Y-4.6196
X8.7264Y-4.9301
X8.7264Y-5.2372
X8.7264Y-5.5477
X8.7264Y-5.8548
X8.8558Y-2.5384
X8.8558Y-2.8455
X8.8558Y-3.1166
X8.8558Y-3.4237
X8.8558Y-3.6949
X8.8558Y-4.002
X8.8558Y-4.3125
X8.8558Y-4.6196
X8.8558Y-4.9301
X8.8558Y-5.2372
X8.8558Y-5.5477
X8.8558Y-5.8548
T3
X8.8287Y-1.4913
X8.8287Y-1.7913
X8.9764Y-1.4913
X8.9764Y-1.7913
T4
X6.9622Y-5.4709
X6.9622Y-5.5709
X6.9622Y-5.6709
X7.2622Y-5.9709
X7.3622Y-5.9709
X7.4622Y-5.9709
T5
X7.2372Y-5.0709
X7.2372Y-5.2709
X7.4872Y-5.0709
X7.4872Y-5.2709
T7
X8.0071Y-0.8657
X8.0071Y-0.9657
X8.0071Y-1.0657
X8.0071Y-1.1657
X8.0071Y-1.2657
X8.0071Y-1.3657
X8.0071Y-1.4657
X8.0071Y-1.5657
X8.0071Y-1.6657
X8.0071Y-1.7657
X8.0071Y-1.8657
X8.0071Y-1.9657
X8.0071Y-2.0657
X8.0071Y-2.1657
X8.1071Y-2.1657
X8.2071Y-2.1657
X8.298Y-0.9157
X8.298Y-1.1157
X8.3071Y-1.4657
X8.3071Y-1.5657
X8.3071Y-1.6657
X8.3071Y-1.7657
X8.3071Y-1.8657
X8.3071Y-1.9657
X8.3071Y-2.0657
X8.3071Y-2.1657
X8.3819Y-0.9157
X8.4071Y-1.4657
X8.4071Y-1.5657
X8.4071Y-1.6657
X8.4071Y-1.7657
X8.4071Y-1.8657
X8.4071Y-1.9657
X8.4071Y-2.0657
X8.4071Y-2.1657
X8.5071Y-0.9657
X8.5071Y-1.1657
X8.5071Y-1.2657
X8.5071Y-1.3657
X8.5071Y-2.1657
X8.6071Y-0.8657
X8.6071Y-0.9657
X8.6071Y-1.0657
X8.6071Y-1.1657
X8.6071Y-1.2657
X8.6071Y-1.3657
X8.6071Y-1.4657
X8.6071Y-1.5657
X8.6071Y-1.6657
X8.6071Y-1.7657
X8.6071Y-1.8657
X8.6071Y-1.9657
X8.6071Y-2.0657
X8.6071Y-2.1657
T8
X7.0622Y-5.3084
X7.0622Y-5.8334
X7.6622Y-5.3084
X7.6622Y-5.8334
T10
X3.3602Y-1.5684
X3.3602Y-5.3184
X6.5477Y-6.0684
X7.1102Y-1.5684
T6
G00X8.8071Y-1.2441
M15
G01X8.8071Y-1.2598
M16
G05
G00X8.9882Y-0.9252
M15
G01X8.9882Y-0.9409
M16
G05
G00X8.9882Y-1.0433
M15
G01X8.9882Y-1.0591
M16
G05
G00X8.9882Y-1.2008
M15
G01X8.9882Y-1.2165
M16
G05
T9
G00X2.8809Y-1.0175
M15
G01X2.8333Y-1.0922
M16
G05
G00X2.8809Y-1.7675
M15
G01X2.8333Y-1.8422
M16
G05
G00X2.8809Y-2.5175
M15
G01X2.8333Y-2.5922
M16
G05
G00X2.8809Y-3.2675
M15
G01X2.8333Y-3.3422
M16
G05
G00X2.8809Y-4.0175
M15
G01X2.8333Y-4.0922
M16
G05
G00X2.8809Y-4.7675
M15
G01X2.8333Y-4.8422
M16
G05
G00X3.0852Y-0.9934
M15
G01X3.0837Y-1.0162
M16
G05
G00X3.0852Y-1.7434
M15
G01X3.0837Y-1.7662
M16
G05
G00X3.0852Y-2.4934
M15
G01X3.0837Y-2.5162
M16
G05
G00X3.0852Y-3.2434
M15
G01X3.0837Y-3.2662
M16
G05
G00X3.0852Y-3.9934
M15
G01X3.0837Y-4.0162
M16
G05
G00X3.0852Y-4.7434
M15
G01X3.0837Y-4.7662
M16
G05
G00X3.6309Y-1.0175
M15
G01X3.5833Y-1.0922
M16
G05
G00X3.6309Y-1.7675
M15
G01X3.5833Y-1.8422
M16
G05
G00X3.6309Y-2.5175
M15
G01X3.5833Y-2.5922
M16
G05
G00X3.6309Y-3.2675
M15
G01X3.5833Y-3.3422
M16
G05
G00X3.6309Y-4.0175
M15
G01X3.5833Y-4.0922
M16
G05
G00X3.6309Y-4.7675
M15
G01X3.5833Y-4.8422
M16
G05
G00X3.8352Y-0.9934
M15
G01X3.8337Y-1.0162
M16
G05
G00X3.8352Y-1.7434
M15
G01X3.8337Y-1.7662
M16
G05
G00X3.8352Y-2.4934
M15
G01X3.8337Y-2.5162
M16
G05
G00X3.8352Y-3.2434
M15
G01X3.8337Y-3.2662
M16
G05
G00X3.8352Y-3.9934
M15
G01X3.8337Y-4.0162
M16
G05
G00X3.8352Y-4.7434
M15
G01X3.8337Y-4.7662
M16
G05
G00X4.3809Y-1.0175
M15
G01X4.3333Y-1.0922
M16
G05
G00X4.3809Y-1.7675
M15
G01X4.3333Y-1.8422
M16
G05
G00X4.3809Y-2.5175
M15
G01X4.3333Y-2.5922
M16
G05
G00X4.3809Y-3.2675
M15
G01X4.3333Y-3.3422
M16
G05
G00X4.3809Y-4.0175
M15
G01X4.3333Y-4.0922
M16
G05
G00X4.3809Y-4.7675
M15
G01X4.3333Y-4.8422
M16
G05
G00X4.5852Y-0.9934
M15
G01X4.5837Y-1.0162
M16
G05
G00X4.5852Y-1.7434
M15
G01X4.5837Y-1.7662
M16
G05
G00X4.5852Y-2.4934
M15
G01X4.5837Y-2.5162
M16
G05
G00X4.5852Y-3.2434
M15
G01X4.5837Y-3.2662
M16
G05
G00X4.5852Y-3.9934
M15
G01X4.5837Y-4.0162
M16
G05
G00X4.5852Y-4.7434
M15
G01X4.5837Y-4.7662
M16
G05
G00X5.0567Y-5.5281
M15
G01X4.9781Y-5.569
M16
G05
G00X5.1309Y-1.0175
M15
G01X5.0833Y-1.0922
M16
G05
G00X5.1309Y-1.7675
M15
G01X5.0833Y-1.8422
M16
G05
G00X5.1309Y-2.5175
M15
G01X5.0833Y-2.5922
M16
G05
G00X5.1309Y-3.2675
M15
G01X5.0833Y-3.3422
M16
G05
G00X5.1309Y-4.0175
M15
G01X5.0833Y-4.0922
M16
G05
G00X5.2456Y-5.6095
M15
G01X5.2329Y-5.6284
M16
G05
G00X5.3352Y-0.9934
M15
G01X5.3337Y-1.0162
M16
G05
G00X5.3352Y-1.7434
M15
G01X5.3337Y-1.7662
M16
G05
G00X5.3352Y-2.4934
M15
G01X5.3337Y-2.5162
M16
G05
G00X5.3352Y-3.2434
M15
G01X5.3337Y-3.2662
M16
G05
G00X5.3352Y-3.9934
M15
G01X5.3337Y-4.0162
M16
G05
G00X5.4312Y-4.8781
M15
G01X5.3526Y-4.919
M16
G05
G00X5.6201Y-4.9595
M15
G01X5.6074Y-4.9784
M16
G05
G00X5.8809Y-1.0175
M15
G01X5.8333Y-1.0922
M16
G05
G00X5.8809Y-1.7675
M15
G01X5.8333Y-1.8422
M16
G05
G00X5.8809Y-2.5175
M15
G01X5.8333Y-2.5922
M16
G05
G00X5.8809Y-3.2675
M15
G01X5.8333Y-3.3422
M16
G05
G00X5.8809Y-4.0175
M15
G01X5.8333Y-4.0922
M16
G05
G00X5.9228Y-5.5273
M15
G01X5.8442Y-5.5683
M16
G05
G00X6.0852Y-0.9934
M15
G01X6.0837Y-1.0162
M16
G05
G00X6.0852Y-1.7434
M15
G01X6.0837Y-1.7662
M16
G05
G00X6.0852Y-2.4934
M15
G01X6.0837Y-2.5162
M16
G05
G00X6.0852Y-3.2434
M15
G01X6.0837Y-3.2662
M16
G05
G00X6.0852Y-3.9934
M15
G01X6.0837Y-4.0162
M16
G05
G00X6.1118Y-5.6087
M15
G01X6.099Y-5.6277
M16
G05
G00X6.2968Y-4.8801
M15
G01X6.2182Y-4.921
M16
G05
G00X6.4858Y-4.9615
M15
G01X6.4731Y-4.9804
M16
G05
G00X6.6309Y-1.0175
M15
G01X6.5833Y-1.0922
M16
G05
G00X6.6309Y-1.7675
M15
G01X6.5833Y-1.8422
M16
G05
G00X6.6309Y-2.5175
M15
G01X6.5833Y-2.5922
M16
G05
G00X6.6309Y-3.2675
M15
G01X6.5833Y-3.3422
M16
G05
G00X6.6309Y-4.0175
M15
G01X6.5833Y-4.0922
M16
G05
G00X6.8352Y-0.9934
M15
G01X6.8337Y-1.0162
M16
G05
G00X6.8352Y-1.7434
M15
G01X6.8337Y-1.7662
M16
G05
G00X6.8352Y-2.4934
M15
G01X6.8337Y-2.5162
M16
G05
G00X6.8352Y-3.2434
M15
G01X6.8337Y-3.2662
M16
G05
G00X6.8352Y-3.9934
M15
G01X6.8337Y-4.0162
M16
G05
G00X7.3809Y-1.0175
M15
G01X7.3333Y-1.0922
M16
G05
G00X7.3809Y-1.7675
M15
G01X7.3333Y-1.8422
M16
G05
G00X7.3809Y-2.5175
M15
G01X7.3333Y-2.5922
M16
G05
G00X7.3809Y-3.2675
M15
G01X7.3333Y-3.3422
M16
G05
G00X7.3809Y-4.0175
M15
G01X7.3333Y-4.0922
M16
G05
G00X7.5852Y-0.9934
M15
G01X7.5837Y-1.0162
M16
G05
G00X7.5852Y-1.7434
M15
G01X7.5837Y-1.7662
M16
G05
G00X7.5852Y-2.4934
M15
G01X7.5837Y-2.5162
M16
G05
G00X7.5852Y-3.2434
M15
G01X7.5837Y-3.2662
M16
G05
G00X7.5852Y-3.9934
M15
G01X7.5837Y-4.0162
M16
G05
T0
M30
