M48
; DRILL file {KiCad (5.1.9)-1} date 04/22/21 01:43:02
; FORMAT={-:-/ absolute / inch / decimal}
; #@! TF.CreationDate,2021-04-22T01:43:02-06:00
; #@! TF.GenerationSoftware,Kicad,Pcbnew,(5.1.9)-1
; #@! TF.FileFunction,NonPlated,1,2,NPTH
FMAT,2
INCH
T1C0.0315
T2C0.0670
T3C0.1570
%
G90
G05
T1
X8.8976Y-0.8701
X8.8976Y-1.1457
T2
X2.7852Y-1.1934
X2.7852Y-1.9434
X2.7852Y-2.6934
X2.7852Y-3.4434
X2.7852Y-4.1934
X2.7852Y-4.9434
X3.1852Y-1.1934
X3.1852Y-1.9434
X3.1852Y-2.6934
X3.1852Y-3.4434
X3.1852Y-4.1934
X3.1852Y-4.9434
X3.5352Y-1.1934
X3.5352Y-1.9434
X3.5352Y-2.6934
X3.5352Y-3.4434
X3.5352Y-4.1934
X3.5352Y-4.9434
X3.9352Y-1.1934
X3.9352Y-1.9434
X3.9352Y-2.6934
X3.9352Y-3.4434
X3.9352Y-4.1934
X3.9352Y-4.9434
X4.2852Y-1.1934
X4.2852Y-1.9434
X4.2852Y-2.6934
X4.2852Y-3.4434
X4.2852Y-4.1934
X4.2852Y-4.9434
X4.6852Y-1.1934
X4.6852Y-1.9434
X4.6852Y-2.6934
X4.6852Y-3.4434
X4.6852Y-4.1934
X4.6852Y-4.9434
X4.8859Y-5.6327
X5.0352Y-1.1934
X5.0352Y-1.9434
X5.0352Y-2.6934
X5.0352Y-3.4434
X5.0352Y-4.1934
X5.2323Y-5.8327
X5.2604Y-4.9827
X5.4352Y-1.1934
X5.4352Y-1.9434
X5.4352Y-2.6934
X5.4352Y-3.4434
X5.4352Y-4.1934
X5.6068Y-5.1827
X5.752Y-5.6319
X5.7852Y-1.1934
X5.7852Y-1.9434
X5.7852Y-2.6934
X5.7852Y-3.4434
X5.7852Y-4.1934
X6.0984Y-5.8319
X6.126Y-4.9846
X6.1852Y-1.1934
X6.1852Y-1.9434
X6.1852Y-2.6934
X6.1852Y-3.4434
X6.1852Y-4.1934
X6.4724Y-5.1846
X6.5352Y-1.1934
X6.5352Y-1.9434
X6.5352Y-2.6934
X6.5352Y-3.4434
X6.5352Y-4.1934
X6.9352Y-1.1934
X6.9352Y-1.9434
X6.9352Y-2.6934
X6.9352Y-3.4434
X6.9352Y-4.1934
X7.2852Y-1.1934
X7.2852Y-1.9434
X7.2852Y-2.6934
X7.2852Y-3.4434
X7.2852Y-4.1934
X7.6852Y-1.1934
X7.6852Y-1.9434
X7.6852Y-2.6934
X7.6852Y-3.4434
X7.6852Y-4.1934
T3
X2.9852Y-1.1934
X2.9852Y-1.9434
X2.9852Y-2.6934
X2.9852Y-3.4434
X2.9852Y-4.1934
X2.9852Y-4.9434
X3.7352Y-1.1934
X3.7352Y-1.9434
X3.7352Y-2.6934
X3.7352Y-3.4434
X3.7352Y-4.1934
X3.7352Y-4.9434
X4.4852Y-1.1934
X4.4852Y-1.9434
X4.4852Y-2.6934
X4.4852Y-3.4434
X4.4852Y-4.1934
X4.4852Y-4.9434
X5.0591Y-5.7327
X5.2352Y-1.1934
X5.2352Y-1.9434
X5.2352Y-2.6934
X5.2352Y-3.4434
X5.2352Y-4.1934
X5.4336Y-5.0827
X5.9252Y-5.7319
X5.9852Y-1.1934
X5.9852Y-1.9434
X5.9852Y-2.6934
X5.9852Y-3.4434
X5.9852Y-4.1934
X6.2992Y-5.0846
X6.7352Y-1.1934
X6.7352Y-1.9434
X6.7352Y-2.6934
X6.7352Y-3.4434
X6.7352Y-4.1934
X7.4852Y-1.1934
X7.4852Y-1.9434
X7.4852Y-2.6934
X7.4852Y-3.4434
X7.4852Y-4.1934
T0
M30
