%TF.GenerationSoftware,KiCad,Pcbnew,(5.1.9)-1*%
%TF.CreationDate,2021-04-23T02:49:01-06:00*%
%TF.ProjectId,Right Keyboard,52696768-7420-44b6-9579-626f6172642e,rev?*%
%TF.SameCoordinates,Original*%
%TF.FileFunction,Soldermask,Bot*%
%TF.FilePolarity,Negative*%
%FSLAX46Y46*%
G04 Gerber Fmt 4.6, Leading zero omitted, Abs format (unit mm)*
G04 Created by KiCad (PCBNEW (5.1.9)-1) date 2021-04-23 02:49:01*
%MOMM*%
%LPD*%
G01*
G04 APERTURE LIST*
%ADD10C,1.701800*%
%ADD11C,3.987800*%
%ADD12C,1.600000*%
%ADD13R,1.600000X1.600000*%
%ADD14C,5.400000*%
%ADD15O,1.600000X2.000000*%
%ADD16C,0.800000*%
G04 APERTURE END LIST*
%TO.C,K4-2*%
G36*
G01*
X163178171Y-43039309D02*
X163217619Y-42460653D01*
G75*
G02*
X164549743Y-41298567I1247105J-85019D01*
G01*
X164549743Y-41298567D01*
G75*
G02*
X165711829Y-42630691I-85019J-1247105D01*
G01*
X165672381Y-43209347D01*
G75*
G02*
X164340257Y-44371433I-1247105J85019D01*
G01*
X164340257Y-44371433D01*
G75*
G02*
X163178171Y-43039309I85019J1247105D01*
G01*
G37*
G36*
G01*
X157011299Y-44382190D02*
X158220223Y-42484560D01*
G75*
G02*
X159946087Y-42101946I1054239J-671625D01*
G01*
X159946087Y-42101946D01*
G75*
G02*
X160328701Y-43827810I-671625J-1054239D01*
G01*
X159119777Y-45725440D01*
G75*
G02*
X157393913Y-46108054I-1054239J671625D01*
G01*
X157393913Y-46108054D01*
G75*
G02*
X157011299Y-44382190I671625J1054239D01*
G01*
G37*
D10*
X167005000Y-47625000D03*
X156845000Y-47625000D03*
D11*
X161925000Y-47625000D03*
%TD*%
%TO.C,K7-6*%
X219075000Y-123825000D03*
D10*
X213995000Y-123825000D03*
X224155000Y-123825000D03*
G36*
G01*
X214161299Y-120582190D02*
X215370223Y-118684560D01*
G75*
G02*
X217096087Y-118301946I1054239J-671625D01*
G01*
X217096087Y-118301946D01*
G75*
G02*
X217478701Y-120027810I-671625J-1054239D01*
G01*
X216269777Y-121925440D01*
G75*
G02*
X214543913Y-122308054I-1054239J671625D01*
G01*
X214543913Y-122308054D01*
G75*
G02*
X214161299Y-120582190I671625J1054239D01*
G01*
G37*
G36*
G01*
X220328171Y-119239309D02*
X220367619Y-118660653D01*
G75*
G02*
X221699743Y-117498567I1247105J-85019D01*
G01*
X221699743Y-117498567D01*
G75*
G02*
X222861829Y-118830691I-85019J-1247105D01*
G01*
X222822381Y-119409347D01*
G75*
G02*
X221490257Y-120571433I-1247105J85019D01*
G01*
X221490257Y-120571433D01*
G75*
G02*
X220328171Y-119239309I85019J1247105D01*
G01*
G37*
%TD*%
D11*
%TO.C,K7-4*%
X219075000Y-85725000D03*
D10*
X213995000Y-85725000D03*
X224155000Y-85725000D03*
G36*
G01*
X214161299Y-82482190D02*
X215370223Y-80584560D01*
G75*
G02*
X217096087Y-80201946I1054239J-671625D01*
G01*
X217096087Y-80201946D01*
G75*
G02*
X217478701Y-81927810I-671625J-1054239D01*
G01*
X216269777Y-83825440D01*
G75*
G02*
X214543913Y-84208054I-1054239J671625D01*
G01*
X214543913Y-84208054D01*
G75*
G02*
X214161299Y-82482190I671625J1054239D01*
G01*
G37*
G36*
G01*
X220328171Y-81139309D02*
X220367619Y-80560653D01*
G75*
G02*
X221699743Y-79398567I1247105J-85019D01*
G01*
X221699743Y-79398567D01*
G75*
G02*
X222861829Y-80730691I-85019J-1247105D01*
G01*
X222822381Y-81309347D01*
G75*
G02*
X221490257Y-82471433I-1247105J85019D01*
G01*
X221490257Y-82471433D01*
G75*
G02*
X220328171Y-81139309I85019J1247105D01*
G01*
G37*
%TD*%
D12*
%TO.C,D1-1*%
X66625000Y-57537500D03*
D13*
X66625000Y-65337500D03*
%TD*%
%TO.C,D1-2*%
X66625000Y-78625000D03*
D12*
X66625000Y-70825000D03*
%TD*%
%TO.C,D1-3*%
X66625000Y-84112500D03*
D13*
X66625000Y-91912500D03*
%TD*%
%TO.C,D1-4*%
X66625000Y-105200000D03*
D12*
X66625000Y-97400000D03*
%TD*%
%TO.C,D1-5*%
X66625000Y-110687500D03*
D13*
X66625000Y-118487500D03*
%TD*%
%TO.C,D1-6*%
X66625000Y-131775000D03*
D12*
X66625000Y-123975000D03*
%TD*%
%TO.C,D2-1*%
X69887500Y-57537500D03*
D13*
X69887500Y-65337500D03*
%TD*%
%TO.C,D2-2*%
X69887500Y-78625000D03*
D12*
X69887500Y-70825000D03*
%TD*%
%TO.C,D2-3*%
X69887500Y-84112500D03*
D13*
X69887500Y-91912500D03*
%TD*%
%TO.C,D2-4*%
X69887500Y-105200000D03*
D12*
X69887500Y-97400000D03*
%TD*%
%TO.C,D2-5*%
X69887500Y-110687500D03*
D13*
X69887500Y-118487500D03*
%TD*%
%TO.C,D2-6*%
X69887500Y-131775000D03*
D12*
X69887500Y-123975000D03*
%TD*%
D13*
%TO.C,D3-1*%
X73150000Y-65337500D03*
D12*
X73150000Y-57537500D03*
%TD*%
%TO.C,D3-2*%
X73150000Y-70825000D03*
D13*
X73150000Y-78625000D03*
%TD*%
%TO.C,D3-3*%
X73150000Y-91912500D03*
D12*
X73150000Y-84112500D03*
%TD*%
%TO.C,D3-4*%
X73150000Y-97400000D03*
D13*
X73150000Y-105200000D03*
%TD*%
%TO.C,D3-5*%
X73150000Y-118487500D03*
D12*
X73150000Y-110687500D03*
%TD*%
%TO.C,D3-6*%
X73150000Y-123975000D03*
D13*
X73150000Y-131775000D03*
%TD*%
%TO.C,D4-1*%
X76412500Y-65337500D03*
D12*
X76412500Y-57537500D03*
%TD*%
%TO.C,D4-2*%
X76412500Y-70825000D03*
D13*
X76412500Y-78625000D03*
%TD*%
%TO.C,D4-3*%
X76412500Y-91912500D03*
D12*
X76412500Y-84112500D03*
%TD*%
%TO.C,D4-4*%
X76412500Y-97400000D03*
D13*
X76412500Y-105200000D03*
%TD*%
%TO.C,D4-5*%
X76412500Y-118487500D03*
D12*
X76412500Y-110687500D03*
%TD*%
%TO.C,D4-6*%
X76412500Y-123975000D03*
D13*
X76412500Y-131775000D03*
%TD*%
%TO.C,D5-1*%
X79675000Y-65337500D03*
D12*
X79675000Y-57537500D03*
%TD*%
%TO.C,D5-2*%
X79675000Y-70825000D03*
D13*
X79675000Y-78625000D03*
%TD*%
%TO.C,D5-3*%
X79675000Y-91912500D03*
D12*
X79675000Y-84112500D03*
%TD*%
%TO.C,D5-4*%
X79675000Y-97400000D03*
D13*
X79675000Y-105200000D03*
%TD*%
%TO.C,D5-5*%
X79675000Y-118487500D03*
D12*
X79675000Y-110687500D03*
%TD*%
%TO.C,D5-6*%
X79675000Y-123975000D03*
D13*
X79675000Y-131775000D03*
%TD*%
D12*
%TO.C,D6-1*%
X82937500Y-57537500D03*
D13*
X82937500Y-65337500D03*
%TD*%
%TO.C,D6-2*%
X82937500Y-78625000D03*
D12*
X82937500Y-70825000D03*
%TD*%
%TO.C,D6-3*%
X82937500Y-84112500D03*
D13*
X82937500Y-91912500D03*
%TD*%
%TO.C,D6-4*%
X82937500Y-105200000D03*
D12*
X82937500Y-97400000D03*
%TD*%
%TO.C,D6-5*%
X82937500Y-110687500D03*
D13*
X82937500Y-118487500D03*
%TD*%
%TO.C,D6-6*%
X82937500Y-131775000D03*
D12*
X82937500Y-123975000D03*
%TD*%
%TO.C,D7-1*%
X86200000Y-57537500D03*
D13*
X86200000Y-65337500D03*
%TD*%
%TO.C,D7-2*%
X86200000Y-78625000D03*
D12*
X86200000Y-70825000D03*
%TD*%
%TO.C,D7-3*%
X86200000Y-84112500D03*
D13*
X86200000Y-91912500D03*
%TD*%
%TO.C,D7-4*%
X86200000Y-105200000D03*
D12*
X86200000Y-97400000D03*
%TD*%
%TO.C,D7-5*%
X86200000Y-110687500D03*
D13*
X86200000Y-118487500D03*
%TD*%
%TO.C,D7-6*%
X86200000Y-131775000D03*
D12*
X86200000Y-123975000D03*
%TD*%
D13*
%TO.C,D8-1*%
X89462500Y-65337500D03*
D12*
X89462500Y-57537500D03*
%TD*%
%TO.C,D8-2*%
X89462500Y-70825000D03*
D13*
X89462500Y-78625000D03*
%TD*%
D12*
%TO.C,D8-3*%
X89462500Y-84112500D03*
D13*
X89462500Y-91912500D03*
%TD*%
%TO.C,D8-4*%
X89462500Y-105200000D03*
D12*
X89462500Y-97400000D03*
%TD*%
%TO.C,D8-5*%
X89462500Y-110687500D03*
D13*
X89462500Y-118487500D03*
%TD*%
%TO.C,D8-6*%
X89462500Y-131775000D03*
D12*
X89462500Y-123975000D03*
%TD*%
%TO.C,D9-1*%
X92725000Y-57537500D03*
D13*
X92725000Y-65337500D03*
%TD*%
%TO.C,D9-2*%
X92725000Y-78625000D03*
D12*
X92725000Y-70825000D03*
%TD*%
%TO.C,D9-3*%
X92725000Y-84112500D03*
D13*
X92725000Y-91912500D03*
%TD*%
%TO.C,D9-4*%
X92725000Y-105200000D03*
D12*
X92725000Y-97400000D03*
%TD*%
%TO.C,D9-5*%
X92725000Y-110687500D03*
D13*
X92725000Y-118487500D03*
%TD*%
%TO.C,D9-6*%
X92725000Y-131775000D03*
D12*
X92725000Y-123975000D03*
%TD*%
D14*
%TO.C,H1*%
X114300000Y-38100000D03*
%TD*%
%TO.C,H2*%
X247650000Y-114300000D03*
%TD*%
%TO.C,H3*%
X114300000Y-114300000D03*
%TD*%
%TO.C,H4*%
X247650000Y-38100000D03*
%TD*%
%TO.C,K1-1*%
G36*
G01*
X106028171Y-23989309D02*
X106067619Y-23410653D01*
G75*
G02*
X107399743Y-22248567I1247105J-85019D01*
G01*
X107399743Y-22248567D01*
G75*
G02*
X108561829Y-23580691I-85019J-1247105D01*
G01*
X108522381Y-24159347D01*
G75*
G02*
X107190257Y-25321433I-1247105J85019D01*
G01*
X107190257Y-25321433D01*
G75*
G02*
X106028171Y-23989309I85019J1247105D01*
G01*
G37*
G36*
G01*
X99861299Y-25332190D02*
X101070223Y-23434560D01*
G75*
G02*
X102796087Y-23051946I1054239J-671625D01*
G01*
X102796087Y-23051946D01*
G75*
G02*
X103178701Y-24777810I-671625J-1054239D01*
G01*
X101969777Y-26675440D01*
G75*
G02*
X100243913Y-27058054I-1054239J671625D01*
G01*
X100243913Y-27058054D01*
G75*
G02*
X99861299Y-25332190I671625J1054239D01*
G01*
G37*
D10*
X109855000Y-28575000D03*
X99695000Y-28575000D03*
D11*
X104775000Y-28575000D03*
%TD*%
%TO.C,K1-2*%
G36*
G01*
X106028171Y-43039309D02*
X106067619Y-42460653D01*
G75*
G02*
X107399743Y-41298567I1247105J-85019D01*
G01*
X107399743Y-41298567D01*
G75*
G02*
X108561829Y-42630691I-85019J-1247105D01*
G01*
X108522381Y-43209347D01*
G75*
G02*
X107190257Y-44371433I-1247105J85019D01*
G01*
X107190257Y-44371433D01*
G75*
G02*
X106028171Y-43039309I85019J1247105D01*
G01*
G37*
G36*
G01*
X99861299Y-44382190D02*
X101070223Y-42484560D01*
G75*
G02*
X102796087Y-42101946I1054239J-671625D01*
G01*
X102796087Y-42101946D01*
G75*
G02*
X103178701Y-43827810I-671625J-1054239D01*
G01*
X101969777Y-45725440D01*
G75*
G02*
X100243913Y-46108054I-1054239J671625D01*
G01*
X100243913Y-46108054D01*
G75*
G02*
X99861299Y-44382190I671625J1054239D01*
G01*
G37*
D10*
X109855000Y-47625000D03*
X99695000Y-47625000D03*
D11*
X104775000Y-47625000D03*
%TD*%
%TO.C,K1-3*%
X104775000Y-66675000D03*
D10*
X99695000Y-66675000D03*
X109855000Y-66675000D03*
G36*
G01*
X99861299Y-63432190D02*
X101070223Y-61534560D01*
G75*
G02*
X102796087Y-61151946I1054239J-671625D01*
G01*
X102796087Y-61151946D01*
G75*
G02*
X103178701Y-62877810I-671625J-1054239D01*
G01*
X101969777Y-64775440D01*
G75*
G02*
X100243913Y-65158054I-1054239J671625D01*
G01*
X100243913Y-65158054D01*
G75*
G02*
X99861299Y-63432190I671625J1054239D01*
G01*
G37*
G36*
G01*
X106028171Y-62089309D02*
X106067619Y-61510653D01*
G75*
G02*
X107399743Y-60348567I1247105J-85019D01*
G01*
X107399743Y-60348567D01*
G75*
G02*
X108561829Y-61680691I-85019J-1247105D01*
G01*
X108522381Y-62259347D01*
G75*
G02*
X107190257Y-63421433I-1247105J85019D01*
G01*
X107190257Y-63421433D01*
G75*
G02*
X106028171Y-62089309I85019J1247105D01*
G01*
G37*
%TD*%
D11*
%TO.C,K1-4*%
X104775000Y-85725000D03*
D10*
X99695000Y-85725000D03*
X109855000Y-85725000D03*
G36*
G01*
X99861299Y-82482190D02*
X101070223Y-80584560D01*
G75*
G02*
X102796087Y-80201946I1054239J-671625D01*
G01*
X102796087Y-80201946D01*
G75*
G02*
X103178701Y-81927810I-671625J-1054239D01*
G01*
X101969777Y-83825440D01*
G75*
G02*
X100243913Y-84208054I-1054239J671625D01*
G01*
X100243913Y-84208054D01*
G75*
G02*
X99861299Y-82482190I671625J1054239D01*
G01*
G37*
G36*
G01*
X106028171Y-81139309D02*
X106067619Y-80560653D01*
G75*
G02*
X107399743Y-79398567I1247105J-85019D01*
G01*
X107399743Y-79398567D01*
G75*
G02*
X108561829Y-80730691I-85019J-1247105D01*
G01*
X108522381Y-81309347D01*
G75*
G02*
X107190257Y-82471433I-1247105J85019D01*
G01*
X107190257Y-82471433D01*
G75*
G02*
X106028171Y-81139309I85019J1247105D01*
G01*
G37*
%TD*%
%TO.C,K1-5*%
G36*
G01*
X106028171Y-100189309D02*
X106067619Y-99610653D01*
G75*
G02*
X107399743Y-98448567I1247105J-85019D01*
G01*
X107399743Y-98448567D01*
G75*
G02*
X108561829Y-99780691I-85019J-1247105D01*
G01*
X108522381Y-100359347D01*
G75*
G02*
X107190257Y-101521433I-1247105J85019D01*
G01*
X107190257Y-101521433D01*
G75*
G02*
X106028171Y-100189309I85019J1247105D01*
G01*
G37*
G36*
G01*
X99861299Y-101532190D02*
X101070223Y-99634560D01*
G75*
G02*
X102796087Y-99251946I1054239J-671625D01*
G01*
X102796087Y-99251946D01*
G75*
G02*
X103178701Y-100977810I-671625J-1054239D01*
G01*
X101969777Y-102875440D01*
G75*
G02*
X100243913Y-103258054I-1054239J671625D01*
G01*
X100243913Y-103258054D01*
G75*
G02*
X99861299Y-101532190I671625J1054239D01*
G01*
G37*
X109855000Y-104775000D03*
X99695000Y-104775000D03*
D11*
X104775000Y-104775000D03*
%TD*%
%TO.C,K1-6*%
X104775000Y-123825000D03*
D10*
X99695000Y-123825000D03*
X109855000Y-123825000D03*
G36*
G01*
X99861299Y-120582190D02*
X101070223Y-118684560D01*
G75*
G02*
X102796087Y-118301946I1054239J-671625D01*
G01*
X102796087Y-118301946D01*
G75*
G02*
X103178701Y-120027810I-671625J-1054239D01*
G01*
X101969777Y-121925440D01*
G75*
G02*
X100243913Y-122308054I-1054239J671625D01*
G01*
X100243913Y-122308054D01*
G75*
G02*
X99861299Y-120582190I671625J1054239D01*
G01*
G37*
G36*
G01*
X106028171Y-119239309D02*
X106067619Y-118660653D01*
G75*
G02*
X107399743Y-117498567I1247105J-85019D01*
G01*
X107399743Y-117498567D01*
G75*
G02*
X108561829Y-118830691I-85019J-1247105D01*
G01*
X108522381Y-119409347D01*
G75*
G02*
X107190257Y-120571433I-1247105J85019D01*
G01*
X107190257Y-120571433D01*
G75*
G02*
X106028171Y-119239309I85019J1247105D01*
G01*
G37*
%TD*%
%TO.C,K2-1*%
G36*
G01*
X125078171Y-23989309D02*
X125117619Y-23410653D01*
G75*
G02*
X126449743Y-22248567I1247105J-85019D01*
G01*
X126449743Y-22248567D01*
G75*
G02*
X127611829Y-23580691I-85019J-1247105D01*
G01*
X127572381Y-24159347D01*
G75*
G02*
X126240257Y-25321433I-1247105J85019D01*
G01*
X126240257Y-25321433D01*
G75*
G02*
X125078171Y-23989309I85019J1247105D01*
G01*
G37*
G36*
G01*
X118911299Y-25332190D02*
X120120223Y-23434560D01*
G75*
G02*
X121846087Y-23051946I1054239J-671625D01*
G01*
X121846087Y-23051946D01*
G75*
G02*
X122228701Y-24777810I-671625J-1054239D01*
G01*
X121019777Y-26675440D01*
G75*
G02*
X119293913Y-27058054I-1054239J671625D01*
G01*
X119293913Y-27058054D01*
G75*
G02*
X118911299Y-25332190I671625J1054239D01*
G01*
G37*
X128905000Y-28575000D03*
X118745000Y-28575000D03*
D11*
X123825000Y-28575000D03*
%TD*%
%TO.C,K2-2*%
X123825000Y-47625000D03*
D10*
X118745000Y-47625000D03*
X128905000Y-47625000D03*
G36*
G01*
X118911299Y-44382190D02*
X120120223Y-42484560D01*
G75*
G02*
X121846087Y-42101946I1054239J-671625D01*
G01*
X121846087Y-42101946D01*
G75*
G02*
X122228701Y-43827810I-671625J-1054239D01*
G01*
X121019777Y-45725440D01*
G75*
G02*
X119293913Y-46108054I-1054239J671625D01*
G01*
X119293913Y-46108054D01*
G75*
G02*
X118911299Y-44382190I671625J1054239D01*
G01*
G37*
G36*
G01*
X125078171Y-43039309D02*
X125117619Y-42460653D01*
G75*
G02*
X126449743Y-41298567I1247105J-85019D01*
G01*
X126449743Y-41298567D01*
G75*
G02*
X127611829Y-42630691I-85019J-1247105D01*
G01*
X127572381Y-43209347D01*
G75*
G02*
X126240257Y-44371433I-1247105J85019D01*
G01*
X126240257Y-44371433D01*
G75*
G02*
X125078171Y-43039309I85019J1247105D01*
G01*
G37*
%TD*%
D11*
%TO.C,K2-3*%
X123825000Y-66675000D03*
D10*
X118745000Y-66675000D03*
X128905000Y-66675000D03*
G36*
G01*
X118911299Y-63432190D02*
X120120223Y-61534560D01*
G75*
G02*
X121846087Y-61151946I1054239J-671625D01*
G01*
X121846087Y-61151946D01*
G75*
G02*
X122228701Y-62877810I-671625J-1054239D01*
G01*
X121019777Y-64775440D01*
G75*
G02*
X119293913Y-65158054I-1054239J671625D01*
G01*
X119293913Y-65158054D01*
G75*
G02*
X118911299Y-63432190I671625J1054239D01*
G01*
G37*
G36*
G01*
X125078171Y-62089309D02*
X125117619Y-61510653D01*
G75*
G02*
X126449743Y-60348567I1247105J-85019D01*
G01*
X126449743Y-60348567D01*
G75*
G02*
X127611829Y-61680691I-85019J-1247105D01*
G01*
X127572381Y-62259347D01*
G75*
G02*
X126240257Y-63421433I-1247105J85019D01*
G01*
X126240257Y-63421433D01*
G75*
G02*
X125078171Y-62089309I85019J1247105D01*
G01*
G37*
%TD*%
%TO.C,K2-4*%
G36*
G01*
X125078171Y-81139309D02*
X125117619Y-80560653D01*
G75*
G02*
X126449743Y-79398567I1247105J-85019D01*
G01*
X126449743Y-79398567D01*
G75*
G02*
X127611829Y-80730691I-85019J-1247105D01*
G01*
X127572381Y-81309347D01*
G75*
G02*
X126240257Y-82471433I-1247105J85019D01*
G01*
X126240257Y-82471433D01*
G75*
G02*
X125078171Y-81139309I85019J1247105D01*
G01*
G37*
G36*
G01*
X118911299Y-82482190D02*
X120120223Y-80584560D01*
G75*
G02*
X121846087Y-80201946I1054239J-671625D01*
G01*
X121846087Y-80201946D01*
G75*
G02*
X122228701Y-81927810I-671625J-1054239D01*
G01*
X121019777Y-83825440D01*
G75*
G02*
X119293913Y-84208054I-1054239J671625D01*
G01*
X119293913Y-84208054D01*
G75*
G02*
X118911299Y-82482190I671625J1054239D01*
G01*
G37*
X128905000Y-85725000D03*
X118745000Y-85725000D03*
D11*
X123825000Y-85725000D03*
%TD*%
%TO.C,K2-5*%
X123825000Y-104775000D03*
D10*
X118745000Y-104775000D03*
X128905000Y-104775000D03*
G36*
G01*
X118911299Y-101532190D02*
X120120223Y-99634560D01*
G75*
G02*
X121846087Y-99251946I1054239J-671625D01*
G01*
X121846087Y-99251946D01*
G75*
G02*
X122228701Y-100977810I-671625J-1054239D01*
G01*
X121019777Y-102875440D01*
G75*
G02*
X119293913Y-103258054I-1054239J671625D01*
G01*
X119293913Y-103258054D01*
G75*
G02*
X118911299Y-101532190I671625J1054239D01*
G01*
G37*
G36*
G01*
X125078171Y-100189309D02*
X125117619Y-99610653D01*
G75*
G02*
X126449743Y-98448567I1247105J-85019D01*
G01*
X126449743Y-98448567D01*
G75*
G02*
X127611829Y-99780691I-85019J-1247105D01*
G01*
X127572381Y-100359347D01*
G75*
G02*
X126240257Y-101521433I-1247105J85019D01*
G01*
X126240257Y-101521433D01*
G75*
G02*
X125078171Y-100189309I85019J1247105D01*
G01*
G37*
%TD*%
%TO.C,K2-6*%
G36*
G01*
X125078171Y-119239309D02*
X125117619Y-118660653D01*
G75*
G02*
X126449743Y-117498567I1247105J-85019D01*
G01*
X126449743Y-117498567D01*
G75*
G02*
X127611829Y-118830691I-85019J-1247105D01*
G01*
X127572381Y-119409347D01*
G75*
G02*
X126240257Y-120571433I-1247105J85019D01*
G01*
X126240257Y-120571433D01*
G75*
G02*
X125078171Y-119239309I85019J1247105D01*
G01*
G37*
G36*
G01*
X118911299Y-120582190D02*
X120120223Y-118684560D01*
G75*
G02*
X121846087Y-118301946I1054239J-671625D01*
G01*
X121846087Y-118301946D01*
G75*
G02*
X122228701Y-120027810I-671625J-1054239D01*
G01*
X121019777Y-121925440D01*
G75*
G02*
X119293913Y-122308054I-1054239J671625D01*
G01*
X119293913Y-122308054D01*
G75*
G02*
X118911299Y-120582190I671625J1054239D01*
G01*
G37*
X128905000Y-123825000D03*
X118745000Y-123825000D03*
D11*
X123825000Y-123825000D03*
%TD*%
%TO.C,K3-1*%
G36*
G01*
X144128171Y-23989309D02*
X144167619Y-23410653D01*
G75*
G02*
X145499743Y-22248567I1247105J-85019D01*
G01*
X145499743Y-22248567D01*
G75*
G02*
X146661829Y-23580691I-85019J-1247105D01*
G01*
X146622381Y-24159347D01*
G75*
G02*
X145290257Y-25321433I-1247105J85019D01*
G01*
X145290257Y-25321433D01*
G75*
G02*
X144128171Y-23989309I85019J1247105D01*
G01*
G37*
G36*
G01*
X137961299Y-25332190D02*
X139170223Y-23434560D01*
G75*
G02*
X140896087Y-23051946I1054239J-671625D01*
G01*
X140896087Y-23051946D01*
G75*
G02*
X141278701Y-24777810I-671625J-1054239D01*
G01*
X140069777Y-26675440D01*
G75*
G02*
X138343913Y-27058054I-1054239J671625D01*
G01*
X138343913Y-27058054D01*
G75*
G02*
X137961299Y-25332190I671625J1054239D01*
G01*
G37*
D10*
X147955000Y-28575000D03*
X137795000Y-28575000D03*
D11*
X142875000Y-28575000D03*
%TD*%
%TO.C,K3-2*%
X142875000Y-47625000D03*
D10*
X137795000Y-47625000D03*
X147955000Y-47625000D03*
G36*
G01*
X137961299Y-44382190D02*
X139170223Y-42484560D01*
G75*
G02*
X140896087Y-42101946I1054239J-671625D01*
G01*
X140896087Y-42101946D01*
G75*
G02*
X141278701Y-43827810I-671625J-1054239D01*
G01*
X140069777Y-45725440D01*
G75*
G02*
X138343913Y-46108054I-1054239J671625D01*
G01*
X138343913Y-46108054D01*
G75*
G02*
X137961299Y-44382190I671625J1054239D01*
G01*
G37*
G36*
G01*
X144128171Y-43039309D02*
X144167619Y-42460653D01*
G75*
G02*
X145499743Y-41298567I1247105J-85019D01*
G01*
X145499743Y-41298567D01*
G75*
G02*
X146661829Y-42630691I-85019J-1247105D01*
G01*
X146622381Y-43209347D01*
G75*
G02*
X145290257Y-44371433I-1247105J85019D01*
G01*
X145290257Y-44371433D01*
G75*
G02*
X144128171Y-43039309I85019J1247105D01*
G01*
G37*
%TD*%
%TO.C,K3-3*%
G36*
G01*
X144128171Y-62089309D02*
X144167619Y-61510653D01*
G75*
G02*
X145499743Y-60348567I1247105J-85019D01*
G01*
X145499743Y-60348567D01*
G75*
G02*
X146661829Y-61680691I-85019J-1247105D01*
G01*
X146622381Y-62259347D01*
G75*
G02*
X145290257Y-63421433I-1247105J85019D01*
G01*
X145290257Y-63421433D01*
G75*
G02*
X144128171Y-62089309I85019J1247105D01*
G01*
G37*
G36*
G01*
X137961299Y-63432190D02*
X139170223Y-61534560D01*
G75*
G02*
X140896087Y-61151946I1054239J-671625D01*
G01*
X140896087Y-61151946D01*
G75*
G02*
X141278701Y-62877810I-671625J-1054239D01*
G01*
X140069777Y-64775440D01*
G75*
G02*
X138343913Y-65158054I-1054239J671625D01*
G01*
X138343913Y-65158054D01*
G75*
G02*
X137961299Y-63432190I671625J1054239D01*
G01*
G37*
X147955000Y-66675000D03*
X137795000Y-66675000D03*
D11*
X142875000Y-66675000D03*
%TD*%
%TO.C,K3-4*%
X142875000Y-85725000D03*
D10*
X137795000Y-85725000D03*
X147955000Y-85725000D03*
G36*
G01*
X137961299Y-82482190D02*
X139170223Y-80584560D01*
G75*
G02*
X140896087Y-80201946I1054239J-671625D01*
G01*
X140896087Y-80201946D01*
G75*
G02*
X141278701Y-81927810I-671625J-1054239D01*
G01*
X140069777Y-83825440D01*
G75*
G02*
X138343913Y-84208054I-1054239J671625D01*
G01*
X138343913Y-84208054D01*
G75*
G02*
X137961299Y-82482190I671625J1054239D01*
G01*
G37*
G36*
G01*
X144128171Y-81139309D02*
X144167619Y-80560653D01*
G75*
G02*
X145499743Y-79398567I1247105J-85019D01*
G01*
X145499743Y-79398567D01*
G75*
G02*
X146661829Y-80730691I-85019J-1247105D01*
G01*
X146622381Y-81309347D01*
G75*
G02*
X145290257Y-82471433I-1247105J85019D01*
G01*
X145290257Y-82471433D01*
G75*
G02*
X144128171Y-81139309I85019J1247105D01*
G01*
G37*
%TD*%
%TO.C,K3-5*%
G36*
G01*
X144128171Y-100189309D02*
X144167619Y-99610653D01*
G75*
G02*
X145499743Y-98448567I1247105J-85019D01*
G01*
X145499743Y-98448567D01*
G75*
G02*
X146661829Y-99780691I-85019J-1247105D01*
G01*
X146622381Y-100359347D01*
G75*
G02*
X145290257Y-101521433I-1247105J85019D01*
G01*
X145290257Y-101521433D01*
G75*
G02*
X144128171Y-100189309I85019J1247105D01*
G01*
G37*
G36*
G01*
X137961299Y-101532190D02*
X139170223Y-99634560D01*
G75*
G02*
X140896087Y-99251946I1054239J-671625D01*
G01*
X140896087Y-99251946D01*
G75*
G02*
X141278701Y-100977810I-671625J-1054239D01*
G01*
X140069777Y-102875440D01*
G75*
G02*
X138343913Y-103258054I-1054239J671625D01*
G01*
X138343913Y-103258054D01*
G75*
G02*
X137961299Y-101532190I671625J1054239D01*
G01*
G37*
X147955000Y-104775000D03*
X137795000Y-104775000D03*
D11*
X142875000Y-104775000D03*
%TD*%
%TO.C,K3-6*%
X142875000Y-123825000D03*
D10*
X137795000Y-123825000D03*
X147955000Y-123825000D03*
G36*
G01*
X137961299Y-120582190D02*
X139170223Y-118684560D01*
G75*
G02*
X140896087Y-118301946I1054239J-671625D01*
G01*
X140896087Y-118301946D01*
G75*
G02*
X141278701Y-120027810I-671625J-1054239D01*
G01*
X140069777Y-121925440D01*
G75*
G02*
X138343913Y-122308054I-1054239J671625D01*
G01*
X138343913Y-122308054D01*
G75*
G02*
X137961299Y-120582190I671625J1054239D01*
G01*
G37*
G36*
G01*
X144128171Y-119239309D02*
X144167619Y-118660653D01*
G75*
G02*
X145499743Y-117498567I1247105J-85019D01*
G01*
X145499743Y-117498567D01*
G75*
G02*
X146661829Y-118830691I-85019J-1247105D01*
G01*
X146622381Y-119409347D01*
G75*
G02*
X145290257Y-120571433I-1247105J85019D01*
G01*
X145290257Y-120571433D01*
G75*
G02*
X144128171Y-119239309I85019J1247105D01*
G01*
G37*
%TD*%
%TO.C,K4-1*%
G36*
G01*
X163178171Y-23989309D02*
X163217619Y-23410653D01*
G75*
G02*
X164549743Y-22248567I1247105J-85019D01*
G01*
X164549743Y-22248567D01*
G75*
G02*
X165711829Y-23580691I-85019J-1247105D01*
G01*
X165672381Y-24159347D01*
G75*
G02*
X164340257Y-25321433I-1247105J85019D01*
G01*
X164340257Y-25321433D01*
G75*
G02*
X163178171Y-23989309I85019J1247105D01*
G01*
G37*
G36*
G01*
X157011299Y-25332190D02*
X158220223Y-23434560D01*
G75*
G02*
X159946087Y-23051946I1054239J-671625D01*
G01*
X159946087Y-23051946D01*
G75*
G02*
X160328701Y-24777810I-671625J-1054239D01*
G01*
X159119777Y-26675440D01*
G75*
G02*
X157393913Y-27058054I-1054239J671625D01*
G01*
X157393913Y-27058054D01*
G75*
G02*
X157011299Y-25332190I671625J1054239D01*
G01*
G37*
X167005000Y-28575000D03*
X156845000Y-28575000D03*
D11*
X161925000Y-28575000D03*
%TD*%
%TO.C,K4-3*%
G36*
G01*
X163178171Y-62089309D02*
X163217619Y-61510653D01*
G75*
G02*
X164549743Y-60348567I1247105J-85019D01*
G01*
X164549743Y-60348567D01*
G75*
G02*
X165711829Y-61680691I-85019J-1247105D01*
G01*
X165672381Y-62259347D01*
G75*
G02*
X164340257Y-63421433I-1247105J85019D01*
G01*
X164340257Y-63421433D01*
G75*
G02*
X163178171Y-62089309I85019J1247105D01*
G01*
G37*
G36*
G01*
X157011299Y-63432190D02*
X158220223Y-61534560D01*
G75*
G02*
X159946087Y-61151946I1054239J-671625D01*
G01*
X159946087Y-61151946D01*
G75*
G02*
X160328701Y-62877810I-671625J-1054239D01*
G01*
X159119777Y-64775440D01*
G75*
G02*
X157393913Y-65158054I-1054239J671625D01*
G01*
X157393913Y-65158054D01*
G75*
G02*
X157011299Y-63432190I671625J1054239D01*
G01*
G37*
D10*
X167005000Y-66675000D03*
X156845000Y-66675000D03*
D11*
X161925000Y-66675000D03*
%TD*%
%TO.C,K4-4*%
X161925000Y-85725000D03*
D10*
X156845000Y-85725000D03*
X167005000Y-85725000D03*
G36*
G01*
X157011299Y-82482190D02*
X158220223Y-80584560D01*
G75*
G02*
X159946087Y-80201946I1054239J-671625D01*
G01*
X159946087Y-80201946D01*
G75*
G02*
X160328701Y-81927810I-671625J-1054239D01*
G01*
X159119777Y-83825440D01*
G75*
G02*
X157393913Y-84208054I-1054239J671625D01*
G01*
X157393913Y-84208054D01*
G75*
G02*
X157011299Y-82482190I671625J1054239D01*
G01*
G37*
G36*
G01*
X163178171Y-81139309D02*
X163217619Y-80560653D01*
G75*
G02*
X164549743Y-79398567I1247105J-85019D01*
G01*
X164549743Y-79398567D01*
G75*
G02*
X165711829Y-80730691I-85019J-1247105D01*
G01*
X165672381Y-81309347D01*
G75*
G02*
X164340257Y-82471433I-1247105J85019D01*
G01*
X164340257Y-82471433D01*
G75*
G02*
X163178171Y-81139309I85019J1247105D01*
G01*
G37*
%TD*%
%TO.C,K4-5*%
G36*
G01*
X163178171Y-100189309D02*
X163217619Y-99610653D01*
G75*
G02*
X164549743Y-98448567I1247105J-85019D01*
G01*
X164549743Y-98448567D01*
G75*
G02*
X165711829Y-99780691I-85019J-1247105D01*
G01*
X165672381Y-100359347D01*
G75*
G02*
X164340257Y-101521433I-1247105J85019D01*
G01*
X164340257Y-101521433D01*
G75*
G02*
X163178171Y-100189309I85019J1247105D01*
G01*
G37*
G36*
G01*
X157011299Y-101532190D02*
X158220223Y-99634560D01*
G75*
G02*
X159946087Y-99251946I1054239J-671625D01*
G01*
X159946087Y-99251946D01*
G75*
G02*
X160328701Y-100977810I-671625J-1054239D01*
G01*
X159119777Y-102875440D01*
G75*
G02*
X157393913Y-103258054I-1054239J671625D01*
G01*
X157393913Y-103258054D01*
G75*
G02*
X157011299Y-101532190I671625J1054239D01*
G01*
G37*
X167005000Y-104775000D03*
X156845000Y-104775000D03*
D11*
X161925000Y-104775000D03*
%TD*%
%TO.C,K4-6*%
G36*
G01*
X163178171Y-119239309D02*
X163217619Y-118660653D01*
G75*
G02*
X164549743Y-117498567I1247105J-85019D01*
G01*
X164549743Y-117498567D01*
G75*
G02*
X165711829Y-118830691I-85019J-1247105D01*
G01*
X165672381Y-119409347D01*
G75*
G02*
X164340257Y-120571433I-1247105J85019D01*
G01*
X164340257Y-120571433D01*
G75*
G02*
X163178171Y-119239309I85019J1247105D01*
G01*
G37*
G36*
G01*
X157011299Y-120582190D02*
X158220223Y-118684560D01*
G75*
G02*
X159946087Y-118301946I1054239J-671625D01*
G01*
X159946087Y-118301946D01*
G75*
G02*
X160328701Y-120027810I-671625J-1054239D01*
G01*
X159119777Y-121925440D01*
G75*
G02*
X157393913Y-122308054I-1054239J671625D01*
G01*
X157393913Y-122308054D01*
G75*
G02*
X157011299Y-120582190I671625J1054239D01*
G01*
G37*
D10*
X167005000Y-123825000D03*
X156845000Y-123825000D03*
D11*
X161925000Y-123825000D03*
%TD*%
%TO.C,K5-1*%
G36*
G01*
X182228171Y-23989309D02*
X182267619Y-23410653D01*
G75*
G02*
X183599743Y-22248567I1247105J-85019D01*
G01*
X183599743Y-22248567D01*
G75*
G02*
X184761829Y-23580691I-85019J-1247105D01*
G01*
X184722381Y-24159347D01*
G75*
G02*
X183390257Y-25321433I-1247105J85019D01*
G01*
X183390257Y-25321433D01*
G75*
G02*
X182228171Y-23989309I85019J1247105D01*
G01*
G37*
G36*
G01*
X176061299Y-25332190D02*
X177270223Y-23434560D01*
G75*
G02*
X178996087Y-23051946I1054239J-671625D01*
G01*
X178996087Y-23051946D01*
G75*
G02*
X179378701Y-24777810I-671625J-1054239D01*
G01*
X178169777Y-26675440D01*
G75*
G02*
X176443913Y-27058054I-1054239J671625D01*
G01*
X176443913Y-27058054D01*
G75*
G02*
X176061299Y-25332190I671625J1054239D01*
G01*
G37*
D10*
X186055000Y-28575000D03*
X175895000Y-28575000D03*
D11*
X180975000Y-28575000D03*
%TD*%
%TO.C,K5-2*%
X180975000Y-47625000D03*
D10*
X175895000Y-47625000D03*
X186055000Y-47625000D03*
G36*
G01*
X176061299Y-44382190D02*
X177270223Y-42484560D01*
G75*
G02*
X178996087Y-42101946I1054239J-671625D01*
G01*
X178996087Y-42101946D01*
G75*
G02*
X179378701Y-43827810I-671625J-1054239D01*
G01*
X178169777Y-45725440D01*
G75*
G02*
X176443913Y-46108054I-1054239J671625D01*
G01*
X176443913Y-46108054D01*
G75*
G02*
X176061299Y-44382190I671625J1054239D01*
G01*
G37*
G36*
G01*
X182228171Y-43039309D02*
X182267619Y-42460653D01*
G75*
G02*
X183599743Y-41298567I1247105J-85019D01*
G01*
X183599743Y-41298567D01*
G75*
G02*
X184761829Y-42630691I-85019J-1247105D01*
G01*
X184722381Y-43209347D01*
G75*
G02*
X183390257Y-44371433I-1247105J85019D01*
G01*
X183390257Y-44371433D01*
G75*
G02*
X182228171Y-43039309I85019J1247105D01*
G01*
G37*
%TD*%
%TO.C,K5-3*%
G36*
G01*
X182228171Y-62089309D02*
X182267619Y-61510653D01*
G75*
G02*
X183599743Y-60348567I1247105J-85019D01*
G01*
X183599743Y-60348567D01*
G75*
G02*
X184761829Y-61680691I-85019J-1247105D01*
G01*
X184722381Y-62259347D01*
G75*
G02*
X183390257Y-63421433I-1247105J85019D01*
G01*
X183390257Y-63421433D01*
G75*
G02*
X182228171Y-62089309I85019J1247105D01*
G01*
G37*
G36*
G01*
X176061299Y-63432190D02*
X177270223Y-61534560D01*
G75*
G02*
X178996087Y-61151946I1054239J-671625D01*
G01*
X178996087Y-61151946D01*
G75*
G02*
X179378701Y-62877810I-671625J-1054239D01*
G01*
X178169777Y-64775440D01*
G75*
G02*
X176443913Y-65158054I-1054239J671625D01*
G01*
X176443913Y-65158054D01*
G75*
G02*
X176061299Y-63432190I671625J1054239D01*
G01*
G37*
X186055000Y-66675000D03*
X175895000Y-66675000D03*
D11*
X180975000Y-66675000D03*
%TD*%
%TO.C,K5-4*%
X180975000Y-85725000D03*
D10*
X175895000Y-85725000D03*
X186055000Y-85725000D03*
G36*
G01*
X176061299Y-82482190D02*
X177270223Y-80584560D01*
G75*
G02*
X178996087Y-80201946I1054239J-671625D01*
G01*
X178996087Y-80201946D01*
G75*
G02*
X179378701Y-81927810I-671625J-1054239D01*
G01*
X178169777Y-83825440D01*
G75*
G02*
X176443913Y-84208054I-1054239J671625D01*
G01*
X176443913Y-84208054D01*
G75*
G02*
X176061299Y-82482190I671625J1054239D01*
G01*
G37*
G36*
G01*
X182228171Y-81139309D02*
X182267619Y-80560653D01*
G75*
G02*
X183599743Y-79398567I1247105J-85019D01*
G01*
X183599743Y-79398567D01*
G75*
G02*
X184761829Y-80730691I-85019J-1247105D01*
G01*
X184722381Y-81309347D01*
G75*
G02*
X183390257Y-82471433I-1247105J85019D01*
G01*
X183390257Y-82471433D01*
G75*
G02*
X182228171Y-81139309I85019J1247105D01*
G01*
G37*
%TD*%
%TO.C,K5-5*%
G36*
G01*
X182228171Y-100189309D02*
X182267619Y-99610653D01*
G75*
G02*
X183599743Y-98448567I1247105J-85019D01*
G01*
X183599743Y-98448567D01*
G75*
G02*
X184761829Y-99780691I-85019J-1247105D01*
G01*
X184722381Y-100359347D01*
G75*
G02*
X183390257Y-101521433I-1247105J85019D01*
G01*
X183390257Y-101521433D01*
G75*
G02*
X182228171Y-100189309I85019J1247105D01*
G01*
G37*
G36*
G01*
X176061299Y-101532190D02*
X177270223Y-99634560D01*
G75*
G02*
X178996087Y-99251946I1054239J-671625D01*
G01*
X178996087Y-99251946D01*
G75*
G02*
X179378701Y-100977810I-671625J-1054239D01*
G01*
X178169777Y-102875440D01*
G75*
G02*
X176443913Y-103258054I-1054239J671625D01*
G01*
X176443913Y-103258054D01*
G75*
G02*
X176061299Y-101532190I671625J1054239D01*
G01*
G37*
X186055000Y-104775000D03*
X175895000Y-104775000D03*
D11*
X180975000Y-104775000D03*
%TD*%
%TO.C,K5-6*%
X180975000Y-123825000D03*
D10*
X175895000Y-123825000D03*
X186055000Y-123825000D03*
G36*
G01*
X176061299Y-120582190D02*
X177270223Y-118684560D01*
G75*
G02*
X178996087Y-118301946I1054239J-671625D01*
G01*
X178996087Y-118301946D01*
G75*
G02*
X179378701Y-120027810I-671625J-1054239D01*
G01*
X178169777Y-121925440D01*
G75*
G02*
X176443913Y-122308054I-1054239J671625D01*
G01*
X176443913Y-122308054D01*
G75*
G02*
X176061299Y-120582190I671625J1054239D01*
G01*
G37*
G36*
G01*
X182228171Y-119239309D02*
X182267619Y-118660653D01*
G75*
G02*
X183599743Y-117498567I1247105J-85019D01*
G01*
X183599743Y-117498567D01*
G75*
G02*
X184761829Y-118830691I-85019J-1247105D01*
G01*
X184722381Y-119409347D01*
G75*
G02*
X183390257Y-120571433I-1247105J85019D01*
G01*
X183390257Y-120571433D01*
G75*
G02*
X182228171Y-119239309I85019J1247105D01*
G01*
G37*
%TD*%
%TO.C,K6-1*%
G36*
G01*
X201278171Y-23989309D02*
X201317619Y-23410653D01*
G75*
G02*
X202649743Y-22248567I1247105J-85019D01*
G01*
X202649743Y-22248567D01*
G75*
G02*
X203811829Y-23580691I-85019J-1247105D01*
G01*
X203772381Y-24159347D01*
G75*
G02*
X202440257Y-25321433I-1247105J85019D01*
G01*
X202440257Y-25321433D01*
G75*
G02*
X201278171Y-23989309I85019J1247105D01*
G01*
G37*
G36*
G01*
X195111299Y-25332190D02*
X196320223Y-23434560D01*
G75*
G02*
X198046087Y-23051946I1054239J-671625D01*
G01*
X198046087Y-23051946D01*
G75*
G02*
X198428701Y-24777810I-671625J-1054239D01*
G01*
X197219777Y-26675440D01*
G75*
G02*
X195493913Y-27058054I-1054239J671625D01*
G01*
X195493913Y-27058054D01*
G75*
G02*
X195111299Y-25332190I671625J1054239D01*
G01*
G37*
X205105000Y-28575000D03*
X194945000Y-28575000D03*
D11*
X200025000Y-28575000D03*
%TD*%
%TO.C,K6-2*%
X200025000Y-47625000D03*
D10*
X194945000Y-47625000D03*
X205105000Y-47625000D03*
G36*
G01*
X195111299Y-44382190D02*
X196320223Y-42484560D01*
G75*
G02*
X198046087Y-42101946I1054239J-671625D01*
G01*
X198046087Y-42101946D01*
G75*
G02*
X198428701Y-43827810I-671625J-1054239D01*
G01*
X197219777Y-45725440D01*
G75*
G02*
X195493913Y-46108054I-1054239J671625D01*
G01*
X195493913Y-46108054D01*
G75*
G02*
X195111299Y-44382190I671625J1054239D01*
G01*
G37*
G36*
G01*
X201278171Y-43039309D02*
X201317619Y-42460653D01*
G75*
G02*
X202649743Y-41298567I1247105J-85019D01*
G01*
X202649743Y-41298567D01*
G75*
G02*
X203811829Y-42630691I-85019J-1247105D01*
G01*
X203772381Y-43209347D01*
G75*
G02*
X202440257Y-44371433I-1247105J85019D01*
G01*
X202440257Y-44371433D01*
G75*
G02*
X201278171Y-43039309I85019J1247105D01*
G01*
G37*
%TD*%
D11*
%TO.C,K6-3*%
X200025000Y-66675000D03*
D10*
X194945000Y-66675000D03*
X205105000Y-66675000D03*
G36*
G01*
X195111299Y-63432190D02*
X196320223Y-61534560D01*
G75*
G02*
X198046087Y-61151946I1054239J-671625D01*
G01*
X198046087Y-61151946D01*
G75*
G02*
X198428701Y-62877810I-671625J-1054239D01*
G01*
X197219777Y-64775440D01*
G75*
G02*
X195493913Y-65158054I-1054239J671625D01*
G01*
X195493913Y-65158054D01*
G75*
G02*
X195111299Y-63432190I671625J1054239D01*
G01*
G37*
G36*
G01*
X201278171Y-62089309D02*
X201317619Y-61510653D01*
G75*
G02*
X202649743Y-60348567I1247105J-85019D01*
G01*
X202649743Y-60348567D01*
G75*
G02*
X203811829Y-61680691I-85019J-1247105D01*
G01*
X203772381Y-62259347D01*
G75*
G02*
X202440257Y-63421433I-1247105J85019D01*
G01*
X202440257Y-63421433D01*
G75*
G02*
X201278171Y-62089309I85019J1247105D01*
G01*
G37*
%TD*%
D11*
%TO.C,K6-4*%
X200025000Y-85725000D03*
D10*
X194945000Y-85725000D03*
X205105000Y-85725000D03*
G36*
G01*
X195111299Y-82482190D02*
X196320223Y-80584560D01*
G75*
G02*
X198046087Y-80201946I1054239J-671625D01*
G01*
X198046087Y-80201946D01*
G75*
G02*
X198428701Y-81927810I-671625J-1054239D01*
G01*
X197219777Y-83825440D01*
G75*
G02*
X195493913Y-84208054I-1054239J671625D01*
G01*
X195493913Y-84208054D01*
G75*
G02*
X195111299Y-82482190I671625J1054239D01*
G01*
G37*
G36*
G01*
X201278171Y-81139309D02*
X201317619Y-80560653D01*
G75*
G02*
X202649743Y-79398567I1247105J-85019D01*
G01*
X202649743Y-79398567D01*
G75*
G02*
X203811829Y-80730691I-85019J-1247105D01*
G01*
X203772381Y-81309347D01*
G75*
G02*
X202440257Y-82471433I-1247105J85019D01*
G01*
X202440257Y-82471433D01*
G75*
G02*
X201278171Y-81139309I85019J1247105D01*
G01*
G37*
%TD*%
%TO.C,K6-5*%
G36*
G01*
X201278171Y-100189309D02*
X201317619Y-99610653D01*
G75*
G02*
X202649743Y-98448567I1247105J-85019D01*
G01*
X202649743Y-98448567D01*
G75*
G02*
X203811829Y-99780691I-85019J-1247105D01*
G01*
X203772381Y-100359347D01*
G75*
G02*
X202440257Y-101521433I-1247105J85019D01*
G01*
X202440257Y-101521433D01*
G75*
G02*
X201278171Y-100189309I85019J1247105D01*
G01*
G37*
G36*
G01*
X195111299Y-101532190D02*
X196320223Y-99634560D01*
G75*
G02*
X198046087Y-99251946I1054239J-671625D01*
G01*
X198046087Y-99251946D01*
G75*
G02*
X198428701Y-100977810I-671625J-1054239D01*
G01*
X197219777Y-102875440D01*
G75*
G02*
X195493913Y-103258054I-1054239J671625D01*
G01*
X195493913Y-103258054D01*
G75*
G02*
X195111299Y-101532190I671625J1054239D01*
G01*
G37*
X205105000Y-104775000D03*
X194945000Y-104775000D03*
D11*
X200025000Y-104775000D03*
%TD*%
%TO.C,K6-6*%
X200025000Y-123825000D03*
D10*
X194945000Y-123825000D03*
X205105000Y-123825000D03*
G36*
G01*
X195111299Y-120582190D02*
X196320223Y-118684560D01*
G75*
G02*
X198046087Y-118301946I1054239J-671625D01*
G01*
X198046087Y-118301946D01*
G75*
G02*
X198428701Y-120027810I-671625J-1054239D01*
G01*
X197219777Y-121925440D01*
G75*
G02*
X195493913Y-122308054I-1054239J671625D01*
G01*
X195493913Y-122308054D01*
G75*
G02*
X195111299Y-120582190I671625J1054239D01*
G01*
G37*
G36*
G01*
X201278171Y-119239309D02*
X201317619Y-118660653D01*
G75*
G02*
X202649743Y-117498567I1247105J-85019D01*
G01*
X202649743Y-117498567D01*
G75*
G02*
X203811829Y-118830691I-85019J-1247105D01*
G01*
X203772381Y-119409347D01*
G75*
G02*
X202440257Y-120571433I-1247105J85019D01*
G01*
X202440257Y-120571433D01*
G75*
G02*
X201278171Y-119239309I85019J1247105D01*
G01*
G37*
%TD*%
%TO.C,K7-1*%
G36*
G01*
X220328171Y-23989309D02*
X220367619Y-23410653D01*
G75*
G02*
X221699743Y-22248567I1247105J-85019D01*
G01*
X221699743Y-22248567D01*
G75*
G02*
X222861829Y-23580691I-85019J-1247105D01*
G01*
X222822381Y-24159347D01*
G75*
G02*
X221490257Y-25321433I-1247105J85019D01*
G01*
X221490257Y-25321433D01*
G75*
G02*
X220328171Y-23989309I85019J1247105D01*
G01*
G37*
G36*
G01*
X214161299Y-25332190D02*
X215370223Y-23434560D01*
G75*
G02*
X217096087Y-23051946I1054239J-671625D01*
G01*
X217096087Y-23051946D01*
G75*
G02*
X217478701Y-24777810I-671625J-1054239D01*
G01*
X216269777Y-26675440D01*
G75*
G02*
X214543913Y-27058054I-1054239J671625D01*
G01*
X214543913Y-27058054D01*
G75*
G02*
X214161299Y-25332190I671625J1054239D01*
G01*
G37*
X224155000Y-28575000D03*
X213995000Y-28575000D03*
D11*
X219075000Y-28575000D03*
%TD*%
%TO.C,K7-2*%
X219075000Y-47625000D03*
D10*
X213995000Y-47625000D03*
X224155000Y-47625000D03*
G36*
G01*
X214161299Y-44382190D02*
X215370223Y-42484560D01*
G75*
G02*
X217096087Y-42101946I1054239J-671625D01*
G01*
X217096087Y-42101946D01*
G75*
G02*
X217478701Y-43827810I-671625J-1054239D01*
G01*
X216269777Y-45725440D01*
G75*
G02*
X214543913Y-46108054I-1054239J671625D01*
G01*
X214543913Y-46108054D01*
G75*
G02*
X214161299Y-44382190I671625J1054239D01*
G01*
G37*
G36*
G01*
X220328171Y-43039309D02*
X220367619Y-42460653D01*
G75*
G02*
X221699743Y-41298567I1247105J-85019D01*
G01*
X221699743Y-41298567D01*
G75*
G02*
X222861829Y-42630691I-85019J-1247105D01*
G01*
X222822381Y-43209347D01*
G75*
G02*
X221490257Y-44371433I-1247105J85019D01*
G01*
X221490257Y-44371433D01*
G75*
G02*
X220328171Y-43039309I85019J1247105D01*
G01*
G37*
%TD*%
%TO.C,K7-3*%
G36*
G01*
X220328171Y-62089309D02*
X220367619Y-61510653D01*
G75*
G02*
X221699743Y-60348567I1247105J-85019D01*
G01*
X221699743Y-60348567D01*
G75*
G02*
X222861829Y-61680691I-85019J-1247105D01*
G01*
X222822381Y-62259347D01*
G75*
G02*
X221490257Y-63421433I-1247105J85019D01*
G01*
X221490257Y-63421433D01*
G75*
G02*
X220328171Y-62089309I85019J1247105D01*
G01*
G37*
G36*
G01*
X214161299Y-63432190D02*
X215370223Y-61534560D01*
G75*
G02*
X217096087Y-61151946I1054239J-671625D01*
G01*
X217096087Y-61151946D01*
G75*
G02*
X217478701Y-62877810I-671625J-1054239D01*
G01*
X216269777Y-64775440D01*
G75*
G02*
X214543913Y-65158054I-1054239J671625D01*
G01*
X214543913Y-65158054D01*
G75*
G02*
X214161299Y-63432190I671625J1054239D01*
G01*
G37*
X224155000Y-66675000D03*
X213995000Y-66675000D03*
D11*
X219075000Y-66675000D03*
%TD*%
%TO.C,K7-5*%
G36*
G01*
X220328171Y-100189309D02*
X220367619Y-99610653D01*
G75*
G02*
X221699743Y-98448567I1247105J-85019D01*
G01*
X221699743Y-98448567D01*
G75*
G02*
X222861829Y-99780691I-85019J-1247105D01*
G01*
X222822381Y-100359347D01*
G75*
G02*
X221490257Y-101521433I-1247105J85019D01*
G01*
X221490257Y-101521433D01*
G75*
G02*
X220328171Y-100189309I85019J1247105D01*
G01*
G37*
G36*
G01*
X214161299Y-101532190D02*
X215370223Y-99634560D01*
G75*
G02*
X217096087Y-99251946I1054239J-671625D01*
G01*
X217096087Y-99251946D01*
G75*
G02*
X217478701Y-100977810I-671625J-1054239D01*
G01*
X216269777Y-102875440D01*
G75*
G02*
X214543913Y-103258054I-1054239J671625D01*
G01*
X214543913Y-103258054D01*
G75*
G02*
X214161299Y-101532190I671625J1054239D01*
G01*
G37*
D10*
X224155000Y-104775000D03*
X213995000Y-104775000D03*
D11*
X219075000Y-104775000D03*
%TD*%
%TO.C,K8-1*%
G36*
G01*
X239378171Y-23989309D02*
X239417619Y-23410653D01*
G75*
G02*
X240749743Y-22248567I1247105J-85019D01*
G01*
X240749743Y-22248567D01*
G75*
G02*
X241911829Y-23580691I-85019J-1247105D01*
G01*
X241872381Y-24159347D01*
G75*
G02*
X240540257Y-25321433I-1247105J85019D01*
G01*
X240540257Y-25321433D01*
G75*
G02*
X239378171Y-23989309I85019J1247105D01*
G01*
G37*
G36*
G01*
X233211299Y-25332190D02*
X234420223Y-23434560D01*
G75*
G02*
X236146087Y-23051946I1054239J-671625D01*
G01*
X236146087Y-23051946D01*
G75*
G02*
X236528701Y-24777810I-671625J-1054239D01*
G01*
X235319777Y-26675440D01*
G75*
G02*
X233593913Y-27058054I-1054239J671625D01*
G01*
X233593913Y-27058054D01*
G75*
G02*
X233211299Y-25332190I671625J1054239D01*
G01*
G37*
D10*
X243205000Y-28575000D03*
X233045000Y-28575000D03*
D11*
X238125000Y-28575000D03*
%TD*%
%TO.C,K8-2*%
G36*
G01*
X239378171Y-43039309D02*
X239417619Y-42460653D01*
G75*
G02*
X240749743Y-41298567I1247105J-85019D01*
G01*
X240749743Y-41298567D01*
G75*
G02*
X241911829Y-42630691I-85019J-1247105D01*
G01*
X241872381Y-43209347D01*
G75*
G02*
X240540257Y-44371433I-1247105J85019D01*
G01*
X240540257Y-44371433D01*
G75*
G02*
X239378171Y-43039309I85019J1247105D01*
G01*
G37*
G36*
G01*
X233211299Y-44382190D02*
X234420223Y-42484560D01*
G75*
G02*
X236146087Y-42101946I1054239J-671625D01*
G01*
X236146087Y-42101946D01*
G75*
G02*
X236528701Y-43827810I-671625J-1054239D01*
G01*
X235319777Y-45725440D01*
G75*
G02*
X233593913Y-46108054I-1054239J671625D01*
G01*
X233593913Y-46108054D01*
G75*
G02*
X233211299Y-44382190I671625J1054239D01*
G01*
G37*
D10*
X243205000Y-47625000D03*
X233045000Y-47625000D03*
D11*
X238125000Y-47625000D03*
%TD*%
%TO.C,K8-3*%
X238125000Y-66675000D03*
D10*
X233045000Y-66675000D03*
X243205000Y-66675000D03*
G36*
G01*
X233211299Y-63432190D02*
X234420223Y-61534560D01*
G75*
G02*
X236146087Y-61151946I1054239J-671625D01*
G01*
X236146087Y-61151946D01*
G75*
G02*
X236528701Y-62877810I-671625J-1054239D01*
G01*
X235319777Y-64775440D01*
G75*
G02*
X233593913Y-65158054I-1054239J671625D01*
G01*
X233593913Y-65158054D01*
G75*
G02*
X233211299Y-63432190I671625J1054239D01*
G01*
G37*
G36*
G01*
X239378171Y-62089309D02*
X239417619Y-61510653D01*
G75*
G02*
X240749743Y-60348567I1247105J-85019D01*
G01*
X240749743Y-60348567D01*
G75*
G02*
X241911829Y-61680691I-85019J-1247105D01*
G01*
X241872381Y-62259347D01*
G75*
G02*
X240540257Y-63421433I-1247105J85019D01*
G01*
X240540257Y-63421433D01*
G75*
G02*
X239378171Y-62089309I85019J1247105D01*
G01*
G37*
%TD*%
%TO.C,K8-4*%
G36*
G01*
X239378171Y-81139309D02*
X239417619Y-80560653D01*
G75*
G02*
X240749743Y-79398567I1247105J-85019D01*
G01*
X240749743Y-79398567D01*
G75*
G02*
X241911829Y-80730691I-85019J-1247105D01*
G01*
X241872381Y-81309347D01*
G75*
G02*
X240540257Y-82471433I-1247105J85019D01*
G01*
X240540257Y-82471433D01*
G75*
G02*
X239378171Y-81139309I85019J1247105D01*
G01*
G37*
G36*
G01*
X233211299Y-82482190D02*
X234420223Y-80584560D01*
G75*
G02*
X236146087Y-80201946I1054239J-671625D01*
G01*
X236146087Y-80201946D01*
G75*
G02*
X236528701Y-81927810I-671625J-1054239D01*
G01*
X235319777Y-83825440D01*
G75*
G02*
X233593913Y-84208054I-1054239J671625D01*
G01*
X233593913Y-84208054D01*
G75*
G02*
X233211299Y-82482190I671625J1054239D01*
G01*
G37*
X243205000Y-85725000D03*
X233045000Y-85725000D03*
D11*
X238125000Y-85725000D03*
%TD*%
%TO.C,K8-5*%
X238125000Y-104775000D03*
D10*
X233045000Y-104775000D03*
X243205000Y-104775000D03*
G36*
G01*
X233211299Y-101532190D02*
X234420223Y-99634560D01*
G75*
G02*
X236146087Y-99251946I1054239J-671625D01*
G01*
X236146087Y-99251946D01*
G75*
G02*
X236528701Y-100977810I-671625J-1054239D01*
G01*
X235319777Y-102875440D01*
G75*
G02*
X233593913Y-103258054I-1054239J671625D01*
G01*
X233593913Y-103258054D01*
G75*
G02*
X233211299Y-101532190I671625J1054239D01*
G01*
G37*
G36*
G01*
X239378171Y-100189309D02*
X239417619Y-99610653D01*
G75*
G02*
X240749743Y-98448567I1247105J-85019D01*
G01*
X240749743Y-98448567D01*
G75*
G02*
X241911829Y-99780691I-85019J-1247105D01*
G01*
X241872381Y-100359347D01*
G75*
G02*
X240540257Y-101521433I-1247105J85019D01*
G01*
X240540257Y-101521433D01*
G75*
G02*
X239378171Y-100189309I85019J1247105D01*
G01*
G37*
%TD*%
D11*
%TO.C,K8-6*%
X238125000Y-123825000D03*
D10*
X233045000Y-123825000D03*
X243205000Y-123825000D03*
G36*
G01*
X233211299Y-120582190D02*
X234420223Y-118684560D01*
G75*
G02*
X236146087Y-118301946I1054239J-671625D01*
G01*
X236146087Y-118301946D01*
G75*
G02*
X236528701Y-120027810I-671625J-1054239D01*
G01*
X235319777Y-121925440D01*
G75*
G02*
X233593913Y-122308054I-1054239J671625D01*
G01*
X233593913Y-122308054D01*
G75*
G02*
X233211299Y-120582190I671625J1054239D01*
G01*
G37*
G36*
G01*
X239378171Y-119239309D02*
X239417619Y-118660653D01*
G75*
G02*
X240749743Y-117498567I1247105J-85019D01*
G01*
X240749743Y-117498567D01*
G75*
G02*
X241911829Y-118830691I-85019J-1247105D01*
G01*
X241872381Y-119409347D01*
G75*
G02*
X240540257Y-120571433I-1247105J85019D01*
G01*
X240540257Y-120571433D01*
G75*
G02*
X239378171Y-119239309I85019J1247105D01*
G01*
G37*
%TD*%
%TO.C,K9-1*%
G36*
G01*
X258428171Y-23989309D02*
X258467619Y-23410653D01*
G75*
G02*
X259799743Y-22248567I1247105J-85019D01*
G01*
X259799743Y-22248567D01*
G75*
G02*
X260961829Y-23580691I-85019J-1247105D01*
G01*
X260922381Y-24159347D01*
G75*
G02*
X259590257Y-25321433I-1247105J85019D01*
G01*
X259590257Y-25321433D01*
G75*
G02*
X258428171Y-23989309I85019J1247105D01*
G01*
G37*
G36*
G01*
X252261299Y-25332190D02*
X253470223Y-23434560D01*
G75*
G02*
X255196087Y-23051946I1054239J-671625D01*
G01*
X255196087Y-23051946D01*
G75*
G02*
X255578701Y-24777810I-671625J-1054239D01*
G01*
X254369777Y-26675440D01*
G75*
G02*
X252643913Y-27058054I-1054239J671625D01*
G01*
X252643913Y-27058054D01*
G75*
G02*
X252261299Y-25332190I671625J1054239D01*
G01*
G37*
X262255000Y-28575000D03*
X252095000Y-28575000D03*
D11*
X257175000Y-28575000D03*
%TD*%
%TO.C,K9-2*%
X257175000Y-47625000D03*
D10*
X252095000Y-47625000D03*
X262255000Y-47625000D03*
G36*
G01*
X252261299Y-44382190D02*
X253470223Y-42484560D01*
G75*
G02*
X255196087Y-42101946I1054239J-671625D01*
G01*
X255196087Y-42101946D01*
G75*
G02*
X255578701Y-43827810I-671625J-1054239D01*
G01*
X254369777Y-45725440D01*
G75*
G02*
X252643913Y-46108054I-1054239J671625D01*
G01*
X252643913Y-46108054D01*
G75*
G02*
X252261299Y-44382190I671625J1054239D01*
G01*
G37*
G36*
G01*
X258428171Y-43039309D02*
X258467619Y-42460653D01*
G75*
G02*
X259799743Y-41298567I1247105J-85019D01*
G01*
X259799743Y-41298567D01*
G75*
G02*
X260961829Y-42630691I-85019J-1247105D01*
G01*
X260922381Y-43209347D01*
G75*
G02*
X259590257Y-44371433I-1247105J85019D01*
G01*
X259590257Y-44371433D01*
G75*
G02*
X258428171Y-43039309I85019J1247105D01*
G01*
G37*
%TD*%
%TO.C,K9-3*%
G36*
G01*
X258428171Y-62089309D02*
X258467619Y-61510653D01*
G75*
G02*
X259799743Y-60348567I1247105J-85019D01*
G01*
X259799743Y-60348567D01*
G75*
G02*
X260961829Y-61680691I-85019J-1247105D01*
G01*
X260922381Y-62259347D01*
G75*
G02*
X259590257Y-63421433I-1247105J85019D01*
G01*
X259590257Y-63421433D01*
G75*
G02*
X258428171Y-62089309I85019J1247105D01*
G01*
G37*
G36*
G01*
X252261299Y-63432190D02*
X253470223Y-61534560D01*
G75*
G02*
X255196087Y-61151946I1054239J-671625D01*
G01*
X255196087Y-61151946D01*
G75*
G02*
X255578701Y-62877810I-671625J-1054239D01*
G01*
X254369777Y-64775440D01*
G75*
G02*
X252643913Y-65158054I-1054239J671625D01*
G01*
X252643913Y-65158054D01*
G75*
G02*
X252261299Y-63432190I671625J1054239D01*
G01*
G37*
X262255000Y-66675000D03*
X252095000Y-66675000D03*
D11*
X257175000Y-66675000D03*
%TD*%
%TO.C,K9-4*%
X257175000Y-85725000D03*
D10*
X252095000Y-85725000D03*
X262255000Y-85725000D03*
G36*
G01*
X252261299Y-82482190D02*
X253470223Y-80584560D01*
G75*
G02*
X255196087Y-80201946I1054239J-671625D01*
G01*
X255196087Y-80201946D01*
G75*
G02*
X255578701Y-81927810I-671625J-1054239D01*
G01*
X254369777Y-83825440D01*
G75*
G02*
X252643913Y-84208054I-1054239J671625D01*
G01*
X252643913Y-84208054D01*
G75*
G02*
X252261299Y-82482190I671625J1054239D01*
G01*
G37*
G36*
G01*
X258428171Y-81139309D02*
X258467619Y-80560653D01*
G75*
G02*
X259799743Y-79398567I1247105J-85019D01*
G01*
X259799743Y-79398567D01*
G75*
G02*
X260961829Y-80730691I-85019J-1247105D01*
G01*
X260922381Y-81309347D01*
G75*
G02*
X259590257Y-82471433I-1247105J85019D01*
G01*
X259590257Y-82471433D01*
G75*
G02*
X258428171Y-81139309I85019J1247105D01*
G01*
G37*
%TD*%
%TO.C,K9-5*%
G36*
G01*
X258428171Y-100189309D02*
X258467619Y-99610653D01*
G75*
G02*
X259799743Y-98448567I1247105J-85019D01*
G01*
X259799743Y-98448567D01*
G75*
G02*
X260961829Y-99780691I-85019J-1247105D01*
G01*
X260922381Y-100359347D01*
G75*
G02*
X259590257Y-101521433I-1247105J85019D01*
G01*
X259590257Y-101521433D01*
G75*
G02*
X258428171Y-100189309I85019J1247105D01*
G01*
G37*
G36*
G01*
X252261299Y-101532190D02*
X253470223Y-99634560D01*
G75*
G02*
X255196087Y-99251946I1054239J-671625D01*
G01*
X255196087Y-99251946D01*
G75*
G02*
X255578701Y-100977810I-671625J-1054239D01*
G01*
X254369777Y-102875440D01*
G75*
G02*
X252643913Y-103258054I-1054239J671625D01*
G01*
X252643913Y-103258054D01*
G75*
G02*
X252261299Y-101532190I671625J1054239D01*
G01*
G37*
X262255000Y-104775000D03*
X252095000Y-104775000D03*
D11*
X257175000Y-104775000D03*
%TD*%
%TO.C,K9-6*%
X257175000Y-123825000D03*
D10*
X252095000Y-123825000D03*
X262255000Y-123825000D03*
G36*
G01*
X252261299Y-120582190D02*
X253470223Y-118684560D01*
G75*
G02*
X255196087Y-118301946I1054239J-671625D01*
G01*
X255196087Y-118301946D01*
G75*
G02*
X255578701Y-120027810I-671625J-1054239D01*
G01*
X254369777Y-121925440D01*
G75*
G02*
X252643913Y-122308054I-1054239J671625D01*
G01*
X252643913Y-122308054D01*
G75*
G02*
X252261299Y-120582190I671625J1054239D01*
G01*
G37*
G36*
G01*
X258428171Y-119239309D02*
X258467619Y-118660653D01*
G75*
G02*
X259799743Y-117498567I1247105J-85019D01*
G01*
X259799743Y-117498567D01*
G75*
G02*
X260961829Y-118830691I-85019J-1247105D01*
G01*
X260922381Y-119409347D01*
G75*
G02*
X259590257Y-120571433I-1247105J85019D01*
G01*
X259590257Y-120571433D01*
G75*
G02*
X258428171Y-119239309I85019J1247105D01*
G01*
G37*
%TD*%
D15*
%TO.C,TRRS1*%
X66700000Y-30350000D03*
X71300000Y-29250000D03*
X71300000Y-22250000D03*
D16*
X69000000Y-27650000D03*
X69000000Y-20650000D03*
D15*
X71300000Y-25250000D03*
%TD*%
D12*
%TO.C,U1*%
X84000000Y-53510000D03*
X86540000Y-53510000D03*
X89080000Y-53510000D03*
X91620000Y-53510000D03*
X81460000Y-53510000D03*
X78920000Y-53510000D03*
X76380000Y-53510000D03*
X91620000Y-50970000D03*
X91620000Y-48430000D03*
X91620000Y-45890000D03*
X91620000Y-43350000D03*
X91620000Y-40810000D03*
X91620000Y-38270000D03*
X91620000Y-35730000D03*
X91620000Y-33190000D03*
X91620000Y-30650000D03*
X91620000Y-28110000D03*
X91620000Y-25570000D03*
X91620000Y-23030000D03*
X91620000Y-20490000D03*
X89080000Y-23030000D03*
X89080000Y-28110000D03*
X89080000Y-30650000D03*
X89080000Y-33190000D03*
X76380000Y-50970000D03*
X76380000Y-48430000D03*
X76380000Y-45890000D03*
X76380000Y-43350000D03*
X76380000Y-40810000D03*
X76380000Y-38270000D03*
X76380000Y-35730000D03*
X76380000Y-33190000D03*
X76380000Y-30650000D03*
X76380000Y-28110000D03*
X76380000Y-25570000D03*
X76380000Y-23030000D03*
D13*
X76380000Y-20490000D03*
D12*
X83770000Y-21760000D03*
X85900000Y-21760000D03*
X86540000Y-48430000D03*
X86540000Y-50970000D03*
X84000000Y-50970000D03*
X86540000Y-45890000D03*
X86540000Y-43350000D03*
X84000000Y-48430000D03*
X84000000Y-45890000D03*
X86540000Y-40810000D03*
X84000000Y-43350000D03*
X86540000Y-38270000D03*
X86540000Y-35730000D03*
X84000000Y-40810000D03*
X83770000Y-26840000D03*
X84000000Y-38270000D03*
X84000000Y-35730000D03*
%TD*%
M02*
