M48
; DRILL file {KiCad (5.1.9)-1} date 04/23/21 02:48:11
; FORMAT={-:-/ absolute / inch / decimal}
; #@! TF.CreationDate,2021-04-23T02:48:11-06:00
; #@! TF.GenerationSoftware,Kicad,Pcbnew,(5.1.9)-1
; #@! TF.FileFunction,NonPlated,1,2,NPTH
FMAT,2
INCH
T1C0.0315
T2C0.0670
T3C0.1570
%
G90
G05
T1
X2.7165Y-0.813
X2.7165Y-1.0886
T2
X3.925Y-1.125
X3.925Y-1.875
X3.925Y-2.625
X3.925Y-3.375
X3.925Y-4.125
X3.925Y-4.875
X4.325Y-1.125
X4.325Y-1.875
X4.325Y-2.625
X4.325Y-3.375
X4.325Y-4.125
X4.325Y-4.875
X4.675Y-1.125
X4.675Y-1.875
X4.675Y-2.625
X4.675Y-3.375
X4.675Y-4.125
X4.675Y-4.875
X5.075Y-1.125
X5.075Y-1.875
X5.075Y-2.625
X5.075Y-3.375
X5.075Y-4.125
X5.075Y-4.875
X5.425Y-1.125
X5.425Y-1.875
X5.425Y-2.625
X5.425Y-3.375
X5.425Y-4.125
X5.425Y-4.875
X5.825Y-1.125
X5.825Y-1.875
X5.825Y-2.625
X5.825Y-3.375
X5.825Y-4.125
X5.825Y-4.875
X6.175Y-1.125
X6.175Y-1.875
X6.175Y-2.625
X6.175Y-3.375
X6.175Y-4.125
X6.175Y-4.875
X6.575Y-1.125
X6.575Y-1.875
X6.575Y-2.625
X6.575Y-3.375
X6.575Y-4.125
X6.575Y-4.875
X6.925Y-1.125
X6.925Y-1.875
X6.925Y-2.625
X6.925Y-3.375
X6.925Y-4.125
X6.925Y-4.875
X7.325Y-1.125
X7.325Y-1.875
X7.325Y-2.625
X7.325Y-3.375
X7.325Y-4.125
X7.325Y-4.875
X7.675Y-1.125
X7.675Y-1.875
X7.675Y-2.625
X7.675Y-3.375
X7.675Y-4.125
X7.675Y-4.875
X8.075Y-1.125
X8.075Y-1.875
X8.075Y-2.625
X8.075Y-3.375
X8.075Y-4.125
X8.075Y-4.875
X8.425Y-1.125
X8.425Y-1.875
X8.425Y-2.625
X8.425Y-3.375
X8.425Y-4.125
X8.425Y-4.875
X8.825Y-1.125
X8.825Y-1.875
X8.825Y-2.625
X8.825Y-3.375
X8.825Y-4.125
X8.825Y-4.875
X9.175Y-1.125
X9.175Y-1.875
X9.175Y-2.625
X9.175Y-3.375
X9.175Y-4.125
X9.175Y-4.875
X9.575Y-1.125
X9.575Y-1.875
X9.575Y-2.625
X9.575Y-3.375
X9.575Y-4.125
X9.575Y-4.875
X9.925Y-1.125
X9.925Y-1.875
X9.925Y-2.625
X9.925Y-3.375
X9.925Y-4.125
X9.925Y-4.875
X10.325Y-1.125
X10.325Y-1.875
X10.325Y-2.625
X10.325Y-3.375
X10.325Y-4.125
X10.325Y-4.875
T3
X4.125Y-1.125
X4.125Y-1.875
X4.125Y-2.625
X4.125Y-3.375
X4.125Y-4.125
X4.125Y-4.875
X4.875Y-1.125
X4.875Y-1.875
X4.875Y-2.625
X4.875Y-3.375
X4.875Y-4.125
X4.875Y-4.875
X5.625Y-1.125
X5.625Y-1.875
X5.625Y-2.625
X5.625Y-3.375
X5.625Y-4.125
X5.625Y-4.875
X6.375Y-1.125
X6.375Y-1.875
X6.375Y-2.625
X6.375Y-3.375
X6.375Y-4.125
X6.375Y-4.875
X7.125Y-1.125
X7.125Y-1.875
X7.125Y-2.625
X7.125Y-3.375
X7.125Y-4.125
X7.125Y-4.875
X7.875Y-1.125
X7.875Y-1.875
X7.875Y-2.625
X7.875Y-3.375
X7.875Y-4.125
X7.875Y-4.875
X8.625Y-1.125
X8.625Y-1.875
X8.625Y-2.625
X8.625Y-3.375
X8.625Y-4.125
X8.625Y-4.875
X9.375Y-1.125
X9.375Y-1.875
X9.375Y-2.625
X9.375Y-3.375
X9.375Y-4.125
X9.375Y-4.875
X10.125Y-1.125
X10.125Y-1.875
X10.125Y-2.625
X10.125Y-3.375
X10.125Y-4.125
X10.125Y-4.875
T0
M30
