M48
; DRILL file {KiCad (5.1.9)-1} date 04/23/21 02:48:11
; FORMAT={-:-/ absolute / inch / decimal}
; #@! TF.CreationDate,2021-04-23T02:48:11-06:00
; #@! TF.GenerationSoftware,Kicad,Pcbnew,(5.1.9)-1
; #@! TF.FileFunction,Plated,1,2,PTH
FMAT,2
INCH
T1C0.0157
T2C0.0276
T3C0.0354
T4C0.0433
T5C0.0591
T6C0.1063
%
G90
G05
T1
X3.2677Y-1.122
X3.3071Y-1.1614
X3.659Y-0.7636
X3.6997Y-0.8257
X3.6999Y-0.7852
X3.7008Y-1.8701
X3.7008Y-1.9291
X3.7795Y-2.126
X3.7795Y-2.3031
X3.8282Y-2.0369
X3.8386Y-2.3031
X3.8976Y-2.0079
X3.8976Y-2.3031
X3.9567Y-1.9685
X3.9567Y-2.3031
X4.1142Y-1.7323
X4.1142Y-3.2283
X4.2126Y-2.2057
X5.7283Y-5.1378
X6.4764Y-5.109
X7.2244Y-5.0805
X7.9724Y-5.0519
X8.7205Y-5.0234
X9.4882Y-4.9948
T2
X2.623Y-2.2653
X2.623Y-2.5723
X2.623Y-2.7884
X2.623Y-3.0955
X2.623Y-3.3115
X2.623Y-3.6186
X2.623Y-3.8346
X2.623Y-4.1417
X2.623Y-4.3578
X2.623Y-4.6649
X2.623Y-4.8809
X2.623Y-5.188
X2.7515Y-2.2653
X2.7515Y-2.5723
X2.7515Y-2.7884
X2.7515Y-3.0955
X2.7515Y-3.3115
X2.7515Y-3.6186
X2.7515Y-3.8346
X2.7515Y-4.1417
X2.7515Y-4.3578
X2.7515Y-4.6649
X2.7515Y-4.8809
X2.7515Y-5.188
X2.8799Y-2.2653
X2.8799Y-2.5723
X2.8799Y-2.7884
X2.8799Y-3.0955
X2.8799Y-3.3115
X2.8799Y-3.6186
X2.8799Y-3.8346
X2.8799Y-4.1417
X2.8799Y-4.3578
X2.8799Y-4.6649
X2.8799Y-4.8809
X2.8799Y-5.188
X3.0084Y-2.2653
X3.0084Y-2.5723
X3.0084Y-2.7884
X3.0084Y-3.0955
X3.0084Y-3.3115
X3.0084Y-3.6186
X3.0084Y-3.8346
X3.0084Y-4.1417
X3.0084Y-4.3578
X3.0084Y-4.6649
X3.0084Y-4.8809
X3.0084Y-5.188
X3.1368Y-2.2653
X3.1368Y-2.5723
X3.1368Y-2.7884
X3.1368Y-3.0955
X3.1368Y-3.3115
X3.1368Y-3.6186
X3.1368Y-3.8346
X3.1368Y-4.1417
X3.1368Y-4.3578
X3.1368Y-4.6649
X3.1368Y-4.8809
X3.1368Y-5.188
X3.2653Y-2.2653
X3.2653Y-2.5723
X3.2653Y-2.7884
X3.2653Y-3.0955
X3.2653Y-3.3115
X3.2653Y-3.6186
X3.2653Y-3.8346
X3.2653Y-4.1417
X3.2653Y-4.3578
X3.2653Y-4.6649
X3.2653Y-4.8809
X3.2653Y-5.188
X3.3937Y-2.2653
X3.3937Y-2.5723
X3.3937Y-2.7884
X3.3937Y-3.0955
X3.3937Y-3.3115
X3.3937Y-3.6186
X3.3937Y-3.8346
X3.3937Y-4.1417
X3.3937Y-4.3578
X3.3937Y-4.6649
X3.3937Y-4.8809
X3.3937Y-5.188
X3.5221Y-2.2653
X3.5221Y-2.5723
X3.5221Y-2.7884
X3.5221Y-3.0955
X3.5221Y-3.3115
X3.5221Y-3.6186
X3.5221Y-3.8346
X3.5221Y-4.1417
X3.5221Y-4.3578
X3.5221Y-4.6649
X3.5221Y-4.8809
X3.5221Y-5.188
X3.6506Y-2.2653
X3.6506Y-2.5723
X3.6506Y-2.7884
X3.6506Y-3.0955
X3.6506Y-3.3115
X3.6506Y-3.6186
X3.6506Y-3.8346
X3.6506Y-4.1417
X3.6506Y-4.3578
X3.6506Y-4.6649
X3.6506Y-4.8809
X3.6506Y-5.188
T4
X3.0071Y-0.8067
X3.0071Y-0.9067
X3.0071Y-1.0067
X3.0071Y-1.1067
X3.0071Y-1.2067
X3.0071Y-1.3067
X3.0071Y-1.4067
X3.0071Y-1.5067
X3.0071Y-1.6067
X3.0071Y-1.7067
X3.0071Y-1.8067
X3.0071Y-1.9067
X3.0071Y-2.0067
X3.0071Y-2.1067
X3.1071Y-2.1067
X3.2071Y-2.1067
X3.298Y-0.8567
X3.298Y-1.0567
X3.3071Y-1.4067
X3.3071Y-1.5067
X3.3071Y-1.6067
X3.3071Y-1.7067
X3.3071Y-1.8067
X3.3071Y-1.9067
X3.3071Y-2.0067
X3.3071Y-2.1067
X3.3819Y-0.8567
X3.4071Y-1.4067
X3.4071Y-1.5067
X3.4071Y-1.6067
X3.4071Y-1.7067
X3.4071Y-1.8067
X3.4071Y-1.9067
X3.4071Y-2.0067
X3.4071Y-2.1067
X3.5071Y-0.9067
X3.5071Y-1.1067
X3.5071Y-1.2067
X3.5071Y-1.3067
X3.5071Y-2.1067
X3.6071Y-0.8067
X3.6071Y-0.9067
X3.6071Y-1.0067
X3.6071Y-1.1067
X3.6071Y-1.2067
X3.6071Y-1.3067
X3.6071Y-1.4067
X3.6071Y-1.5067
X3.6071Y-1.6067
X3.6071Y-1.7067
X3.6071Y-1.8067
X3.6071Y-1.9067
X3.6071Y-2.0067
X3.6071Y-2.1067
T6
X4.5Y-1.5
X4.5Y-4.5
X9.75Y-1.5
X9.75Y-4.5
T3
G00X2.626Y-1.187
M15
G01X2.626Y-1.2028
M16
G05
G00X2.8071Y-0.8681
M15
G01X2.8071Y-0.8839
M16
G05
G00X2.8071Y-0.9862
M15
G01X2.8071Y-1.002
M16
G05
G00X2.8071Y-1.1437
M15
G01X2.8071Y-1.1594
M16
G05
T5
G00X4.0206Y-0.9491
M15
G01X3.9731Y-1.0238
M16
G05
G00X4.0206Y-1.6991
M15
G01X3.9731Y-1.7738
M16
G05
G00X4.0206Y-2.4491
M15
G01X3.9731Y-2.5238
M16
G05
G00X4.0206Y-3.1991
M15
G01X3.9731Y-3.2738
M16
G05
G00X4.0206Y-3.9491
M15
G01X3.9731Y-4.0238
M16
G05
G00X4.0206Y-4.6991
M15
G01X3.9731Y-4.7738
M16
G05
G00X4.225Y-0.925
M15
G01X4.2234Y-0.9478
M16
G05
G00X4.225Y-1.675
M15
G01X4.2234Y-1.6978
M16
G05
G00X4.225Y-2.425
M15
G01X4.2234Y-2.4478
M16
G05
G00X4.225Y-3.175
M15
G01X4.2234Y-3.1978
M16
G05
G00X4.225Y-3.925
M15
G01X4.2234Y-3.9478
M16
G05
G00X4.225Y-4.675
M15
G01X4.2234Y-4.6978
M16
G05
G00X4.7706Y-0.9491
M15
G01X4.7231Y-1.0238
M16
G05
G00X4.7706Y-1.6991
M15
G01X4.7231Y-1.7738
M16
G05
G00X4.7706Y-2.4491
M15
G01X4.7231Y-2.5238
M16
G05
G00X4.7706Y-3.1991
M15
G01X4.7231Y-3.2738
M16
G05
G00X4.7706Y-3.9491
M15
G01X4.7231Y-4.0238
M16
G05
G00X4.7706Y-4.6991
M15
G01X4.7231Y-4.7738
M16
G05
G00X4.975Y-0.925
M15
G01X4.9734Y-0.9478
M16
G05
G00X4.975Y-1.675
M15
G01X4.9734Y-1.6978
M16
G05
G00X4.975Y-2.425
M15
G01X4.9734Y-2.4478
M16
G05
G00X4.975Y-3.175
M15
G01X4.9734Y-3.1978
M16
G05
G00X4.975Y-3.925
M15
G01X4.9734Y-3.9478
M16
G05
G00X4.975Y-4.675
M15
G01X4.9734Y-4.6978
M16
G05
G00X5.5206Y-0.9491
M15
G01X5.4731Y-1.0238
M16
G05
G00X5.5206Y-1.6991
M15
G01X5.4731Y-1.7738
M16
G05
G00X5.5206Y-2.4491
M15
G01X5.4731Y-2.5238
M16
G05
G00X5.5206Y-3.1991
M15
G01X5.4731Y-3.2738
M16
G05
G00X5.5206Y-3.9491
M15
G01X5.4731Y-4.0238
M16
G05
G00X5.5206Y-4.6991
M15
G01X5.4731Y-4.7738
M16
G05
G00X5.725Y-0.925
M15
G01X5.7234Y-0.9478
M16
G05
G00X5.725Y-1.675
M15
G01X5.7234Y-1.6978
M16
G05
G00X5.725Y-2.425
M15
G01X5.7234Y-2.4478
M16
G05
G00X5.725Y-3.175
M15
G01X5.7234Y-3.1978
M16
G05
G00X5.725Y-3.925
M15
G01X5.7234Y-3.9478
M16
G05
G00X5.725Y-4.675
M15
G01X5.7234Y-4.6978
M16
G05
G00X6.2706Y-0.9491
M15
G01X6.2231Y-1.0238
M16
G05
G00X6.2706Y-1.6991
M15
G01X6.2231Y-1.7738
M16
G05
G00X6.2706Y-2.4491
M15
G01X6.2231Y-2.5238
M16
G05
G00X6.2706Y-3.1991
M15
G01X6.2231Y-3.2738
M16
G05
G00X6.2706Y-3.9491
M15
G01X6.2231Y-4.0238
M16
G05
G00X6.2706Y-4.6991
M15
G01X6.2231Y-4.7738
M16
G05
G00X6.475Y-0.925
M15
G01X6.4734Y-0.9478
M16
G05
G00X6.475Y-1.675
M15
G01X6.4734Y-1.6978
M16
G05
G00X6.475Y-2.425
M15
G01X6.4734Y-2.4478
M16
G05
G00X6.475Y-3.175
M15
G01X6.4734Y-3.1978
M16
G05
G00X6.475Y-3.925
M15
G01X6.4734Y-3.9478
M16
G05
G00X6.475Y-4.675
M15
G01X6.4734Y-4.6978
M16
G05
G00X7.0206Y-0.9491
M15
G01X6.9731Y-1.0238
M16
G05
G00X7.0206Y-1.6991
M15
G01X6.9731Y-1.7738
M16
G05
G00X7.0206Y-2.4491
M15
G01X6.9731Y-2.5238
M16
G05
G00X7.0206Y-3.1991
M15
G01X6.9731Y-3.2738
M16
G05
G00X7.0206Y-3.9491
M15
G01X6.9731Y-4.0238
M16
G05
G00X7.0206Y-4.6991
M15
G01X6.9731Y-4.7738
M16
G05
G00X7.225Y-0.925
M15
G01X7.2234Y-0.9478
M16
G05
G00X7.225Y-1.675
M15
G01X7.2234Y-1.6978
M16
G05
G00X7.225Y-2.425
M15
G01X7.2234Y-2.4478
M16
G05
G00X7.225Y-3.175
M15
G01X7.2234Y-3.1978
M16
G05
G00X7.225Y-3.925
M15
G01X7.2234Y-3.9478
M16
G05
G00X7.225Y-4.675
M15
G01X7.2234Y-4.6978
M16
G05
G00X7.7706Y-0.9491
M15
G01X7.7231Y-1.0238
M16
G05
G00X7.7706Y-1.6991
M15
G01X7.7231Y-1.7738
M16
G05
G00X7.7706Y-2.4491
M15
G01X7.7231Y-2.5238
M16
G05
G00X7.7706Y-3.1991
M15
G01X7.7231Y-3.2738
M16
G05
G00X7.7706Y-3.9491
M15
G01X7.7231Y-4.0238
M16
G05
G00X7.7706Y-4.6991
M15
G01X7.7231Y-4.7738
M16
G05
G00X7.975Y-0.925
M15
G01X7.9734Y-0.9478
M16
G05
G00X7.975Y-1.675
M15
G01X7.9734Y-1.6978
M16
G05
G00X7.975Y-2.425
M15
G01X7.9734Y-2.4478
M16
G05
G00X7.975Y-3.175
M15
G01X7.9734Y-3.1978
M16
G05
G00X7.975Y-3.925
M15
G01X7.9734Y-3.9478
M16
G05
G00X7.975Y-4.675
M15
G01X7.9734Y-4.6978
M16
G05
G00X8.5206Y-0.9491
M15
G01X8.4731Y-1.0238
M16
G05
G00X8.5206Y-1.6991
M15
G01X8.4731Y-1.7738
M16
G05
G00X8.5206Y-2.4491
M15
G01X8.4731Y-2.5238
M16
G05
G00X8.5206Y-3.1991
M15
G01X8.4731Y-3.2738
M16
G05
G00X8.5206Y-3.9491
M15
G01X8.4731Y-4.0238
M16
G05
G00X8.5206Y-4.6991
M15
G01X8.4731Y-4.7738
M16
G05
G00X8.725Y-0.925
M15
G01X8.7234Y-0.9478
M16
G05
G00X8.725Y-1.675
M15
G01X8.7234Y-1.6978
M16
G05
G00X8.725Y-2.425
M15
G01X8.7234Y-2.4478
M16
G05
G00X8.725Y-3.175
M15
G01X8.7234Y-3.1978
M16
G05
G00X8.725Y-3.925
M15
G01X8.7234Y-3.9478
M16
G05
G00X8.725Y-4.675
M15
G01X8.7234Y-4.6978
M16
G05
G00X9.2706Y-0.9491
M15
G01X9.2231Y-1.0238
M16
G05
G00X9.2706Y-1.6991
M15
G01X9.2231Y-1.7738
M16
G05
G00X9.2706Y-2.4491
M15
G01X9.2231Y-2.5238
M16
G05
G00X9.2706Y-3.1991
M15
G01X9.2231Y-3.2738
M16
G05
G00X9.2706Y-3.9491
M15
G01X9.2231Y-4.0238
M16
G05
G00X9.2706Y-4.6991
M15
G01X9.2231Y-4.7738
M16
G05
G00X9.475Y-0.925
M15
G01X9.4734Y-0.9478
M16
G05
G00X9.475Y-1.675
M15
G01X9.4734Y-1.6978
M16
G05
G00X9.475Y-2.425
M15
G01X9.4734Y-2.4478
M16
G05
G00X9.475Y-3.175
M15
G01X9.4734Y-3.1978
M16
G05
G00X9.475Y-3.925
M15
G01X9.4734Y-3.9478
M16
G05
G00X9.475Y-4.675
M15
G01X9.4734Y-4.6978
M16
G05
G00X10.0206Y-0.9491
M15
G01X9.9731Y-1.0238
M16
G05
G00X10.0206Y-1.6991
M15
G01X9.9731Y-1.7738
M16
G05
G00X10.0206Y-2.4491
M15
G01X9.9731Y-2.5238
M16
G05
G00X10.0206Y-3.1991
M15
G01X9.9731Y-3.2738
M16
G05
G00X10.0206Y-3.9491
M15
G01X9.9731Y-4.0238
M16
G05
G00X10.0206Y-4.6991
M15
G01X9.9731Y-4.7738
M16
G05
G00X10.225Y-0.925
M15
G01X10.2234Y-0.9478
M16
G05
G00X10.225Y-1.675
M15
G01X10.2234Y-1.6978
M16
G05
G00X10.225Y-2.425
M15
G01X10.2234Y-2.4478
M16
G05
G00X10.225Y-3.175
M15
G01X10.2234Y-3.1978
M16
G05
G00X10.225Y-3.925
M15
G01X10.2234Y-3.9478
M16
G05
G00X10.225Y-4.675
M15
G01X10.2234Y-4.6978
M16
G05
T0
M30
